<svg xmlns="http://www.w3.org/2000/svg" xmlns:xlink="http://www.w3.org/1999/xlink" width="32" height="32" viewBox="0 0 32 32">
  <defs>
    <clipPath id="clip-path">
      <rect id="Rectangle_5" data-name="Rectangle 5" width="32" height="32" transform="translate(1273 2114)" fill="#fff"/>
    </clipPath>
  </defs>
  <g id="Mask_Group_1" data-name="Mask Group 1" transform="translate(-1273 -2114)" clip-path="url(#clip-path)">
    <g id="Group_32" data-name="Group 32">
      <g id="arrow" transform="translate(1278.748 2123)">
        <path id="Path_46" data-name="Path 46" d="M960.425,539.571a9.274,9.274,0,0,0,5.875,2.09c2.52,0,6.478-2.629,6.478-2.629h0s-2.629,3.958-2.629,6.478a9.268,9.268,0,0,0,2.091,5.875" transform="translate(-956.026 -539.032)" fill="none" stroke="#fff" stroke-linecap="round" stroke-linejoin="round" stroke-width="2"/>
        <line id="Line_12" data-name="Line 12" y1="16.752" x2="16.752" transform="translate(0 0)" fill="none" stroke="#fff" stroke-linecap="round" stroke-linejoin="round" stroke-width="2"/>
      </g>
      <g id="arrow-2" data-name="arrow" transform="translate(1248.748 2153)">
        <path id="Path_46-2" data-name="Path 46" d="M960.425,539.571a9.274,9.274,0,0,0,5.875,2.09c2.52,0,6.478-2.629,6.478-2.629h0s-2.629,3.958-2.629,6.478a9.268,9.268,0,0,0,2.091,5.875" transform="translate(-956.026 -539.032)" fill="none" stroke="#fff" stroke-linecap="round" stroke-linejoin="round" stroke-width="2"/>
        <line id="Line_12-2" data-name="Line 12" y1="16.752" x2="16.752" transform="translate(0 0)" fill="none" stroke="#fff" stroke-linecap="round" stroke-linejoin="round" stroke-width="2"/>
      </g>
    </g>
  </g>
</svg>
