<?xml version="1.0" encoding="utf-8"?>
<!-- Generator: Adobe Illustrator 28.0.0, SVG Export Plug-In . SVG Version: 6.00 Build 0)  -->
<svg version="1.0" id="katman_1" xmlns="http://www.w3.org/2000/svg" xmlns:xlink="http://www.w3.org/1999/xlink" x="0px" y="0px"
	 viewBox="0 0 841.89 595.28" style="enable-background:new 0 0 841.89 595.28;" xml:space="preserve">
<style type="text/css">
	.st0{fill:#F8BC24;}
	.st1{fill:#055799;}
	.st2{fill:none;}
</style>
<path class="st0" d="M166.55,314.76l-23.27,5.54l-23.25,5.55c-23.47,5.39-39.63-5.44-46.28-10.96l-12.09,29.5
	c6.67,5.5,22.82,16.36,46.29,10.96l23.27-5.56l23.26-5.54c23.46-5.4,39.63,5.44,46.28,10.94l12.08-29.48
	C206.18,320.21,190.01,309.36,166.55,314.76"/>
<path class="st0" d="M181.99,277.47l-23.25,5.53l-23.26,5.55c-23.47,5.41-39.64-5.45-46.29-10.96l-12.08,29.53
	c6.65,5.48,22.82,16.31,46.28,10.93l23.26-5.55l23.27-5.54c23.46-5.42,39.63,5.45,46.29,10.93l12.07-29.51
	C221.62,282.91,205.46,272.08,181.99,277.47"/>
<path class="st0" d="M197.44,240.17l-23.26,5.58l-23.26,5.53c-23.47,5.39-39.63-5.44-46.29-10.95l-12.07,29.51
	c6.64,5.5,22.82,16.35,46.27,10.96l23.26-5.56l23.26-5.55c23.47-5.38,39.63,5.45,46.29,10.96l12.08-29.51
	C237.08,245.63,220.9,234.79,197.44,240.17"/>
<path class="st1" d="M464.18,265.2c7.76,0,14.06-6.36,14.06-14.21c0-7.86-6.29-14.24-14.06-14.24c-7.75,0-14.05,6.38-14.05,14.24
	C450.13,258.84,456.43,265.2,464.18,265.2"/>
<path class="st1" d="M296.1,265.16c7.75,0,14.04-6.36,14.04-14.21c0-7.87-6.29-14.24-14.04-14.24c-7.77,0-14.05,6.37-14.05,14.24
	C282.05,258.8,288.33,265.16,296.1,265.16"/>
<polygon class="st1" points="277.44,272.78 245.1,350.14 270.7,350.14 302.79,272.78 "/>
<polygon class="st1" points="430.28,281.59 430.28,272.21 418.22,272.21 430.55,242.38 403.72,246.06 392.9,272.21 379.53,272.21 
	379.53,281.59 389.02,281.59 360.85,349.73 386.24,349.73 414.35,281.59 "/>
<polygon class="st1" points="445.06,272.21 412.9,349.73 438.29,349.73 470.41,272.21 "/>
<polygon class="st1" points="559.15,272.21 542.51,272.21 503.18,297.86 526.1,242.37 499.28,246.06 456.41,349.73 481.8,349.73 
	499.97,305.64 507.07,349.73 532.28,349.73 523.73,296.53 "/>
<path class="st1" d="M633.34,275.77c-3.61-4.15-12.68-4.66-21.76-5.17h-16.04l11.66-28.23l-26.83,3.69l-34.08,82.42
	c-2.27,5.51-2.82,11.41-0.68,14.96c2.77,4.59,10.8,5.65,17.95,6.4c11.28,1.14,20.34,1.44,30.03-1c3.07-0.75,6.22-1.81,8.97-3.19
	c12.73-6.47,17.28-20.43,24.24-37.12C632.05,295.99,638.67,281.89,633.34,275.77 M608.69,293.93l-16.51,40.51
	c-2.31,5.74-8.69,8.66-14.23,6.59c-5.54-2.08-8.14-8.39-5.82-14.09l16.52-40.54c2.32-5.7,8.7-8.66,14.23-6.57
	C608.4,281.91,611.02,288.21,608.69,293.93"/>
<path class="st1" d="M703.74,272.31l-4.69,2.17c-3.81-2.05-7.62-4.08-11.71-5.08c-9.01-2.18-19.39,0.77-27.35,6.33
	c-5.88,4.09-10.11,10.66-12.09,15.6c-4.99,12.53-9.65,24.21-13.63,33.87c-1.83,4.44-2.87,9.29-1.71,13.61
	c0.98,3.65,3.86,7.02,7.22,9.03c5.91,3.54,13.31,2.84,20.14,1.69c3.88-0.65,7.57-1.44,11.27-2.22l-1.11,2.26h23.18l32.11-77.27
	H703.74z M692.81,293.93l-16.17,40.51c-2.28,5.74-8.61,8.66-14.18,6.59c-5.55-2.08-8.21-8.39-5.94-14.09l16.17-40.54
	c2.27-5.7,8.63-8.66,14.18-6.57C692.43,281.91,695.09,288.21,692.81,293.93"/>
<path class="st1" d="M343.04,278.47c2.88,0.13,6.15,0.99,8.94,2.12c3.95,1.67,6.85,4.02,9.71,6.42l3.48-8.48
	c-7.95-8.78-24.05-12.44-35.3-9.01c-11.08,3.38-17.45,13.6-17.59,22.71c-0.16,9.38,3.22,16.83,8.63,30.8
	c2.3,5.87,3.02,18.75-9,17.59c-5.59-0.52-12.62-3.76-16.69-6.74l-3.67,8.96c5.82,3.74,11.71,7.4,19.03,8.81
	c11.22,2.22,26.02-0.54,33.5-10.09c6-7.68,3.32-19.57,1.14-26.1c-3.21-9.72-9.24-21.7-10.15-29.31
	C334.55,281.7,337.75,278.19,343.04,278.47"/>
<polygon class="st1" points="751.9,246.06 709.04,349.73 734.43,349.73 781,242.38 "/>
<rect class="st2" width="841.89" height="595.28"/>
</svg>
