<?xml version="1.0" encoding="utf-8"?>
<!-- Generator: Adobe Illustrator 28.5.0, SVG Export Plug-In . SVG Version: 9.03 Build 54727)  -->
<svg version="1.0" id="katman_1" xmlns="http://www.w3.org/2000/svg" xmlns:xlink="http://www.w3.org/1999/xlink" x="0px" y="0px"
	 viewBox="0 0 841.89 595.28" style="enable-background:new 0 0 841.89 595.28;" xml:space="preserve">
<style type="text/css">
	.st0{fill-rule:evenodd;clip-rule:evenodd;fill:#FF8500;}
	.st1{fill-rule:evenodd;clip-rule:evenodd;}
</style>
<path class="st0" d="M653.95,415.73c-17.48,0-35.12-1.42-52.82-4.43c-51.71-8.65-86.01-27.05-87.44-27.84l26.19-43.97l-13.07,21.99
	l12.96-22.04c0.33,0.16,29.22,15.45,72.39,22.36c56.57,9.07,110.15,0.26,159.33-26.15l25.91,44.08
	C753.02,403.55,704.23,415.73,653.95,415.73z"/>
<path class="st1" d="M158.19,204.74c-9.35-9.34-25.3-15.28-47.86-17.82c-10.41-1.12-22.1-1.77-35.05-1.96l-30.69-0.33l0.28,148.19
	l47.25-0.11L91.68,296c18.11-2.28,34.78-8.87,50.01-19.77c17.81-12.86,26.7-28.68,26.66-47.48
	C168.35,219.51,164.97,211.51,158.19,204.74z M115.25,252.87c-3.68,4.31-7.89,7.64-12.64,10c-4.75,2.32-8.28,3.49-10.6,3.53
	l-0.5-52.53c19.43,1.63,29.2,9.62,29.26,23.96C120.77,243.58,118.89,248.57,115.25,252.87z"/>
<polygon class="st1" points="239.28,223.91 240.11,333.05 190.98,333.16 190.93,224.02 "/>
<polygon class="st1" points="190.87,184.96 239.78,184.85 239.39,215.87 190.93,215.98 "/>
<path class="st1" d="M406.81,218.53c-8.98-13.25-23.48-22.2-43.5-26.84c-7.06-1.7-12.95-2.88-17.66-3.53
	c-7.25-1.09-14.48-1.63-21.69-1.63c-2.28,0.04-8.56-0.14-18.82-0.54c0,0-30.41-0.87-38.53-0.81l-0.11,149.01
	c7.69,0,17.46-0.67,29.31-2.01c10.64-1.23,19.91-2.77,27.82-4.62c23-5.32,41.86-13.47,56.58-24.45
	c22.52-16.73,33.76-36.99,33.73-60.79C413.89,233.45,411.52,225.52,406.81,218.53z M356.08,272.64
	c-10.01,12.78-23.88,20.62-41.62,23.52l-0.17-77.74c32.75-0.11,49.16,10.92,49.24,33.08C363.53,259.29,361.05,266.34,356.08,272.64z
	"/>
<path class="st1" d="M430.38,183.82l91.08-3.97l0.94,34.39l-45.15,1.14l0.05,27.7c0,0,34.11-1.79,38.2-2.12l0.5,33.52
	c-14.76-0.54-27.64-0.81-38.64-0.81l0.11,24.77l47.69-0.38l1.32,35.85l-95.77-1.96L430.38,183.82z"/>
<path class="st1" d="M600.23,179.1l2.21,0.05l51,82.03l49.18-79.2h2.37l63.2,136.95l-43,18.9l-29.09-75.18l-45.49,66.76h-2.26
	c-19.76-30.09-33.8-52.02-42.12-65.78l-22.52,74.53l-41.68-15.37C556.4,285.95,600.23,179.1,600.23,179.1z"/>
</svg>
