<svg xmlns="http://www.w3.org/2000/svg" width="42.56mm" height="14.61mm" viewBox="0 0 120.64 41.42"><defs><style>.cls-1{fill:#008bca;}.cls-2{fill:#fff;}.cls-3{fill:#1d1d1b;}</style></defs><g id="Layer_2" data-name="Layer 2"><g id="Layer_1-2" data-name="Layer 1"><rect class="cls-1" x="3.15" y="3.15" width="35.08" height="35.13"/><rect class="cls-2" x="41.37" y="22.54" width="76.12" height="15.74"/><rect class="cls-2" x="41.37" y="3.15" width="76.12" height="16.25"/><path class="cls-3" d="M50.87,28.56v1.77h1.68c.67,0,1-.3,1-.9s-.38-.87-1.14-.87ZM49.22,34.8V27.28h3.54q2.4,0,2.4,1.86a1.64,1.64,0,0,1-1,1.57,1.8,1.8,0,0,1,1.38,1.91,2,2,0,0,1-.82,1.67,3.09,3.09,0,0,1-1.83.51Zm1.65-3.35v2.07h1.77c.82,0,1.23-.34,1.23-1s-.4-1.07-1.2-1.07Z"/><polygon class="cls-3" points="56.63 34.8 56.63 27.28 62.26 27.28 62.26 28.67 58.29 28.67 58.29 30.28 61.94 30.28 61.94 31.57 58.29 31.57 58.29 33.41 62.34 33.41 62.34 34.8 56.63 34.8"/><polygon class="cls-3" points="63.46 34.8 63.46 27.28 65.11 27.28 65.11 33.41 68.78 33.41 68.78 34.8 63.46 34.8"/><polygon class="cls-3" points="69.71 34.8 69.71 27.28 75.33 27.28 75.33 28.67 71.36 28.67 71.36 30.28 75 30.28 75 31.57 71.36 31.57 71.36 33.41 75.42 33.41 75.42 34.8 69.71 34.8"/><path class="cls-3" d="M78.19,28.67v4.74h1.47a1.77,1.77,0,0,0,1.3-.5,2.44,2.44,0,0,0,.57-1.75,2.91,2.91,0,0,0-.46-1.81,2,2,0,0,0-1.7-.68ZM76.53,34.8V27.28h3.25a3.22,3.22,0,0,1,2.43.93,3.78,3.78,0,0,1,1,2.79,4.13,4.13,0,0,1-.84,2.72,3.18,3.18,0,0,1-2.57,1.08Z"/><path class="cls-3" d="M85.87,26.4H84.45V25.16h1.42ZM86,34.8H84.34V27.28H86Z"/><polygon class="cls-3" points="89.39 34.8 89.39 31.87 86.62 27.28 88.49 27.28 90.25 30.25 92 27.28 93.84 27.28 91.05 31.91 91.05 34.8 89.39 34.8"/><polygon class="cls-3" points="94.47 34.8 94.47 27.28 100.1 27.28 100.1 28.67 96.13 28.67 96.13 30.28 99.77 30.28 99.77 31.57 96.13 31.57 96.13 33.41 100.18 33.41 100.18 34.8 94.47 34.8"/><path class="cls-3" d="M100.82,32.31h1.6a1.25,1.25,0,0,0,.51,1.07,1.92,1.92,0,0,0,1.16.32,2.31,2.31,0,0,0,.94-.18.81.81,0,0,0,.52-.76c0-.43-.39-.75-1.16-1q-2-.57-2.16-.66a1.84,1.84,0,0,1-1.16-1.75,2,2,0,0,1,.9-1.72,3.27,3.27,0,0,1,1.92-.56,3.59,3.59,0,0,1,2.09.56,2.14,2.14,0,0,1,.92,1.86h-1.6c0-.75-.54-1.13-1.49-1.13a1.44,1.44,0,0,0-.77.19.74.74,0,0,0-.37.66.63.63,0,0,0,.42.6,15,15,0,0,0,1.83.54,4.11,4.11,0,0,1,1.31.5,1.89,1.89,0,0,1,.92,1.69,2.09,2.09,0,0,1-.8,1.72A3.58,3.58,0,0,1,104,35a3.66,3.66,0,0,1-2.23-.64,2.39,2.39,0,0,1-1-2"/><path class="cls-3" d="M109.67,26.4h-1.42V25.16h1.42Zm.12,8.4h-1.66V27.28h1.66Z"/><polygon class="cls-3" points="49.38 15.57 49.38 8.05 51.04 8.05 51.04 11.17 53.98 8.05 56.04 8.05 53.1 11.03 56.33 15.57 54.25 15.57 51.99 12.19 51.04 13.15 51.04 15.57 49.38 15.57"/><path class="cls-3" d="M59.86,9.91l-1,2.76h1.95l-.94-2.76Zm-3.67,5.67L59,8.05h1.7l2.81,7.53H61.83l-.57-1.68H58.45l-.59,1.68Z"/><path class="cls-3" d="M65.86,9.45v4.74h1.47a1.74,1.74,0,0,0,1.3-.51,2.43,2.43,0,0,0,.58-1.75,2.92,2.92,0,0,0-.47-1.81A2,2,0,0,0,67,9.45ZM64.2,15.58V8.05h3.25A3.24,3.24,0,0,1,69.88,9a3.81,3.81,0,0,1,1,2.79A4.11,4.11,0,0,1,70,14.49a3.18,3.18,0,0,1-2.57,1.09Z"/><rect class="cls-3" x="72.01" y="8.05" width="1.65" height="7.52"/><polygon class="cls-3" points="75.11 15.57 75.11 8.05 76.77 8.05 76.77 11.17 79.71 8.05 81.77 8.05 78.83 11.03 82.06 15.57 79.98 15.57 77.72 12.19 76.77 13.15 76.77 15.57 75.11 15.57"/><path class="cls-3" d="M83.53,6H85V7.21H83.53ZM85.7,6h1.42V7.21H85.7Zm-2.43,5.87a3,3,0,0,0,.47,1.72,2,2,0,0,0,3.16,0,3,3,0,0,0,.46-1.72,3.09,3.09,0,0,0-.46-1.78,1.77,1.77,0,0,0-1.58-.8,1.75,1.75,0,0,0-1.58.8,3.1,3.1,0,0,0-.47,1.78m-1.65,0A4.11,4.11,0,0,1,82.6,9,3.81,3.81,0,0,1,88,9a4.11,4.11,0,0,1,1,2.83,4,4,0,0,1-1,2.77,3.84,3.84,0,0,1-5.44,0,4,4,0,0,1-1-2.77"/><polygon class="cls-3" points="91.48 15.58 91.48 12.65 88.71 8.05 90.57 8.05 92.33 11.03 94.08 8.05 95.92 8.05 93.13 12.69 93.13 15.58 91.48 15.58"/><path class="cls-3" d="M38.23,0h82.41V41.4L0,41.42V0H38.23Zm3.14,19.39h76.12V3.15H41.37Zm0,18.88h76.12V22.54H41.37ZM38.23,3.15H3.15V38.27H38.23Z"/><path class="cls-3" d="M16.58,23.81a2.58,2.58,0,0,0-.09,3,6.61,6.61,0,0,0,2,1.68,55.17,55.17,0,0,0,7.86,3.65,45.42,45.42,0,0,0,8.64,2c2.26.33-4.2-4.68-8.53-6.74S18,22.25,16.58,23.81m-.14-1.5c-2.62-2.3,4.5-10.64,5.38-11.61a21.16,21.16,0,0,1,3.63-3.23,2.07,2.07,0,0,1,1.86-.54c.52.17-.17,2.36-.48,3.08a45.88,45.88,0,0,1-4.69,7.44c-1.3,1.64-4.17,6.21-5.7,4.86M12.52,34.48C11.45,34.3,10.33,32.36,10,31S9.8,22.22,9.8,20.88,10,11.63,11.63,7.64c.79-1.88,2,1.68,2.73,7.43.67,5.51,1.55,15.52.43,17.55s-2.27,1.86-2.27,1.86"/></g></g></svg>