<?xml version="1.0" encoding="utf-8"?>
<!-- Generator: Adobe Illustrator 28.2.0, SVG Export Plug-In . SVG Version: 6.00 Build 0)  -->
<svg version="1.0" id="katman_1" xmlns="http://www.w3.org/2000/svg" xmlns:xlink="http://www.w3.org/1999/xlink" x="0px" y="0px"
	 viewBox="0 0 841.89 595.28" style="enable-background:new 0 0 841.89 595.28;" xml:space="preserve">
<style type="text/css">
	.st0{fill:#E30613;}
</style>
<g>
	<g>
		<g>
			<polygon class="st0" points="213.7,382.36 207.79,378.68 70.58,380.47 70.58,373.87 207.79,375.65 213.7,372.02 230.36,377.18 
							"/>
		</g>
		<g>
			<polygon class="st0" points="268.94,327.58 262.39,325.2 69.95,367.94 68.58,361.49 261.79,322.25 266.77,317.45 284.16,319.03 
							"/>
		</g>
		<g>
			<polygon class="st0" points="66.71,355.81 275.1,261.06 281.99,262.01 295.13,250.51 277.78,252.56 273.88,258.29 64.05,349.79 
				68.32,351.52 			"/>
		</g>
		<g>
			<polygon class="st0" points="226.38,226.84 219.45,227.33 61.04,344.62 57.18,339.29 217.67,224.88 220.29,218.46 236.82,212.85 
							"/>
		</g>
		<g>
			<polygon class="st0" points="151.67,228.37 144.97,230.29 53.19,334.84 48.29,330.43 142.72,228.26 143.96,221.44 158.95,212.51 
							"/>
		</g>
		<g>
			<polygon class="st0" points="101.75,229.7 95.63,232.97 43.44,326.92 37.75,323.63 92.99,231.45 92.8,224.53 105.62,212.67 			
				"/>
		</g>
	</g>
	<g>
		<path class="st0" d="M432.68,377.45c-41.48,0-66.19-26.13-66.19-69.91c0-53.12,34.02-90.22,82.75-90.22
			c41.7,0,65.02,21.71,65.8,61.18v2.68h-48.45l0.07-2.72c0.21-6.5-1.21-11.35-4.27-14.51c-2.92-3.01-7.4-4.51-13.37-4.51
			c-25.1,0-31.74,30.92-31.74,47.27c0,18.99,7.15,28.61,21.19,28.61c15.75,0,20.97-12.97,22.72-20.71l0.39-2.07h50.02l-0.53,3.09
			C507.72,334.26,493.46,377.45,432.68,377.45 M649.48,373.94l31.96-153.09h75.43c30.57-0.02,47.35,17.83,47.35,50.22
			c0,33.14-28.61,58.15-66.62,58.15H709.1l-9.31,44.72H649.48z M731.81,288.75c19.16,0,21.61-7.56,21.58-14.15
			c0.03-7.41-5.08-10.6-16.99-10.6H723l-5.3,24.75H731.81z M589.87,373.94l12.19-58.59h-36.22l-12.23,58.58l-50.91,0.02
			l31.96-153.09l50.94-0.04l-10.77,51.36h36.22l10.77-51.32h50.94l-31.96,153.07L589.87,373.94z"/>
	</g>
</g>
</svg>
