<?xml version="1.0" encoding="utf-8"?>
<!-- Generator: Adobe Illustrator 26.4.1, SVG Export Plug-In . SVG Version: 6.00 Build 0)  -->
<svg version="1.0" id="katman_1" xmlns="http://www.w3.org/2000/svg" xmlns:xlink="http://www.w3.org/1999/xlink" x="0px" y="0px"
	 viewBox="0 0 841.89 595.28" style="enable-background:new 0 0 841.89 595.28;" xml:space="preserve">
<style type="text/css">
	.st0{clip-path:url(#SVGID_00000104705700744027264400000010246063574297892013_);}
	.st1{fill:#FFFFFF;}
	.st2{fill:#009342;}
	.st3{fill:#E5172A;}
</style>
<g>
	<defs>
		<rect id="SVGID_1_" x="65.18" y="208.34" width="710.82" height="171.47"/>
	</defs>
	<clipPath id="SVGID_00000073680069655108146140000001648284689319648182_">
		<use xlink:href="#SVGID_1_"  style="overflow:visible;"/>
	</clipPath>
	<g style="clip-path:url(#SVGID_00000073680069655108146140000001648284689319648182_);">
		<path class="st1" d="M143.22,282.19h90.33c-0.77-5.3-2.05-10.51-3.84-15.56h-83.19c-6.61,0-9.25-2.48-8.26-8.11l8.89-46.87
			c-2.27,0.13-4.54,0.35-6.79,0.67l-13.18,50.17c-3.64,14.06,0.99,19.69,16.03,19.69L143.22,282.19z"/>
		<path class="st1" d="M138.26,306.69c-24.29,0-35.19-13.41-27.76-34.59l20.4-57.88c-2.49,0.65-4.96,1.43-7.38,2.31l-25.59,58.71
			c-12.06,27.81,3.14,47,38.33,47h93.25c1.81-5.05,3.13-10.26,3.94-15.56h-95.22L138.26,306.69z"/>
		<path class="st2" d="M146.52,266.64h83.19c-11.33-32.11-41.89-55.12-77.82-55.12c-1.59,0-3.17,0.05-4.74,0.14l-8.89,46.87
			C137.27,264.15,139.92,266.63,146.52,266.64L146.52,266.64z"/>
		<path class="st2" d="M97.95,275.25l25.59-58.71c-31.33,11.47-53.32,41.3-54.14,75.45c-0.43,94.14,126.97,117.41,160.14,30.27
			h-93.25C101.09,322.26,85.9,303.06,97.95,275.25L97.95,275.25z"/>
		<path class="st3" d="M138.26,306.69h95.21c0.62-4.08,0.94-8.25,0.94-12.5c0.01-4.02-0.29-8.03-0.87-12h-90.32
			c-15.03,0-19.66-5.63-16.03-19.69l13.18-50.17c-3.22,0.45-6.37,1.08-9.45,1.89l-20.41,57.88
			C103.06,293.3,113.97,306.7,138.26,306.69L138.26,306.69z M261.65,301.86c0-34.4,25.41-60.35,59.25-60.35
			c21.46,0,38.46,12.57,45.55,32.24l-23.76,6.78c-3.63-10.58-12.55-16.53-24.09-16.53c-19.64,0-33.84,15.05-33.84,35.71
			c0,16.21,10.4,26.96,27.23,26.96c11.39,0,21.63-6.12,26.74-16.53l20.96,10.58c-9.9,17.53-28.71,28.77-50.01,28.77
			C280.96,349.48,261.65,328.98,261.65,301.86L261.65,301.86z M364.65,311.13c0-26.78,20.3-48.78,44.89-48.78
			c11.55,0,20.13,3.97,25.75,12.07l4.3-9.75h17.99l-8.75,82.67h-21.29l1.15-9.75c-7.43,8.1-16.67,12.07-28.23,12.07
			C380,349.66,364.65,332.96,364.65,311.13L364.65,311.13z M432.15,303.03c0-12.07-8.42-20.34-20.8-20.34
			c-14.36,0-25.25,11.4-25.25,26.29c0,12.07,8.08,20.34,20.46,20.34c14.53,0,25.58-11.41,25.58-26.29H432.15z M546.36,319.56
			l3.63-34.39h-14.36l2.15-20.5h14.36l1.82-16.7l21.95-6.45l-2.48,23.15h18.65l-2.15,20.5h-18.65l-3.63,34.4
			c-0.66,6.78,2.97,8.77,11.22,8.77c1.82,0,4.3-0.17,6.6-0.33l-2.15,19.34c-4.13,0.5-7.76,0.66-11.06,0.66
			C550.82,348,544.39,338.58,546.36,319.56L546.36,319.56z M594.72,347.34l8.75-82.67h17.99l2.31,9.75
			c6.43-7.61,16.67-11.4,26.24-11.4l-2.31,22.15h-3.47c-11.72,0-22.45,6.79-23.93,21.17l-4.3,41.01L594.72,347.34L594.72,347.34z
			 M646.87,310.8c0-26.95,21.46-48.45,48.36-48.45c22.78,0,39.28,16.7,39.28,38.86c0,26.95-21.45,48.45-48.36,48.45
			C663.38,349.65,646.87,332.95,646.87,310.8z M713.05,303.03c0-11.74-7.93-19.84-19.97-19.84c-14.03,0-24.76,11.08-24.76,25.8
			c0,11.74,7.92,19.84,19.97,19.84C702.32,328.83,713.05,317.75,713.05,303.03z M739.47,347.34l10.4-99.37l21.95-6.45l-11.06,105.82
			L739.47,347.34L739.47,347.34z M456.89,326.84l21.63-7.27c2.8,7.11,7.93,10.75,15.51,10.75c7.59,0,11.55-2.81,11.55-6.77
			c0-11.9-39.11-6.44-39.11-32.07c0-16.86,14.53-29.1,34.33-29.1c14.03,0,24.59,8.27,28.88,22.98l-20.96,5.95
			c-1.65-6.61-5.28-9.92-10.9-9.92s-9.41,3.14-9.41,7.11c0,11.74,39.61,4.79,39.61,32.41c0,17.03-14.69,28.77-36.64,28.77
			c-17.33,0-29.05-7.77-34.49-22.82L456.89,326.84z"/>
	</g>
</g>
</svg>
