<?xml version="1.0" encoding="utf-8"?>
<!-- Generator: Adobe Illustrator 25.4.1, SVG Export Plug-In . SVG Version: 6.00 Build 0)  -->
<svg version="1.0" id="katman_1" xmlns="http://www.w3.org/2000/svg" xmlns:xlink="http://www.w3.org/1999/xlink" x="0px" y="0px"
	 viewBox="0 0 1360.6 935.4" style="enable-background:new 0 0 1360.6 935.4;" xml:space="preserve">
<style type="text/css">
	.st0{fill:#A09744;}
	.st1{fill:#026839;}
	.st2{fill-rule:evenodd;clip-rule:evenodd;fill:#026839;}
</style>
<path class="st0" d="M689.3,606.3l3.6-7.6c1.4,1.7,4,3.2,7.7,3.2c3.7,0,5.6-1.4,5.6-3.9c0-3.4-2.9-3.8-6.8-4.9
	c-6.5-1.9-10-4.8-10-12.3c0-8.1,5.6-12.1,13.4-12.1c4.5,0,8.1,1,10.6,2.7l-3.5,7.3c-1.6-1.4-3.9-2.4-6.7-2.4c-3.5,0-5.2,1.1-5.2,3.7
	c0,2.6,2,3.4,5.9,4.4c8.4,2.2,11.4,5.2,11.4,12.6c0,8-4.9,12.6-14.2,12.6C695.8,609.5,692.2,608.2,689.3,606.3z"/>
<path class="st0" d="M654.8,569.2h9.5l12.4,24.4h0.1v-24.4h8.7v39.7H676l-12.4-24.7h-0.1v24.7h-8.7V569.2z"/>
<path class="st0" d="M728.6,569.2h9.4l13.3,39.7h-9.7l-2.2-7.1H727l-2.2,7.1h-9.5L728.6,569.2z M729.2,594.1h8.1l-3.9-13.9h-0.1
	L729.2,594.1z"/>
<path class="st0" d="M753.7,569.2h9.5l12.4,24.4h0.1v-24.4h8.7v39.7h-9.5l-12.4-24.7h-0.1v24.7h-8.8V569.2z"/>
<path class="st0" d="M790.4,608.9v-28c0-1,0.7-1.6,1.8-1.8l7-1.1v31H790.4z"/>
<path class="st0" d="M790.4,571c0-1,0.8-1.8,1.8-1.8h7v4.8c0,1-0.6,1.5-1.8,1.8l-7,1.1V571z"/>
<path class="st0" d="M640.3,608.9v-28c0-1,0.7-1.6,1.8-1.8l7-1.1v31H640.3z"/>
<path class="st0" d="M640.3,571c0-1,0.8-1.8,1.8-1.8h7v4.8c0,1-0.6,1.5-1.8,1.8l-7,1.1V571z"/>
<path class="st0" d="M1038.5,608.9h-10.1l-12.8-39.7h9.2l8.8,28.9h0.1l8.4-28.9h9.2L1038.5,608.9z"/>
<path class="st0" d="M1059.9,569.2h9l12.6,39.7h-9.2l-2.1-7.1h-11.8l-2.1,7.1h-9L1059.9,569.2z M1060.5,594.1h7.7l-3.7-13.9h-0.1
	L1060.5,594.1z"/>
<path class="st0" d="M1083.9,569.2h8.8v15.2l11.1-15.2h10.9l-12.5,15.6l14.1,24.1h-10.9l-9.1-16.7l-3.6,4.5v12.2h-8.8V569.2z"/>
<path class="st0" d="M1118.9,569.2h22.9v8.3h-14.1v8.1h11.9v8h-11.9v15.3h-8.8V569.2z"/>
<path class="st0" d="M1144.7,608.9h8.9v-39.7h-6.3c-1.4,0-2.5,1.1-2.5,2.8L1144.7,608.9L1144.7,608.9z"/>
<path class="st0" d="M834.5,594.1v14.8h-9.3v-14.8l-13-24.9h10.5l7.1,16.1l7.1-16.1h10.5L834.5,594.1z"/>
<path class="st0" d="M855.3,569.2h9.4l13.3,39.7h-9.7l-2.2-7.1h-12.4l-2.2,7.1H842L855.3,569.2z M855.9,594.1h8.1l-3.9-13.9H860
	L855.9,594.1z"/>
<path class="st0" d="M914.7,569.2h14.5c10.4,0,16.6,7.4,16.6,19.7c0,13-6.3,20-16.6,20h-14.5V569.2z M923.5,600h4.2
	c6.7-0.2,9.3-3.2,9.3-11.2c0-7.2-3.3-10.7-9.3-10.7h-4.2V600z"/>
<path class="st0" d="M965,569.2h13l5.8,26.5h0.1l5.8-26.5h13v39.7h-8.3v-30.2h-0.1l-7.1,30.2h-6.7l-7.1-30.2h-0.1v30.2H965V569.2z"
	/>
<path class="st0" d="M894.2,594.4h-3.7v14.5h-9.8v-39.7h13.4c9.5,0,14.3,4.2,14.3,12.2c0,5-2,8.5-5.3,10.6l8.4,16.9h-10.4
	L894.2,594.4z M890.3,587.2h3.1c3.6,0,5.2-1.8,5.2-5.3c0-3.5-1.6-5.3-5.2-5.3h-3.1V587.2z"/>
<path class="st0" d="M950.3,608.9h8.9v-39.7h-6.4c-1.4,0-2.5,1.1-2.5,2.8V608.9z"/>
<path class="st1" d="M876.4,323.2c-5.8,0-10.5,4.7-10.5,10.5v71.1h-50.7c-6.3,0-11.1,3.5-13.1,7.9l-9.2,17.2V323.2h-53.5
	c-5.8,0-10.5,4.7-10.5,10.5v217.2h53.5c5.8,0,10.5-4.7,10.5-10.5v-79.8h73v90.2h53.5c5.8,0,10.5-4.7,10.5-10.5V323.2H876.4z"/>
<path class="st1" d="M1100.1,323.2c-5.8,0-10.5,4.7-10.5,10.5v71.1h-50.7c-6.3,0-11.1,3.5-13.1,7.9l-9.2,17.2V323.2h-53.5
	c-5.8,0-10.5,4.7-10.5,10.5v217.2h53.5c5.8,0,10.5-4.7,10.5-10.5v-79.8h73v90.2h53.5c5.8,0,10.5-4.7,10.5-10.5V323.2H1100.1z"/>
<path class="st1" d="M706.7,540.6c0,5.8-4.7,10.5-10.5,10.5h-55.8V390.2c0-5.8,3.9-9.1,10.5-10.5l55.8-6.3V540.6z"/>
<path class="st1" d="M640.3,333.7c0-5.8,4.7-10.5,10.5-10.5h55.8v27.4c0,5.8-3.7,8.7-10.5,10.5l-55.8,6.3V333.7z"/>
<path class="st0" d="M452.1,430.8c0,0-7.8,0.9-7.8,8.1c0,5.7,4.3,9.1,7.2,9.4c3.2,0.3,9.4-1.9,9.4-9
	C460.9,430.8,452.1,430.8,452.1,430.8z"/>
<path class="st0" d="M527.1,418.3c-4.5-25.6-17.8-47.7-18.9-49.5c-18.3-28.2-47.4-41-50.4-42.1c-3-1.1-12.6-7.4-17-9.2
	c-4.4-1.8-16.5-3.5-18.6-3.4c-2,0.1-16.8,0-19,0c-2.2,0-12.6,0-14.7,0.2c-13.8,1.7-27.2,7.4-31,8.5c-3.8,1.1-5.2,1-6.4,1.5
	c-27.1,11.8-42.9,31.4-42.9,31.4s-10.8,15-11.5,16.3c-16.5,28.2-16.8,53.7-17.2,58.6c-0.3,4.9,0.3,16.3,0.3,17.9
	c0,1.6,0.4,14.7,0.8,19.1c0.3,4.4,1.5,6.7,3.9,8.7c2.4,2,7.5,6.5,7.5,6.5s1.1-1.3,1.6-2.5c0.5-1.3,1-4.1,0.7-5.5
	c-0.4-1.4-0.2-3.2-0.2-3.2l2-0.3l-0.7-2c-0.6-1.1,0-2.4-0.2-3.2c-0.1-0.8-1.7-4.9-2.6-9.8c-1-4.9,0-7.2,4.1-9.9
	c4.1-2.7,11.7-2.3,11.7-2.3s0.2-0.5,0.2-1.6c0-1.1-1.4-2.9-2.3-3c-1-0.1-1.3-0.3-2.7-1c-1.4-0.6-0.3-1.6-0.3-1.6
	c1.4,0,1.1-1.1,1.1-1.1l0.1-2.7c0,0-1.7,0.2-3.1-0.5c-5.4-2.4-6.6-11.4-6.4-14.2c0.2-2.9,1.9-11.7,2.2-13.4
	c4.2-22.2,14.1-34.5,17.1-37.4c3-2.9,6.7-0.3,8.7,0.3c1.9,0.7,3.2,0.7,3.2,0.7s0.3-1.3,1.8-2.4c1.4-1.1,5.7-2.5,7.3-3.3
	c1.5-0.8,1.1-1.7,0.2-2.5c-0.9-0.8-2.8-2.3-4.4-2.9c-1.5-0.5-1.1-1.6-0.4-2.5l5.5-6c8.4-8.1,14.7-10.7,19.3-12.9
	c4.6-2.2,10.3-3.9,10.3-3.9l0.1,5.2l-2.3,5c-4.7,10.9-13.9,21.6-13.9,21.6l-5.2,0.2c-0.8,0-4.6-0.5-7.9,1.2
	c-3.3,1.7-2.4,5.7-2.4,5.7l1.6,1.4l-0.8,1.1c0,0,4.2-0.2,6.1,0.6c1.9,0.8,3.4,4.8,3.2,6.3c-0.1,1.6-1.6,9-4.1,17
	c-2.6,8.1-3.1,15.9-2.9,20.1c0.2,4.1,0.3,6.6-1,9.8c-1.2,3.1-5.8,4.5-9.3,4.4c-3.5-0.2-9.8-0.1-12,0.3c-2.2,0.3-0.5,1-0.5,1l0.2,1.6
	l1.4,2.5l-1.4,2.8l-0.8,1.3c3.1,0.2,4.4,2.9,4.4,2.9s1.7-0.3,3.9,0c2.2,0.3,9.1,2.5,11.3,4.1c2.2,1.6,3.3,3.8,3.1,4.9
	c-0.1,1,0.2,5.1,0,6.6c-1.2,13.1,2.8,19.2,4.5,22.4c1.7,3.1,3,8.5,3.4,13.1c0.5,4.6-2.7,5.2-7.2,8.2c-4.6,3-17.2,9.3-17.2,9.3
	s-2.5,0-7.9-6.5c-5.5-6.5-9.3-18.4-9.4-19.8c-0.1-1.4,0.1-3.6-2.8-1.9c-3,1.7-1.5,4.5-1,7.1c0.6,2.7,0,3.7-1,4c-1,0.3-4.4-4.5-6-5.5
	c-1.6-1.1-1,1.3-0.9,2.5c0.5,8.6,5.6,15,6.7,16.3c25.6,30,63.4,44.7,70.9,47.4c7.4,2.7,12.2,2.4,14.6,2.4l11.1,0.1l0.1,0.2l4.2,0.7
	l2.8-1.4l0.4-3.2c-0.9-2.6-2.3-6.8-4.2-12c-4.8-13.2,0.6-31.7,1.5-34.4c2.5-9.4,7.7-21.4,17.1-36.7c9.9-16.2,13.2-30.9,9.8-43.8
	c-1.8-6.7-5.1-11.8-8.3-15.3c0.2,0.1,0.3,0.1,0.5,0.2c4,1.5,9.6,3.7,18.9,2.3c3.2-0.5,6.6-1.2,9.9-1.8c19.3-3.9,37.5-7.6,47.9,20.4
	c2.2,6,3.4,12.4,4.6,19.2c2.2,12.4,5.1,26.6,14.8,38.7l4.3-9.2c1.5-3.3,2.2-5.4,2.4-5.9c6.9-15,6.2-26,5.5-28.1
	c-0.8-2,0.8-3.3,2.2-6.6C530,438.8,527.3,419.5,527.1,418.3z M362.8,367.8c1-4.4,7.4-23.2,20.4-37.5c1.1-1.2,4.6-3.6,7.6-3.8
	c3-0.1,3.4,3.8,4,5.1c0.6,1.2,1.6,6.6,0.9,8.5c-0.6,1.9-1.4,5.3-1.7,8.1c-0.3,2.7,0.6,4.4,1.4,6.3c0.8,1.9,1.6,4.3,2.8,4.1
	c1.3-0.2,2.9-1.6,4.1-2.5c1.3-0.9,4.3-3.1,4.6-6.8c0.3-3.6-0.5-5.7-0.9-7.7c-0.5-2.1-0.5-3.6-0.6-6.2c-0.2-2.5,0.7-3.4,0.7-3.4
	s0-1.9,1.5-4.1c1.4-2.2,3.5-2.5,4.6-2.2c1.1,0.4,5,1.4,10.5,10.8c0.7,1.3,4.2,7.9,8.1,17.9c0.7,1.7,1.9,7.6,3.9,10.9
	c2.1,3.3,3.9,7.7,3.9,7.7s-7.9,3.3-15.9,4.4c-2,0.3-8,1-10.7-0.7c-2.6-1.6-2.8-4.1-2.6-5l-0.8-4c0-0.9-1.5-5.6-3.7-7.9
	c-2.2-2.2-2.2-1-1.7,0.1c0.5,1.1,1.4,7.4-1,7.6l-1.1-1.1c-0.8-0.9-2.2-0.9-3.6-1.1c-1.4-0.2-1.7,0.9-1.6,2.2c0.2,1.3,0,5.8,0,5.8
	s0,4.9-6.5,5c-6.4,0.2-11.9-2.5-17.2-3.7c-5.4-1.1-7.9-2.4-7.9-2.4S361.9,372.1,362.8,367.8z M432.3,342.4c0,0,7.4,8.4,9.7,15.5
	c2.4,7.1,3.9,8.7,3.9,8.7s-3.4,0.7-8.1-8.9c-2.4-4.7-3.2-9.5-4.1-11.4C432.9,344.5,432.3,342.4,432.3,342.4z M343.2,480.9
	c-1.2-2.4-1.6-5.9-2.6-8.2c-1-2.4-1.8-5.9-1.8-5.9s-0.8-3.3,1.7-3.3c2.5,0,2.4,0.7,3.5,2.2c1,1.5,1.8,3.5,2.3,4.1v3l-0.7,2.8
	c0.4,1,0.1,0.7,0.7,2.4c0.5,1.7,1.1,3.7,1.6,5.2c0.6,1.4,0.9,3.3,0.8,4.6c-0.2,1.2-0.6,3.1-0.7,5c-0.1,1.9-0.8,4.2-0.8,4.2
	s-0.8-1.2-0.8-3.3c0-2-0.3-4.2-1.2-5.9C344.5,486.1,344.5,483.3,343.2,480.9z M366.9,542.4c-1.5-0.3-4.3-0.4-8-1.7
	c-3.7-1.3-10.4-5.5-17.4-10.1c-6.9-4.6-11.5-8.1-11.5-8.1s-3.2-0.8-0.5-2.7c2.8-1.8,13.8-7.8,15.7-8.6c1.8-0.8,5.2-2.6,9.2,2.7
	c4,5.3,9.6,17.3,11.2,21c1.7,3.6,3.5,7.2,3.5,7.2S368.5,542.7,366.9,542.4z M390.8,505.7c-5.2,15.4-3.7,35.1-3.2,40.7
	c-0.2,0-0.4,0.1-0.6,0.2c-1.8,0.2-6.4-1.4-11.5-11.9c-1.3-2.7-4.9-10.6-8.1-18.5c-3.2-7.9-5.2-10.2-5.2-10.2s-0.8-1,0.6-1.7
	c1.3-0.7,8.8-3.9,10.4-4.7c1.7-0.8,5.1-2.4,7-2.5c2-0.1,6.1,0,8.1,0.2c1.9,0.1,1.9-0.8,3.7,0.8c0,0,0.7,0.4,1.4,0.8
	C392.4,501.1,391.6,503.4,390.8,505.7z M393.2,483.3c-2.4,0.1-5.2,0.7-8.5,1.1c-6.7,0.8-9.1,3.2-13.2,4.7c-4.2,1.5-8.4,3.5-10.4,3.5
	l-3.7,0c0,0-0.8-1.9-2.1-4.7c-1.3-2.8-2.5-7.1-4.6-12.7c-2-5.6-3-5.9-2.9-9.2c0.2-3.3-0.3-5.4-0.1-7.7c0.1-2.2,0.8-3.1,0.1-4.5
	c-0.7-1.4-1-2.2-1.5-2.6l-1-1.4l0.3-2c0.8-0.9,2.9-2.2,9.2-3.6c6.2-1.4,10.2-1,12.7-1.3c2.5-0.4,5.6-0.7,8.2-0.7
	c2.7,0,5,0.8,9.5,1.2c4.5,0.5,5.8,1.6,8,2.5c2.3,1,3,2,2.8,3.4c-0.2,1.4,0,33.3,0,33.3S395.5,483.2,393.2,483.3z M411.7,462.3
	c0,0-1.3,2.2-3.4,5.8c-0.5-3.2-1.3-6.8-1.2-7.3c0.2-0.9,0-2.5,0-5.2c0-2.7,1.3-4,2.3-6.8c1-2.8,5-4.4,7-5.3c0.4-0.2,1.6-0.6,2.5-0.8
	C417.4,453.1,411.7,462.3,411.7,462.3z M418.3,430.1c-4.1,0-7.6,0-8,0c-1.6,0-4.9,0.3-6.9,1.1c-2,0.8-3.5,1.4-4.5,1.3
	c-1.1-0.1-5.6-1.4-6.9-2.1c-1.4-0.6-3.2-1-4.5-0.8c-1.2,0.1-1.1,0.1-1.9,0.7l-1.4,1.2c0,0-2.5-1.9-3.8-1.6c-2.1,0.5-6.3,0.1-8.5,0.6
	c-2.2,0.5-7.7,0.9-9.9,1.1c-2.2,0.2-5.5-0.7-8.6-1.3c-3.2-0.7-5.2-0.5-5.2-0.5l0.2-3.6c0.1-0.8,0.6-0.8,0.5-2.7
	c-0.1-1.9-0.3-3-0.4-5.7c-0.1-2.7-0.6-4.6-0.3-6.3c0.3-1.7,1.1-6.1,3-12.8c1.9-6.7,3.2-10.6,3.8-12.3c0.6-1.7,0.9-3.6,2.7-3.3
	c1.8,0.3,11.8,2.9,14.3,3.2c2.5,0.3,9.3,2.2,14.2,3.7c4.8,1.4,7.2,3.5,8.7,4.3c1.6,0.8,2.2,0.8,2.1,2.4c-0.2,1.6-0.7,6.1-1.2,8.4
	c-0.4,2.2,0.6,7.4,0.9,9.5c0.3,2,3,10.6,3,10.6s1.5-1.4,2.6-4c1.2-2.5,1.2-3.9,2.4-3.1c1.3,0.8,3.7,2.9,3.7,2.9s0.1-0.8,0-1.9
	c-0.1-0.7,0.2-3.7,0.3-5.8C411.3,416.3,416.2,422.9,418.3,430.1z M451.6,403.9c0,0-10.4,3.4-19,3.5c-6.3,0.1-13-1.5-13-1.5
	s-4.6-1-8,0.5c-1.2,0.6-2.4,1.6-3.3,2.5c-0.6-2.4-1.4-6.2-0.5-9.2c0.6-2.1,0.6-3,4.2-6.3c3.6-3.3,7.2-4,9-4.4
	c1.7-0.5,6-0.6,13.1-2.6c7.1-2,8.8-3,8.8-3s1.1-2.4,2.7-0.3c1.1,1.5,5.6,10.6,8.4,20.2C452.6,403.7,451.6,403.9,451.6,403.9z
	 M449.4,357.1c-6-15.1-12.3-20.9-12.3-20.9s1.6-1.6,2.7-2.4c1.1-0.8,2-0.6,2-0.6s3.4,1.2,15.2,6.5c11.8,5.2,15.4,10,16.7,10.9
	c1.2,0.9,0.6,2,0.6,2s1-0.6,0.8,1.1c-0.2,1.7-2.7,4.3-6.4,5.8c-3.6,1.6-11.6,4.4-13.4,5.2C453.6,365.5,451.6,362.7,449.4,357.1z
	 M503.2,429.3c-0.4-1-0.8-2-1.2-2.9c-5.2-11.3-13-17-13-17s-7.4-6.5-17-7.5c-2-0.2-4.1-0.2-6.1-0.2h0c-0.3-0.4-2-6.1-2.1-6.3
	l-0.6-1.7c0,0-1,0.8-1.3,2c-0.1,0.3,1.4,5.9,1.3,6.2c-2.3,0.2-4.5,0.5-6.3,0.8c-0.2-0.5-0.3-0.8-0.4-0.9c-0.7-1.9-1.3-5.2-1.4-6.3
	c-0.2-1.1,0.5-1.7,0.7-2.5l1-3c0.3-0.8,0.2-0.8,1.4-0.5c1.2,0.3,3,0.5,3,0.5s0.6-2.9-0.6-5.5c-1.3-2.7-1.7-4.3-1.7-4.3
	s-0.2-0.5,2.2-2.4c2.4-1.9,9.2-6.7,12.1-8.7c3-1.9,2.7-1.7,5.4-3.3c2.7-1.5,4.5-3.6,4.5-3.6s5.5,5,10.5,11.5
	c5,6.5,12.2,16.6,13,16.3c0.8-0.3,0-4.1,1.3-4.3c1.3-0.1,3.5,1.9,4.9,3.4c1.4,1.4,2.7,1.6,2.5,2.7c-0.2,1.1,0.4,2.7-0.6,2.5
	c-1.2-0.2-1.3-1-2.2-1l-2,0.1l-0.8,2.1l0.8,2.7c0.1,0.9,0.8,4.3,1.5,6.7c0.8,2.5,2.1,8.1,2.2,9.3c0.2,1.3,0.3,6.5,0.4,8.1
	c0.1,1.6-0.1,5.5-0.1,5.5l-1.6,0.8c-1.2,0.6-2.7,1.6-3.9,1.4c-1.3-0.2-3.3-0.8-5.3-1C503.6,429.2,503.4,429.3,503.2,429.3z
	 M517.3,449c-0.1,1.2-1.2,3.6-1.5,5.2c-0.8,3.9-1.5,6.1-2.8,9.9l-0.5-0.2c0,0-1.4-3.2-3.5-11.5c-1-3.7-2-9.1-3.3-14.2
	c1.5-0.4,3.5-1.1,4.9-1.3c6-0.9,5.7-2.9,5.7-2.9s0.5,1.7-0.3,4.2c-0.9,2.5-0.4,5.9,0.3,7C517.3,446.2,517.4,447.7,517.3,449z"/>
<path class="st2" d="M338.5,581c0,0-9.4-6.3-17.6-18.2c-5.5-8-8.7-20.6-14.8-27.8c-9.4-11.1-19.8-15.6-19.8-15.6s4.1,7.9,8.4,19.9
	c2.3,6.3,4.3,16,6.5,21.3c2.7,6.4,5.9,12.1,5.9,12.1s-12.8,0.3-28.5-3.7c-15.6-4-34.4-14.4-34.4-14.4s8.7,22.8,39.5,30.8
	C305.3,591,338.5,581,338.5,581z"/>
<path class="st2" d="M293,562.1c0,0-5.4-9.5-9-23.5c-2.4-9.5-3.3-23.6-6.4-32.3c-4.3-12.1-10.9-17.6-10.9-17.6s1.3,8.1,1.5,21
	c0.1,4.8-0.7,11.1-0.9,16.1c-0.2,6.8,2.6,15,2.6,15s-3.9-3.2-10.4-7.2c-6.3-3.9-15.1-8.4-21.6-13.1c-11.4-8.2-19.7-18.7-19.7-18.7
	s4.8,25.9,25.2,41.8C267.8,562.6,293,562.1,293,562.1z"/>
<path class="st2" d="M256.9,523.8c0,0-0.2-7.8,1.2-18.6c1.1-8.3,3.8-18.5,3.7-27.3c-0.2-17.8-5.8-30.5-5.8-30.5s-1,8.9-3.9,21.2
	c-1.1,4.5-3.9,13.3-4.7,17.2c-1.1,5.4-1.5,11.4-1.5,11.4s-3.5-5.4-9.4-11.2c-4.1-4-10.9-10.7-14.4-14.9
	c-10.2-12.3-13.8-19.3-13.8-19.3s-0.2,19.9,11.2,36.8C232.3,507.7,256.9,523.8,256.9,523.8z"/>
<path class="st2" d="M231.1,468c5.6,7,8.5,11.3,8.5,11.3s1.8-10.1,6.2-22.5c3-8.4,8.4-17.8,10.6-26.3c3.3-12.5,2.2-22.5,2.2-22.5
	s-9.2,13.9-16.1,26.1c-5.1,8.9-7.8,19.6-7.8,19.6s-3.7-10.2-8.6-19.5c-2.7-5.1-7-10.6-9.2-15.6c-3.6-8.1-4.1-15.6-4.1-15.6
	s-7.3,17.8-1.8,33.5C215.1,448.1,224.6,459.8,231.1,468z"/>
<path class="st2" d="M233.8,431.7c0,0,4-6.9,10.9-15.8c4.1-5.4,10.5-11.3,14.1-17.2c7.7-12.7,9.7-24.5,9.7-24.5s-3.4,4.1-9.5,9.4
	c-3.6,3.1-9.2,6.4-12.6,9.8c-5.9,6-9.9,13.2-9.9,13.2s-3.6-11.9-4.7-22.4c-1.3-12.6,0-24.2,0-24.2s-12.2,12.8-11.8,30.2
	c0.2,9.1,5.3,21.8,8.6,29.2C232.1,427.1,233.8,431.7,233.8,431.7z"/>
<path class="st2" d="M251.1,381.1c6.2-5.1,15.5-11.2,21.3-17.9c8.4-9.6,11.4-21.7,11.4-21.7s-7.9,8-16.8,14.1
	c-7.2,4.9-15.7,8.3-15.7,8.3s0.4-3.6,0.8-11c0.2-3.4,1.1-15.7,1.9-19.5c2.7-12.4,8.1-18.1,8.1-18.1s-17.3,13.6-22.2,30.8
	c-5.8,20.4,0.7,45.1,0.7,45.1S244.1,386.9,251.1,381.1z"/>
<path class="st2" d="M278.8,337c3.3-3.6,7.6-14.1,10.2-18.2c5.4-8.6,7.5-10.2,7.5-10.2s-16.7,5-26.1,15.3
	c-9.4,10.4-11.5,26.3-11.5,26.3S270.4,346.4,278.8,337z"/>
<path class="st2" d="M497.9,594.4c-15.4-0.8-31.4-3.7-49.8-9.2c-2.4-0.7-23.9-6.5-45.9-1.3c-22-5.2-43.5,0.6-45.9,1.3
	c-18.4,5.5-34.4,8.4-49.8,9.2c-24.2,1.2-37.4-7.2-37.4-7.2s13.4,18,34.9,21.5c19.3,3.1,47-8.3,47-8.3s17.5-8.8,34.9-10.4
	c-20.4,11-37.9,31.2-37.9,31.2l6.9,5.4c0,0,20.2-27.5,47.2-35.3c27,7.8,47.2,35.3,47.2,35.3l6.9-5.4c0,0-17.5-20.2-37.9-31.2
	c17.5,1.5,35,10.4,35,10.4s27.7,11.4,47,8.3c21.5-3.5,34.9-21.5,34.9-21.5S522.2,595.6,497.9,594.4z"/>
<path class="st2" d="M497.3,572.7c0,0,3.3-5.6,5.9-12.1c2.2-5.3,4.2-15,6.5-21.3c4.3-12,8.4-19.9,8.4-19.9s-10.4,4.5-19.8,15.6
	c-6.1,7.2-9.3,19.8-14.8,27.8c-8.2,12-17.6,18.2-17.6,18.2s33.2,10,54.7,4.4c30.8-8,39.5-30.8,39.5-30.8s-18.7,10.5-34.3,14.4
	C510.1,573,497.3,572.7,497.3,572.7z"/>
<path class="st2" d="M566.6,520.6c-6.5,4.7-15.3,9.2-21.6,13.1c-6.5,3.9-10.4,7.2-10.4,7.2s2.8-8.2,2.6-15c-0.2-5-1-11.3-0.9-16.1
	c0.2-12.9,1.5-21,1.5-21s-6.5,5.4-10.9,17.6c-3.1,8.7-4,22.9-6.4,32.3c-3.5,14-9,23.5-9,23.5s25.1,0.5,49.6-18.5
	c20.4-15.9,25.2-41.8,25.2-41.8S578,512.3,566.6,520.6z"/>
<path class="st2" d="M585,488.7c11.4-16.9,11.2-36.8,11.2-36.8s-3.6,7-13.8,19.2c-3.5,4.2-10.3,10.8-14.4,14.9
	c-5.9,5.8-9.4,11.2-9.4,11.2s-0.3-6-1.5-11.4c-0.8-3.9-3.6-12.7-4.7-17.2c-2.9-12.2-3.9-21.2-3.9-21.2s-5.6,12.8-5.8,30.6
	c-0.1,8.8,2.6,19,3.7,27.3c1.4,10.8,1.2,18.6,1.2,18.6S572.2,507.7,585,488.7z"/>
<path class="st2" d="M569.7,453.7c0,0-2.8-10.7-7.8-19.6c-7-12.2-16.1-26.1-16.1-26.1s-1.1,10,2.2,22.5c2.3,8.5,7.6,17.9,10.6,26.3
	c4.4,12.4,6.2,22.5,6.2,22.5s2.9-4.3,8.5-11.3c6.5-8.2,16.1-19.9,20.1-31.5c5.5-15.7-1.8-33.5-1.8-33.5s-0.6,7.5-4.1,15.6
	c-2.2,5-6.5,10.5-9.2,15.6C573.4,443.5,569.7,453.7,569.7,453.7z"/>
<path class="st2" d="M545.4,383.6c-6.1-5.3-9.5-9.4-9.5-9.4s2.1,11.8,9.7,24.5c3.6,5.9,10,11.9,14.1,17.2
	c6.8,8.9,10.9,15.8,10.9,15.8s1.8-4.6,5.1-12.2c3.3-7.4,8.4-20.2,8.6-29.2c0.5-17.4-11.8-30.2-11.8-30.2s1.3,11.6,0,24.2
	c-1.1,10.5-4.7,22.4-4.7,22.4s-3.9-7.2-9.8-13.2C554.7,390,549,386.6,545.4,383.6z"/>
<path class="st2" d="M552.4,352.9c0.4,7.4,0.8,11,0.8,11s-8.5-3.3-15.7-8.3c-8.9-6.1-16.8-14.1-16.8-14.1s3,12.1,11.4,21.7
	c5.8,6.7,15.1,12.8,21.3,17.9c7,5.8,10.5,10.1,10.5,10.1s6.5-24.7,0.7-45.1c-4.9-17.2-22.2-30.8-22.2-30.8s5.3,5.7,8.1,18.1
	C551.3,337.2,552.2,349.5,552.4,352.9z"/>
<path class="st2" d="M515.5,318.8c2.6,4.1,6.9,14.6,10.2,18.2c8.4,9.3,19.9,13.2,19.9,13.2s-2.1-15.8-11.5-26.3
	c-9.4-10.4-26.1-15.3-26.1-15.3S510.1,310.2,515.5,318.8z"/>
</svg>
