<?xml version="1.0" encoding="utf-8"?>
<!-- Generator: Adobe Illustrator 26.0.3, SVG Export Plug-In . SVG Version: 6.00 Build 0)  -->
<svg version="1.0" id="katman_1" xmlns="http://www.w3.org/2000/svg" xmlns:xlink="http://www.w3.org/1999/xlink" x="0px" y="0px"
	 viewBox="0 0 600 450" style="enable-background:new 0 0 600 450;" xml:space="preserve">
<style type="text/css">
	.st0{fill:#025850;}
</style>
<g id="Group_8">
	<path id="Path_26" class="st0" d="M128.2,179.5c-25.3,0.2-45.6,20.9-45.4,46.2c0.2,25.3,20.9,45.6,46.2,45.4
		c25.1-0.2,45.4-20.7,45.4-45.8C174.2,199.9,153.6,179.4,128.2,179.5z M147.3,220c-4.8,2.3-8.8,6-11.4,10.7c-1.1-3.6-2.8-7-4.9-10.2
		c6.6-8,16.5-12.6,26.9-12.6c1.9,0,3.8,0.2,5.7,0.4c1.7,3.5,2.9,7.2,3.5,11c-2.9-1.1-6-1.7-9.2-1.7c-3.4,0-6.9,0.7-10,2.1
		C147.7,219.9,147.5,220,147.3,220z M117.2,208.1L117.2,208.1c-2.9-1.4-4.1-4.9-2.6-7.8c0.7-1.4,1.9-2.4,3.3-2.9
		c3.1-1.1,6.5,0.5,7.6,3.5c0.2,0.6,0.4,1.3,0.3,2l0,0c0,4.3,2.7,8.2,6.7,9.7c-1.5,1.3-3,2.8-4.3,4.3
		C125.1,213.4,121.4,210.4,117.2,208.1L117.2,208.1z M142,204.9c-1.2,3.1-4.5,4.6-7.6,3.5c-3.1-1.1-4.7-4.5-3.6-7.6c0,0,0,0,0,0
		c1.2-3.1,4.5-4.6,7.6-3.5C141.5,198.4,143.1,201.8,142,204.9C142,204.9,142,204.9,142,204.9L142,204.9z M128.2,186.4
		c13,0,25.2,6.4,32.5,17.1c-0.9-0.1-1.9-0.1-2.8-0.1c-3.8,0-7.5,0.5-11.1,1.6c1.1-5.7-2.6-11.3-8.3-12.4c-3.8-0.8-7.8,0.7-10.3,3.7
		c-2.8-3.5-7.6-4.9-11.9-3.3c-4.9,1.7-7.8,6.8-6.7,11.9c-3.6-1-7.3-1.6-11.1-1.6c-0.9,0-1.9,0-2.8,0.1
		C103.1,192.8,115.2,186.4,128.2,186.4z M88.9,225.3c0-5.9,1.3-11.6,3.9-16.9c1.9-0.3,3.8-0.5,5.7-0.4c5.7,0,11.4,1.4,16.4,4.1h0.1
		c10.8,5.8,17.8,16.9,18.1,29.2v2c-0.2,7.6-3,15-7.9,20.8c-3.9-0.3-7.7-1.1-11.4-2.5c5.9-4.6,9.4-11.7,9.4-19.2
		c0-9.7-5.7-18.4-14.5-22.4c0,0-0.1,0-0.1-0.1c0,0,0,0,0,0c-5.3-2.3-11.5,0-13.8,5.3s0,11.5,5.3,13.8c1.9,0.9,4.1,1.1,6.1,0.7
		c2.5-0.4,4.8-1.8,6.4-3.8c-0.7-1.5-1.6-3-2.8-4.2c-0.8,1.8-2.4,3.1-4.4,3.4c-3.2,0.6-6.3-1.4-6.9-4.6c-0.6-3.2,1.4-6.3,4.6-6.9
		c0.1,0,0.2,0,0.3,0c1.3-0.2,2.6,0,3.7,0.6l0,0c10,4.6,14.3,16.5,9.7,26.5c-1.7,3.6-4.3,6.6-7.7,8.6
		C96.7,252.7,88.9,239.6,88.9,225.3z M136,253.9c1.6,3,3.8,5.6,6.5,7.7c-3.7,1.4-7.6,2.3-11.5,2.6
		C133.2,261.1,134.8,257.6,136,253.9z M147.3,259.4c-5.7-3.4-9.2-9.4-9.6-16v-2c0.4-7.6,5.1-14.3,12-17.3l0,0c1-0.4,2.1-0.5,3.1-0.3
		c3.2,0.5,5.4,3.5,4.9,6.7c-0.5,3.2-3.5,5.4-6.7,4.9c-0.1,0-0.2,0-0.3,0c-2-0.3-3.6-1.6-4.4-3.4c-1.2,1.2-2.1,2.6-2.8,4.2
		c1.6,2,3.9,3.3,6.4,3.8c5.7,1,11.1-2.7,12.2-8.4c0.6-3.2-0.4-6.6-2.6-9c2.7,0.3,5.4,1.1,7.8,2.4v0.6
		C167.4,239.5,159.7,252.5,147.3,259.4z"/>
	<g id="Group_7" transform="translate(84.74 11.174)">
		<path id="Path_27" class="st0" d="M133.4,183.1c8.3-0.2,16.3,3.1,22,9.2c5.8,6,9,14.1,8.8,22.5c0.2,8.4-3,16.5-8.8,22.5
			c-5.7,6-13.7,9.3-22,9.2h-25.3v-63.4H133.4z M133.4,234.3c5.1,0.2,10-1.8,13.5-5.5c3.5-3.6,5.2-8.4,5.2-14.2
			c0-5.8-1.7-10.6-5.2-14.2c-3.5-3.6-8.4-5.6-13.5-5.5h-12.7v39.4L133.4,234.3L133.4,234.3z M176.6,197.4c-1.9,0-3.8-0.7-5.1-2.1
			c-2.8-2.7-2.8-7.2-0.1-10c0,0,0.1-0.1,0.1-0.1c2.7-2.8,7.2-2.9,10.1-0.2c0.1,0.1,0.1,0.1,0.2,0.2c2.8,2.7,2.8,7.2,0.1,10
			c0,0-0.1,0.1-0.1,0.1C180.4,196.6,178.5,197.4,176.6,197.4L176.6,197.4z M170.7,246.3v-45.1h11.8v45.1L170.7,246.3z M221.3,201.1
			h13L217,246.3h-13.4l-17.3-45.1h13l11,31.6L221.3,201.1z M270.9,201.1h11.8v45.1h-11.8V241c-3.6,4.4-8.5,6.6-14.8,6.6
			c-6,0.1-11.6-2.4-15.6-6.9c-4.3-4.6-6.7-10.7-6.5-17c-0.1-6.3,2.2-12.4,6.5-17c4-4.4,9.6-6.9,15.6-6.9c6.4,0,11.4,2.2,14.8,6.6
			L270.9,201.1z M249.2,232.8c2.4,2.4,5.6,3.6,9,3.5c6.7,0.3,12.4-4.9,12.6-11.6c0-0.4,0-0.7,0-1.1c0.3-6.7-4.9-12.4-11.6-12.7
			c-0.4,0-0.7,0-1.1,0c-3.4-0.1-6.6,1.2-9,3.5c-2.4,2.4-3.7,5.7-3.6,9.2C245.5,227.1,246.8,230.4,249.2,232.8z M316.9,199.9
			c4.6-0.1,9.1,1.7,12.4,5c3.2,3.3,4.9,7.9,4.9,13.7v27.7h-11.8V220c0.2-2.5-0.7-5-2.5-6.9c-1.8-1.6-4.1-2.5-6.5-2.4
			c-2.7-0.1-5.3,0.9-7.3,2.8c-1.8,1.8-2.7,4.7-2.7,8.4v24.4h-11.8v-45.1h11.8v5C306.2,202,310.7,199.9,316.9,199.9L316.9,199.9z
			 M365.1,200.1c6.2-0.2,12.2,2.4,16.3,7.1c4.1,4.6,6.4,10.6,6.3,16.7c0,0.4,0,0.7-0.1,1.1c0,0.5-0.1,0.8-0.1,1.1h-41.3
			c0.4,4.7,2.6,9.1,6.2,12.3c6.5,5.2,15.3,6.1,22.7,2.4c2.6-1.4,4.7-3.4,6.2-6l4,2.4c-1.9,3.2-4.7,5.8-8.1,7.5
			c-3.7,1.9-7.7,2.9-11.9,2.8c-6.4,0.2-12.6-2.2-17.2-6.6c-4.5-4.5-7-10.6-6.8-17c-0.4-12.7,9.6-23.2,22.2-23.6
			C364.1,200.1,364.6,200.1,365.1,200.1L365.1,200.1z M365.1,204.4c-4.8-0.1-9.4,1.6-13,4.8c-3.5,3.2-5.6,7.6-5.9,12.4h36.7
			c-0.5-5.4-2.4-9.6-5.8-12.6C373.8,206,369.5,204.3,365.1,204.4L365.1,204.4z M428.1,201.1h4.8l-19.2,45.1h-5.6l-19.2-45.1h4.9
			l17.1,40.4L428.1,201.1z"/>
	</g>
</g>
</svg>
