<?xml version="1.0" encoding="utf-8"?>
<!-- Generator: Adobe Illustrator 25.0.1, SVG Export Plug-In . SVG Version: 6.00 Build 0)  -->
<svg version="1.0" id="Layer_1" xmlns="http://www.w3.org/2000/svg" xmlns:xlink="http://www.w3.org/1999/xlink" x="0px" y="0px"
	 viewBox="0 0 977 675" style="enable-background:new 0 0 977 675;" xml:space="preserve">
<style type="text/css">
	.st0{fill-rule:evenodd;clip-rule:evenodd;fill:#FFFFFF;}
	.st1{fill:#1D1D1B;}
	.st2{clip-path:url(#SVGID_2_);fill:#D0D0D0;}
	.st3{fill-rule:evenodd;clip-rule:evenodd;fill:#231F20;}
</style>
<g>
	<g>
		<path class="st0" d="M202.4,204.1l-9.1,9.1h43.8l-9.1-9.1H202.4z M189.5,216.9l-9.1,9.1h69.5l-9.1-9.1H189.5z M176.7,229.8
			l-9.1,9.1h95.2l-9.1-9.1H176.7z M163.8,242.6l-9.1,9.1h120.9l-9.1-9.1H163.8z M151,255.4l-9.1,9.1h146.5l-9.1-9.1H151z
			 M138.1,268.3l-9.1,9.1h172.2l-9.1-9.1H138.1z M125.3,281.1l-9.1,9.1h197.9l-9.1-9.1H125.3z M112.5,294l-9.1,9.1H327l-9.1-9.1
			H112.5z M99.6,306.8l-9.1,9.1h249.3l-9.1-9.1H99.6z M86.8,319.6l-9.1,9.1h275l-9.1-9.1H86.8z M361,336.9l-4.6-4.4H73.9l-4.5,4.5
			l4.5,4.5h282.5l-3.8,3.8H77.7l9.1,9.1h256.8l-3.8,3.8H90.5l9.1,9.1h231.1l-3.8,3.8H103.4l9.1,9.1h205.4l-3.8,3.8H116.2l9.1,9.1
			H305l-3.8,3.8H129.1l9.1,9.1h154l-3.8,3.8H141.9l9.1,9.1h128.4l-3.8,3.8H154.7l9.1,9.1h102.7l-3.8,3.8h-95.1l9.1,9.1h77l-3.8,3.8
			h-69.5l-111.1-111l136.8-136.8h18.2l-9.1-9.1L361,336.9z M232.5,465.4L228,470l-3.8,3.8h-18.1l-3.8-3.8H228L232.5,465.4z
			 M240.8,457.1l-3.8,3.8h-43.8l-3.8-3.8H240.8z"/>
		<polygon class="st1" points="224.2,200.3 206.1,200.3 215.2,191.2 		"/>
		<polygon class="st1" points="202.4,204.1 228,204.1 237.1,213.1 193.3,213.1 		"/>
		<polygon class="st1" points="189.5,216.9 240.9,216.9 249.9,226 180.4,226 		"/>
		<polygon class="st1" points="176.7,229.8 253.7,229.8 262.8,238.8 167.6,238.8 		"/>
		<polygon class="st1" points="163.8,242.6 266.5,242.6 275.6,251.7 154.7,251.7 		"/>
		<polygon class="st1" points="151,255.4 279.4,255.4 288.4,264.5 141.9,264.5 		"/>
		<polygon class="st1" points="138.1,268.3 292.2,268.3 301.3,277.3 129.1,277.3 		"/>
		<polygon class="st1" points="125.3,281.1 305.1,281.1 314.1,290.2 116.2,290.2 		"/>
		<polygon class="st1" points="112.5,294 317.9,294 327,303 103.4,303 		"/>
		<polygon class="st1" points="99.6,306.8 330.7,306.8 339.8,315.9 90.5,315.9 		"/>
		<polygon class="st1" points="86.8,319.6 343.6,319.6 352.7,328.7 77.7,328.7 		"/>
		<polygon class="st1" points="356.4,332.5 361,337 356.4,341.5 73.9,341.5 69.4,337 73.9,332.5 		"/>
		<path class="st1" d="M343.6,354.4l9.1-9.1L343.6,354.4L343.6,354.4z M77.7,345.3h274.9l-9,9.1H86.8L77.7,345.3z"/>
		<path class="st1" d="M352.6,345.3l-9,9.1L352.6,345.3z"/>
		<path class="st1" d="M330.7,367.2l9.1-9.1L330.7,367.2L330.7,367.2z M90.5,358.2h249.2l-9,9.1H99.6L90.5,358.2z"/>
		<path class="st1" d="M339.8,358.2l-9,9.1L339.8,358.2z"/>
		<path class="st1" d="M317.9,380.1l9.1-9.1L317.9,380.1L317.9,380.1z M103.4,371h223.5l-9,9.1H112.5L103.4,371z"/>
		<path class="st1" d="M326.9,371l-9,9.1L326.9,371z"/>
		<path class="st1" d="M305.1,392.9l9.1-9.1L305.1,392.9L305.1,392.9z M116.2,383.8h197.9l-9,9.1H125.3L116.2,383.8z"/>
		<path class="st1" d="M314.1,383.8l-9,9.1L314.1,383.8z"/>
		<path class="st1" d="M292.2,405.8l9.1-9.1L292.2,405.8L292.2,405.8z M129.1,396.7h172.2l-9,9.1H138.1L129.1,396.7z"/>
		<path class="st1" d="M301.3,396.7l-9,9.1L301.3,396.7z"/>
		<path class="st1" d="M279.4,418.6l9.1-9.1L279.4,418.6L279.4,418.6z M141.9,409.5h146.5l-9,9.1H151L141.9,409.5z"/>
		<path class="st1" d="M288.4,409.5l-9,9.1L288.4,409.5z"/>
		<path class="st1" d="M266.5,431.4l9.1-9.1L266.5,431.4L266.5,431.4z M154.7,422.4h120.8l-9,9.1H163.8L154.7,422.4z"/>
		<path class="st1" d="M275.6,422.4l-9,9.1L275.6,422.4z"/>
		<path class="st1" d="M253.7,444.3l9.1-9.1L253.7,444.3L253.7,444.3z M167.6,435.2h95.1l-9,9.1h-77L167.6,435.2z"/>
		<path class="st1" d="M262.7,435.2l-9,9.1L262.7,435.2z"/>
		<path class="st1" d="M240.9,457.1l9.1-9.1L240.9,457.1L240.9,457.1z M180.4,448h69.5l-9,9.1h-51.4L180.4,448z"/>
		<path class="st1" d="M249.9,448l-9,9.1L249.9,448z"/>
		<path class="st1" d="M228,470l9.1-9.1L228,470L228,470z M193.3,460.9H237l-9,9.1h-25.7L193.3,460.9z"/>
		<path class="st1" d="M237,460.9l-9,9.1L237,460.9z"/>
		<path class="st1" d="M224.3,473.7l-9.1,9.1L224.3,473.7z M206.1,473.7h18.1l-9,9.1L206.1,473.7z"/>
		<g>
			<defs>
				<path id="SVGID_1_" d="M263.4,483.2L117.5,337.5l145.9-146.7l146.5,145.8L263.4,483.2z M209.5,234.3l-31.3,31.3v-31.3H209.5z"/>
			</defs>
			<use xlink:href="#SVGID_1_"  style="overflow:visible;fill:#E30613;"/>
			<clipPath id="SVGID_2_">
				<use xlink:href="#SVGID_1_"  style="overflow:visible;"/>
			</clipPath>
			<path class="st2" d="M264.2,281l-0.8-90.2l12.3,12.3l-1,149.8c0,22.2,18,40.1,40.1,40.1c22.1,0,40.1-17.9,40.1-40.1l0.1-71
				l54.9,54.7l-97.5,97.5L211.8,333.4L264.2,281z"/>
			<polygon class="st2" points="209.5,429.4 178.2,398.1 178.2,276.5 209.5,245 			"/>
		</g>
	</g>
	<g>
		<g>
			<path class="st3" d="M435,464.2v-34.4h10.8v31.1c0,10.1,3.7,15.2,11.2,15.2c7.5,0,11.2-5.1,11.2-15.2v-31.1H479v34.4
				c0,13.6-7.3,20.4-22,20.4C442.3,484.6,435,477.8,435,464.2z M460.4,415.5h9v9h-9V415.5z M453.5,424.5h-8.9v-9h8.9V424.5z"/>
			<polygon class="st3" points="490.5,483.7 490.5,429.8 503.8,429.8 524.4,470.1 524.5,470.1 524.5,429.8 534.9,429.8 534.9,483.7 
				521.7,483.7 501.1,443.4 500.9,443.4 500.9,483.7 			"/>
			<path class="st3" d="M545.9,483.7v-53.9h10.8v53.9H545.9z M555.8,424.6h-9v-8.9h9V424.6z"/>
			<polygon class="st3" points="581.4,483.7 562.8,429.8 574.4,429.8 588.2,472.1 588.4,472.1 602,429.8 612.8,429.8 594.6,483.7 
							"/>
			<polygon class="st3" points="619.8,483.7 619.8,429.8 651.6,429.8 651.6,438.3 630.6,438.3 630.6,451.6 649.8,451.6 649.8,460.1 
				630.6,460.1 630.6,475.2 651.8,475.2 651.8,483.7 			"/>
			<path class="st3" d="M672.6,438.3v14.5h3.5c7.6,0,11.4-2.5,11.4-7.5c0-2.9-1.2-4.9-3.7-6c-1.6-0.7-4.2-1.1-7.7-1.1H672.6z
				 M661.8,483.7v-53.9h11.6c8.3,0,14,0.6,17.1,1.7c5.6,2,8.3,6.3,8.3,12.9c0,3.3-1,6-3,8.3c-2,2.3-4.7,3.7-8.1,4.2v0.1
				c2.4,0.2,4.3,2.1,5.7,5.6l8.7,21.1h-12l-6.5-16.8c-0.8-2.1-1.7-3.5-2.6-4.2c-1.1-0.9-2.7-1.3-4.9-1.3h-3.5v22.4H661.8z"/>
			<path class="st3" d="M739.9,430.8l-1,8.9c-3.6-1.5-7.2-2.3-11-2.3c-2.3,0-4.1,0.5-5.6,1.5c-1.9,1.3-2.8,3.3-2.8,6
				c0,2.4,2,4.5,6.1,6.2c6.5,2.7,10.3,4.5,11.4,5.2c4.1,2.8,6.1,6.8,6.1,12c0,5.6-2,9.8-6,12.6c-3.6,2.5-8.3,3.7-14.2,3.7
				c-3.5,0-8.2-0.7-13.8-2.1l1-9.7c4.1,2.2,8.1,3.3,12.2,3.3c2.4,0,4.5-0.5,6.3-1.6c2.2-1.3,3.3-3.1,3.3-5.3c0-2.7-2-5-6.1-6.8
				c-7-3.1-10.8-4.9-11.4-5.3c-4.1-2.8-6.1-6.7-6.1-11.8c0-5.6,1.9-9.9,5.9-12.7c3.3-2.5,7.7-3.7,13-3.7
				C731.7,428.9,736,429.5,739.9,430.8z"/>
			<path class="st3" d="M751.9,483.7v-53.9h10.8v53.9H751.9z M761.8,424.6h-9v-8.9h9V424.6z"/>
			<polygon class="st3" points="784.1,483.7 784.1,438.3 768.7,438.3 768.7,429.8 810.4,429.8 810.4,438.3 794.9,438.3 794.9,483.7 
							"/>
			<polygon class="st3" points="817.3,483.7 817.3,429.8 849.1,429.8 849.1,438.3 828.1,438.3 828.1,451.6 847.3,451.6 847.3,460.1 
				828.1,460.1 828.1,475.2 849.2,475.2 849.2,483.7 			"/>
			<path class="st3" d="M890.1,430.8l-1,8.9c-3.6-1.5-7.2-2.3-11-2.3c-2.3,0-4.1,0.5-5.6,1.5c-1.9,1.3-2.9,3.3-2.9,6
				c0,2.4,2,4.5,6.1,6.2c6.5,2.7,10.4,4.5,11.4,5.2c4.1,2.8,6.1,6.8,6.1,12c0,5.6-2,9.8-6,12.6c-3.5,2.5-8.3,3.7-14.2,3.7
				c-3.5,0-8.1-0.7-13.8-2.1l1-9.7c4.1,2.2,8.1,3.3,12.2,3.3c2.4,0,4.5-0.5,6.3-1.6c2.2-1.3,3.2-3.1,3.2-5.3c0-2.7-2-5-6.1-6.8
				c-7.1-3.1-10.9-4.9-11.4-5.3c-4.1-2.8-6.1-6.7-6.1-11.8c0-5.6,2-9.9,5.9-12.7c3.3-2.5,7.6-3.7,13-3.7
				C882,428.9,886.3,429.5,890.1,430.8z"/>
			<path class="st3" d="M902.2,483.7v-53.9H913v53.9H902.2z M912.1,424.6h-9v-8.9h9V424.6z"/>
		</g>
		<g>
			<polygon class="st3" points="435.3,404.2 435.3,350.3 446.1,350.3 446.1,373.5 465.6,350.3 478.9,350.3 456.7,375.7 479.8,404.2 
				465.7,404.2 446.3,379.2 446.1,379.2 446.1,404.2 			"/>
			<path class="st3" d="M486.5,384.8v-34.5h10.8v31.1c0,10.1,3.7,15.2,11.2,15.2c7.5,0,11.2-5.1,11.2-15.2v-31.1h10.8v34.5
				c0,13.6-7.3,20.4-22,20.4C493.8,405.1,486.5,398.4,486.5,384.8z M512,336h8.9v8.9H512V336z M505,345h-9V336h9V345z"/>
			<polygon class="st3" points="542.6,404.2 542.6,350.3 553.4,350.3 553.4,395.7 574.3,395.7 574.3,404.2 			"/>
			<polygon class="st3" points="591,404.2 591,358.8 575.6,358.8 575.6,350.3 617.3,350.3 617.3,358.8 601.8,358.8 601.8,404.2 			
				"/>
			<path class="st3" d="M623.7,384.8v-34.5h10.8v31.1c0,10.1,3.7,15.2,11.2,15.2c7.5,0,11.2-5.1,11.2-15.2v-31.1h10.8v34.5
				c0,13.6-7.3,20.4-22,20.4C631.1,405.1,623.7,398.4,623.7,384.8z M649.2,336h9v8.9h-9V336z M642.3,345h-8.9V336h8.9V345z"/>
			<path class="st3" d="M689.8,358.8v14.5h3.6c7.6,0,11.4-2.5,11.4-7.5c0-2.9-1.2-4.9-3.7-5.9c-1.6-0.7-4.2-1.1-7.7-1.1H689.8z
				 M679,404.2v-53.9h11.6c8.3,0,14,0.6,17.1,1.7c5.6,2,8.3,6.3,8.3,12.9c0,3.2-1,6-3,8.3c-2,2.3-4.7,3.7-8.1,4.2v0.1
				c2.4,0.2,4.3,2.1,5.7,5.6l8.7,21.1h-12.1l-6.5-16.8c-0.8-2.1-1.7-3.6-2.6-4.3c-1.1-0.9-2.7-1.3-4.9-1.3h-3.5v22.4H679z"/>
		</g>
		<g>
			<path class="st3" d="M434.4,324.7v-53.9h10.8v53.9H434.4z M444.3,265.7h-9v-9h9V265.7z"/>
			<path class="st3" d="M486.8,271.8l-1,8.9c-3.5-1.5-7.2-2.3-11-2.3c-2.3,0-4.1,0.5-5.6,1.6c-1.9,1.3-2.9,3.3-2.9,6
				c0,2.4,2,4.5,6.1,6.2c6.5,2.7,10.3,4.5,11.4,5.2c4.1,2.8,6.1,6.8,6.1,12.1c0,5.6-2,9.8-6,12.6c-3.6,2.5-8.3,3.7-14.2,3.7
				c-3.5,0-8.2-0.7-13.8-2.1l1-9.7c4.1,2.2,8.1,3.3,12.2,3.3c2.4,0,4.5-0.5,6.3-1.6c2.2-1.3,3.2-3.1,3.2-5.3c0-2.7-2-5-6.1-6.8
				c-7.1-3.1-10.9-4.9-11.4-5.2c-4.1-2.8-6.1-6.7-6.1-11.8c0-5.6,1.9-9.9,5.9-12.7c3.4-2.5,7.7-3.7,13-3.7
				C478.6,269.9,482.9,270.5,486.8,271.8z"/>
			<polygon class="st3" points="509.6,324.7 509.6,279.3 494.1,279.3 494.1,270.8 535.8,270.8 535.8,279.3 520.4,279.3 520.4,324.7 
							"/>
			<path class="st3" d="M571.9,303.9l-7.8-22.2h-0.2l-7.8,22.2H571.9z M537.1,324.7l21-53.9h12.2l21.2,53.9h-12l-4.6-12.4H553
				l-4.7,12.4H537.1z"/>
			<polygon class="st3" points="597.9,324.7 597.9,270.8 611.2,270.8 631.7,311.1 631.9,311.1 631.9,270.8 642.2,270.8 642.2,324.7 
				629,324.7 608.4,284.4 608.2,284.4 608.2,324.7 			"/>
			<path class="st3" d="M665,300.6v15.6h5.1c7.4,0,11.1-2.5,11.1-7.5c0-5.4-3.7-8.1-11.1-8.1H665z M665,279.3v13.3h4.4
				c6.8,0,10.2-2.2,10.2-6.6c0-2.8-1.1-4.7-3.3-5.7c-1.5-0.7-3.9-1-7.1-1H665z M654.2,324.7v-53.9H673c4.6,0,8.4,0.8,11.3,2.5
				c4.1,2.3,6.1,6.1,6.1,11.3c0,3.2-1,5.8-2.9,8c-2,2.2-4.6,3.5-7.8,4.1v0.2c3.6,0.4,6.6,1.7,8.9,3.9c2.3,2.3,3.5,5,3.5,8.3
				c0,6-2.3,10.3-6.9,12.9c-3.2,1.8-7.2,2.7-12,2.7H654.2z"/>
			<path class="st3" d="M701,305.3v-34.5h10.8V302c0,10.1,3.7,15.2,11.2,15.2c7.5,0,11.2-5.1,11.2-15.2v-31.1H745v34.5
				c0,13.6-7.3,20.4-22,20.4C708.3,325.6,701,318.9,701,305.3z"/>
			<polygon class="st3" points="757.1,324.7 757.1,270.8 767.9,270.8 767.9,316.2 788.8,316.2 788.8,324.7 			"/>
		</g>
		<g>
			<polygon class="st3" points="445.2,245.2 445.2,199.8 429.7,199.8 429.7,191.3 471.4,191.3 471.4,199.8 456,199.8 456,245.2 			
				"/>
			<rect x="473.3" y="234.4" class="st3" width="10.8" height="10.8"/>
			<path class="st3" d="M538.5,235.4l0.5,9c-4.8,1.1-8.9,1.7-12.3,1.7c-9.1,0-16.2-2.2-21.3-6.6c-5.5-4.7-8.3-11.5-8.3-20.3
				c0-9.2,2.6-16.2,7.9-21.2c5.3-5,12.5-7.6,21.7-7.6c4.3,0,8.4,0.7,12.2,2.2l-0.8,9.1c-3.3-1.9-7.2-2.9-11.7-2.9
				c-5.4,0-9.8,1.9-13.1,5.6c-3.3,3.6-4.9,8.3-4.9,14c0,5.6,1.7,10.2,4.9,13.8c3.3,3.6,7.8,5.4,13.4,5.4
				C531.7,237.7,535.6,236.9,538.5,235.4z"/>
			<rect x="546" y="234.4" class="st3" width="10.8" height="10.8"/>
		</g>
	</g>
</g>
</svg>
