<?xml version="1.0" encoding="utf-8"?>
<!-- Generator: Adobe Illustrator 28.4.1, SVG Export Plug-In . SVG Version: 6.00 Build 0)  -->
<svg version="1.0" id="katman_1" xmlns="http://www.w3.org/2000/svg" xmlns:xlink="http://www.w3.org/1999/xlink" x="0px" y="0px"
	 viewBox="0 0 841.89 595.28" style="enable-background:new 0 0 841.89 595.28;" xml:space="preserve">
<style type="text/css">
	.st0{clip-path:url(#SVGID_00000003107017648477100550000013248831749121731477_);}
	.st1{fill-rule:evenodd;clip-rule:evenodd;fill:#D2003C;}
	.st2{fill:#D2003C;}
	.st3{fill:#FFCC00;}
</style>
<g>
	<defs>
		<rect id="SVGID_1_" x="41.46" y="236.54" width="758.45" height="121.79"/>
	</defs>
	<clipPath id="SVGID_00000109717601681309387960000011042976513109528483_">
		<use xlink:href="#SVGID_1_"  style="overflow:visible;"/>
	</clipPath>
	<g style="clip-path:url(#SVGID_00000109717601681309387960000011042976513109528483_);">
		<path class="st1" d="M704.24,321.96v-32.14h-17.7v35.56c0,12.03,12.45,21.79,27.82,21.79c15.37,0,27.82-9.76,27.82-21.79v-35.56
			h-17.57v32.14c0,5.35-4.57,9.69-10.18,9.69c-5.62,0-10.18-4.34-10.18-9.69L704.24,321.96L704.24,321.96z"/>
		<path class="st2" d="M799.92,251.62h-17.83v93.55h17.83V251.62z M769.79,251.62h-17.83v93.55h17.83V251.62z"/>
		<path class="st1" d="M425.88,271.24h-9.69v73.92h-18.96v-89.26h32.6c14.84,0,26.86,11.8,26.86,26.36
			c0,12.4-8.72,22.79-20.46,25.61l26.2,37.29h-22.36l-18.95-29.22v-21.35h4.4c7,0,12.68-5.23,12.68-11.68
			c0-6.45-5.31-11.68-12.32-11.68L425.88,271.24L425.88,271.24z"/>
		<path class="st2" d="M518.44,321.12c0.12-1.22,0.18-2.47,0.16-3.75c0.27-19.29-12.5-29.88-28.77-29.88s-29.46,13.35-29.46,29.82
			c0,16.47,13.19,29.85,29.46,29.85c12.42,0,22.11-5.62,27.1-14.42l-14.47-6.67c-1.85,3.98-6.16,6.79-11.17,6.78
			c-6.94-0.01-12.06-5.1-12.12-11.11v-0.61h39.26L518.44,321.12L518.44,321.12z M479.11,310.87c0.11-6.01,5.07-10.8,11.08-10.69
			c5.86,0.1,10.59,4.83,10.69,10.69H479.1H479.11z M589.38,345.17l-0.02-93.55h-17.76v44.26c-4.73-4.68-11.03-7.51-17.91-7.51
			c-14.72,0-26.65,13.05-26.65,29.15s11.93,29.16,26.65,29.16c6.95,0,13.25-2.96,17.99-7.74v6.22L589.38,345.17L589.38,345.17z
			 M558.74,331.5c-7.22,0-13.09-6.42-13.09-14.32c0-7.9,5.85-14.31,13.09-14.31s13.09,6.41,13.09,14.31
			C571.83,325.08,565.98,331.49,558.74,331.5L558.74,331.5z M664.72,296.58c4.88-4.55,7.87-10.65,7.87-17.35
			c0-6.06-2.34-11.64-6.42-16.02c-4.25-4.68-11.77-7.3-21.95-7.3h-30.46v89.26h39.35c15.08-0.25,27.22-11.63,27.22-25.6
			c0-10.16-3.58-17.41-15.59-22.99H664.72L664.72,296.58z M649.8,329.67h-17.05v-58.43h11.89c5.22,0,9.46,4.78,9.46,10.01
			c0,5.22-4.23,9.46-9.45,9.46c0,0-0.01,0-0.01,0h-6.19v16.05h11.35c6.33,0,11.12,5.1,11.12,11.43
			C660.7,324.73,656.69,329.25,649.8,329.67z"/>
		<path class="st3" d="M201.38,358.33c33.63,0,60.9-27.26,60.9-60.9s-27.27-60.9-60.9-60.9c-33.63,0-60.9,27.26-60.9,60.9
			S167.75,358.33,201.38,358.33z"/>
		<path class="st3" d="M197.03,325.69c-3.44-1.94-4.12-5.77-5.92-8.11c-0.74-0.93-1.96-1.96-2.28-2.8
			c-3.1-7.94-4.15-12.4-5.24-20.14c-0.56-3.97-3.19-7.31-7.03-12.01c-1.67-2.05-4.06-5.43-6.12-7.43
			c-6.93-5.84-10.67-9.08-15.29-12.2c-0.9-0.61-1.86-1.14-2.86-1.58h-0.02c-0.02,0-0.03-0.01-0.05-0.02
			c-1.54-0.68-2.94-0.87-4.83-0.97c-0.26-0.01-0.5-0.02-0.76-0.02c-3.44,0-6.72,1.25-10.02,3.8c-2.4,1.57-5.15,2.45-7.81,3.29
			c-3.36,1.07-6.85,2.18-9.69,4.66c-0.51,0.37-0.97,0.88-1.43,1.36c-0.62,0.67-1.07,1.43-2.01,1.73c-0.82,0.19-1.41,0.19-2.07,0.24
			c-1.05,0.08-2.09,0.23-3.13,0.45c-3.5,0.83-6.18,2.98-9,5.27c-0.31,0.26-0.64,0.51-0.96,0.77c-1.83,1.45-4.97,2.77-6.75,2.83
			c-4.97,0.15-8.49,1.32-12.16,4.05c-3.78,2.89-7.83,5.88-12.31,7.71c-1.03,0.4-2.12,0.61-3.23,0.62c-1.17,0-2.85-0.26-4.18-1.5
			c-1.7-1.57-2.26-4.59-1.24-6.61c1.52-3,4.62-5.44,7.15-7.25c3.26-2.47,6.42-5.71,5.02-11.08c-1.51-4.92-7.51-6.5-11.48-7.55
			c-1.12-0.29-2.1-0.55-2.67-0.82c-1.25-0.59-2.13-1.18-2.98-1.76c-0.83-0.6-1.72-1.11-2.66-1.52c-0.16-0.06-0.33-0.09-0.49-0.09
			c-0.56,0-1,0.27-1.34,0.81c-1.43,2.49-1.85,5.03-1.25,7.51c0.92,4.07,4.94,7.78,9.13,8.44c0.42,0.1,0.9,0.14,1.37,0.19
			c0.43,0.03,0.88,0.08,1.29,0.16c-2.78,2.15-5.31,4.59-7.56,7.29c-3.07,3.61-3.91,9.56-1.96,13.85c1.69,4.28,5.97,7.77,10.42,8.47
			c0.88,0.16,1.83,0.24,2.9,0.24c1.55,0,3.1-0.16,4.59-0.32c0.36-0.03,0.74-0.08,1.09-0.12c0.15,3.39,0.27,5.5,2.16,10.31
			c0.12,0.3,0.03,0.82-0.36,1.17c-0.33,0.29-3.07,1.43-3.85,1.59c-0.29,0.06-0.68,0.07-1,0.07h-1.12c-0.37,0-0.86,0-1.32,0.07
			c-1.72,0.25-2.57,1.7-3.18,3.11c-0.37,0.85-0.64,1.6-0.88,2.25c-0.59,1.6-0.95,2.6-2.07,3.21c0,0-2.34-2.08-2.74-2.37
			c-0.54-0.32-1.16-0.49-1.79-0.5c-1.48,0-2.78,0.94-4.05,1.84c-0.41,0.29-0.8,0.58-1.18,0.81c-1.06,0.67-1.86,1.8-2.09,2.98
			c-1.72,0.87-3.41,1.91-4.19,3.63c-0.37,0.74-0.44,1.64-0.51,2.5c-0.03,0.41-0.07,0.82-0.14,1.23c-0.13,0.27-0.28,0.53-0.46,0.8
			c-0.48,0.66-0.9,1.63-0.9,2.23c0,1.26,0.47,1.74,1.17,2.34c0.86,0.61,3.18,1.32,4.84,1.73c0.13,0.03,0.25,0.05,0.37,0.05
			c0.51,0,0.91-0.26,1.3-0.51c0.19-0.12,0.37-0.24,0.59-0.34c1.37,0.33,3.39,0.75,5.36,0.75c1.02,0,1.95-0.12,2.77-0.34
			c2-0.54,3.71-3.25,4.63-4.72c0.22-0.35,0.45-0.7,0.5-0.75c0.06-0.03,0.12-0.04,0.19-0.03c0.3,0,0.8,0.14,1.32,0.29
			c0.61,0.18,1.31,0.37,1.95,0.43c2.26,0.2,4.41-1.2,5.81-2.25c0.57-0.42,1.19-1.02,1.8-1.59c0.68-0.65,1.37-1.31,1.97-1.71
			c0.79-0.32,1.64-0.48,2.49-0.47c0.3,0,0.64,0.01,1.01,0.05c1.62,0.34,3.76,0.74,5.83,0.74c2.07,0,3.64-0.35,5.01-1.07l1.27-0.66
			c1.37-0.7,2.77-1.41,4.11-2.14c2.57-1.39,3.61-3.69,4.45-5.52l0.21-0.47c0.49-1.07,1.24-3,1.44-3.48c0.4,0.06,0.81,0.08,1.24,0.08
			c1.39,0,2.76-0.29,4.08-0.58c1.3-0.28,2.66-0.56,4.01-0.56c0.72,0,1.37,0.07,2.03,0.23c2.44,0.48,5.64,1.03,8.91,1.03
			c1.83,0,3.52-0.18,5.03-0.53c0.38,0.36,0.8,0.68,1.21,0.98c0.41,0.3,0.78,0.59,1.13,0.93c-0.38,0.07-0.75,0.12-1.13,0.15
			c-1.14,0.13-2.32,0.26-3.18,1.18c-0.94-0.38-1.94-0.57-2.95-0.54c-1.15,0.03-2.29,0.14-3.42,0.33c-0.46,0.07-0.9,0.13-1.34,0.19
			c-1.74,0.21-2.94,0.88-3.56,2.01c-0.38,0.74-0.66,1.51-0.05,2.77l3.43,5.69c0.42,0.74,1.12,1.34,1.6,1.37
			c0.26,0.02,0.6,0,0.97-0.03c0.29-0.02,0.6-0.05,0.89-0.05c0.55,0,0.88,0.09,1,0.28c0.17,0.27,0.34,0.53,0.5,0.8
			c0.7,1.1,1.43,2.25,2.53,3.22c1.66,1.45,4.34,2.06,6.86,1.48c0.95-0.35,1.89-0.69,2.84-1.03c2.96-1.07,6.03-2.17,9-3.43l4.93-0.7
			c1.63-0.32,2.87-2.52,3.28-3.43l0.1-0.21c0,0,1.49-2.95,1.94-4.74c0.02,0.3,0.02,0.71,0.02,1.28c0,2.78,0.49,6.31,5.24,6.12
			c2.65-0.11,6.16-1.67,8.66-2.13c2.62-0.45,6.04,0.67,8.58-0.58c2.47-1,3.89-2.93,4.28-2.53c3.31,3.23,7.8,4.96,12.43,4.79
			c3.55-0.12,3.93-2.96,1.45-4.25c4.84,0.56,6.27-2.06,5.37-2.9c-0.58-0.54-0.91-0.81-2.75-1.84V325.69L197.03,325.69z
			 M153.53,323.04c-1.83-2.47-3.02-4.22-3.19-6.48c2.33-0.27,4.46-1.04,7.92-1.23c-0.9,2.68-4,3.95-4.74,7.7
			C153.52,323.03,153.53,323.04,153.53,323.04z M359.39,338.76c-0.17-0.33-0.33-0.64-0.42-0.88c-0.15-0.52-0.18-1.08-0.21-1.66
			c-0.03-0.64-0.07-1.31-0.27-1.94c-0.55-1.83-2.5-2.96-4.08-3.61c-0.06-0.69-0.19-1.44-0.83-1.89c-2.73-1.95-4.16-3.04-4.93-3.63
			c-0.46-0.35-0.62-0.48-0.71-0.51c-0.32-0.15-0.68-0.23-1.03-0.24c-1.2,0-2.17,0.96-3.1,1.87l-0.64,0.63
			c-0.02,0.02-0.03,0.02-0.07,0.02c-0.29,0-0.9-0.9-1.06-1.31c-0.27-0.73-0.48-1.42-0.69-2.08c-0.37-1.21-0.72-2.34-1.35-3.62
			c-1.03-2.05-3.23-2.08-5.17-2.11h-0.55c-0.89,0-2.06-0.13-2.27-0.72c-0.21-0.58,0.22-1.68,0.49-2.49c0.19-0.56,0.36-1.09,0.42-1.6
			c0.49-2.2,0.53-5.13,0.09-7.5c0.49,0.01,0.98,0.07,1.5,0.13c0.44,0.06,0.9,0.1,1.38,0.13h0.42c2.93,0,5.4-0.58,7.55-1.74
			c4.34-2.61,7-6.82,7.1-11.31c-0.15-2.34-0.7-4.27-1.89-6.66c-1.6-3.16-4.27-6.27-8.17-9.5c2.26-0.47,4.13-1.01,5.86-2.11
			c3.54-2.25,5.1-6.32,4.41-11.48c-0.19-1.22-0.66-3.33-1.68-3.87c-0.15-0.08-0.31-0.12-0.48-0.12c-0.75,0-1.48,0.81-2.12,1.52
			c-0.24,0.27-0.47,0.51-0.67,0.69c-1.2,1.08-2.62,1.36-4.11,1.65c-0.78,0.15-1.59,0.31-2.35,0.6c-3.56,1.16-9.61,3.8-10.15,8.61
			c-0.52,4.75,2.86,7.95,6.14,11.04c1.09,1.03,2.13,2,3.02,3.03c1.89,2.19,3.51,4.36,3.09,6.82c-0.15,0.84-1.34,2.13-2.48,2.65
			c-0.87,0.3-1.77,0.45-2.68,0.45c-3.03,0-5.95-1.66-8.51-3.14l-0.37-0.21c-5.94-4.12-12.09-8.39-19.71-9.2
			c-2.9-0.56-5.42-2.31-7.87-4.03c-0.56-0.4-1.13-0.78-1.7-1.17c-2.56-1.5-5.39-2.51-8.32-2.97c-1.52-0.2-2.73-1.19-4-2.23
			c-0.66-0.57-1.36-1.09-2.1-1.56c-2.99-1.93-6.32-3.27-9.81-3.93c-0.35-0.1-0.7-0.19-1.05-0.26c-0.91-0.19-1.86-0.4-2.52-1.09
			c-1-1.18-2.39-2.71-4.06-3.9c-2.24-1.5-5.71-3.09-8.74-3.09c-0.66,0-1.27,0.07-1.82,0.22c-1.68,0.42-2.99,1.4-4.38,2.45
			l-0.52,0.39c-2.77,2.17-6.46,5.14-9.36,7.21c-8.66,6.17-11.92,8.87-16.21,13.57c-11.05,12.06-7.69,30.12-17.24,40.59
			c-2.47,2.71-3.16,3.07-4.06,3.82c-1.12,0.93-1.37,5.91,5.86,3.47c-3.3,2.82-1.22,4.13,0.95,4.18c3.82,0.08,8.03-1.24,12.16-5.64
			c2.87,4.13,7.87,2.22,10.46,2.44c2.44,0.2,6.92,2.84,9.53,2.69c3.98-0.25,5.44-4.23,5.04-6.44c0.64,0,0.82-0.15,0.99-0.47
			c0.47,2.3,0.78,3.88,1.23,5.04c0.03,0.08,0.09,0.19,0.15,0.3v0.03c0.28,0.5,0.87,1.61,1.45,2.15c0.68,0.82,1.69,0.93,2.5,0.93
			c0.33,0,0.66-0.02,0.97-0.03c0.36-0.03,0.71-0.04,1.05-0.04c0.3,0.22,0.59,0.47,0.87,0.72c0.64,0.56,1.3,1.15,2.11,1.37
			c3.77,0.97,6.89,1.84,9.93,2.9c0.62,0.2,1.57,0.46,2.51,0.46c0.3,0,0.61-0.02,0.89-0.08c2.88-0.62,5.45-3.09,6.08-5.89
			c0.05-0.43,0.36-0.47,0.9-0.49c0.39-0.01,0.83-0.03,1.08-0.31c1.57-1.25,2.53-2.97,3.46-4.62c0.2-0.35,0.4-0.71,0.61-1.06
			c0.49-0.85,0.54-1.88,0.12-2.76c-0.3-0.61-0.85-1.05-1.65-1.32c-1.5-0.42-3.17-0.46-4.61-0.46h-1.59c-0.75,0-1.62,0-2.46-0.08
			l-0.61-0.67c-0.44-0.4-1-0.49-1.56-0.59l-0.4-0.07l1.37-1.07c0.55,0.01,1.09,0.02,1.63,0.02c3.18,0,6.11-0.28,8.72-0.83
			c2.32-0.56,4.7-0.85,7.09-0.88c0.32,0,0.64,0,0.97,0.02c0.39,0.02,0.78,0.05,1.17,0.08c1.43,0.09,2.89,0.2,4.35,0.2
			c1.93,0,3.5-0.18,4.91-0.55c0.18,0.7,0.31,1.39,0.44,2.07c0.51,2.55,0.99,4.96,2.96,7.06c1.18,1.51,2.73,2.37,4.23,3.23
			c0.77,0.43,1.56,0.92,2.31,1.43c1.01,0.51,1.82,0.6,2.97,0.6c1.61,0,3.67-0.69,4.84-0.69c4.88,0,8.65,2.65,12.73,5.84
			c0.73,0.48,1.62,0.73,2.64,0.73c1.24,0,2.63-0.37,3.85-1.03l0.09,0.14c0.74,1.05,1.53,2.15,2.58,3.01
			c1.51,1.37,3.46,1.56,5.18,1.56c0.57,0,1.17-0.03,1.74-0.05c0.82-0.03,1.65-0.07,2.45-0.03c0.31,0.44,0.92,0.78,1.4,0.76
			c0.48-0.02,5.76-1.75,6.04-1.84c0.28-0.09,0.68-0.33,0.68-0.33c1.28-0.66,0.35-2.5-0.32-3.86L359.39,338.76L359.39,338.76z
			 M250.1,323.22c-1.28-2.54-2.27-4.82-3.85-7.21c3.62,0.85,7.75,0.44,7.75,0.44C252.83,318.11,251.49,320.49,250.1,323.22z"/>
		<path class="st2" d="M272.61,325.73c-0.19-0.24-0.56-0.27-0.77-0.27c-0.09,0-0.18,0-0.27,0.01c-0.65,0.08-1.25,0.12-1.87,0.12
			c-0.32,0-0.64-0.01-0.96-0.02c-0.26,0-0.49-0.02-0.73-0.02c-0.39,0-0.7,0.02-1.01,0.08h-0.07l-0.03,0.07
			c-0.05,0.09-1.25,2.2-1.09,3.54c0.18,1.44,1.64,1.73,2.75,1.96c0.4,0.08,0.86,0.16,1.32,0.16c0.8,0,1.32-0.27,1.59-0.8
			c0.67-1.72,1.06-3.13,1.24-4.43c0.04-0.15,0.01-0.3-0.09-0.42C272.61,325.7,272.61,325.73,272.61,325.73z M352.12,330.48
			c-0.69-0.99-1.89-1.79-2.86-2.44c-0.38-0.24-0.75-0.5-1.1-0.78l-0.2-0.14c-0.22-0.19-0.5-0.29-0.78-0.29
			c-1.09,0-2.27,1.31-2.29,1.75c-0.03,0.66,0.9,1.83,2.12,3.28l0.26,0.31c0.62,0.73,1.29,1.13,1.99,1.18c0.71,0,1.28-0.24,1.87-0.8
			c0.44-0.41,1.43-1.44,0.98-2.07C352.11,330.49,352.12,330.48,352.12,330.48z M357.21,338.95c-0.17-0.33-0.31-0.67-0.42-1.03
			c-0.1-0.5-0.18-1-0.24-1.5c-0.1-0.8-0.2-1.56-0.44-2.14c-0.36-0.74-1.1-1.21-1.92-1.23c-0.28,0-0.55,0.06-0.8,0.19
			c-1.19,0.6-1.91,1.24-1.71,2.58c0.66,1.96,0.98,3.37,1.42,5.3c0.05,0.29,0.25,1.27,0.71,1.27c0.04,0,0.07,0,0.11-0.01l3.43-1.12
			c0.16-0.05,0.29-0.16,0.36-0.32c0.2-0.46-0.16-1.23-0.51-1.98C357.2,338.96,357.21,338.95,357.21,338.95z"/>
		<path class="st2" d="M351.15,341.69c-0.27-2.11-0.86-4.16-1.74-6.1l-0.04-0.09h-0.1c-1.99,0.13-3.22-1.49-4.41-3.03
			c-0.4-0.51-0.76-0.99-1.16-1.41c-0.59-0.66-1.23-1.28-1.91-1.85c-0.7-0.61-1.3-1.15-1.53-1.62c-0.28-0.59-0.59-1.71-0.88-2.8
			c-0.21-0.77-0.41-1.51-0.6-2.01c-0.03-0.1-0.08-0.21-0.12-0.31c-0.36-0.96-0.8-2.16-2.04-2.35c-0.62-0.1-1.3-0.13-1.94-0.15
			c-1.79-0.07-3.59-0.39-4.52-1.67c-0.86-1.18-0.51-2.28-0.02-3.45c0.21-0.52,0.36-0.95,0.48-1.44c0.64-2.17,0.87-4.86,0.37-6.74
			c-0.08-0.3-0.17-0.6-0.28-0.9c-0.26-0.78-0.56-1.98-0.37-2.34c0.2-0.36,0.4-0.42,0.76-0.42c0.32,0,0.68,0.11,1.02,0.2
			c0.25,0.07,0.43,0.1,0.67,0.16c0.89,0.21,2.22,0.45,3.44,0.45c2.01,0,4.13-0.43,5.95-1.22c3.45-1.67,6.86-5.45,6.68-10.13
			c-0.46-4.74-3.38-9.32-8.97-14.01c-0.13-0.12-0.28-0.24-0.42-0.35c-0.72-0.6-1.6-1.36-1.62-2.03c-0.02-0.67,1.72-1.08,2.81-1.33
			c0.26-0.06,0.48-0.1,0.68-0.16l0.28-0.07c1.39-0.36,2.82-0.74,4.01-1.56c3.98-2.68,3.84-7.4,3.38-10
			c-0.02-0.07-0.04-0.15-0.06-0.24c-0.07-0.34-0.16-0.76-0.48-0.76c-0.09,0-0.2,0.05-0.3,0.14c-0.12,0.1-0.23,0.22-0.36,0.34
			c-0.46,0.44-0.96,0.93-1.55,1.25c-1.26,0.75-2.78,1.07-4.25,1.37c-0.94,0.2-1.91,0.4-2.81,0.71c-3.96,1.37-6.41,3.37-7.29,5.96
			c-0.46,1.35-0.21,3.04,0.67,4.68c1.3,2.05,3.16,3.84,4.97,5.57c2.86,2.74,5.81,5.56,6.49,9.4c0.37,2.23-0.54,4.12-2.77,5.75
			c-1.17,0.7-2.67,1.08-4.33,1.08c-2.11-0.02-4.18-0.54-6.04-1.52c-2.32-1.16-4.55-2.66-6.72-4.11c-3.25-2.18-6.62-4.43-10.36-5.62
			c-1.62-0.74-3.42-1.1-5.15-1.45c-2.47-0.5-5.02-1.01-7.07-2.62c-0.7-0.46-1.39-0.95-2.07-1.45c-1.86-1.34-3.78-2.74-5.95-3.29
			c-0.81-0.28-1.6-0.39-2.38-0.5c-1.19-0.18-2.3-0.33-3.34-1.07l-1.4-1.02c-1.73-1.27-3.52-2.57-5.31-3.48
			c-3.08-1.53-6.36-2.33-10.02-3.12c-1.17-0.28-1.89-1.16-2.67-2.1c-0.51-0.63-1.05-1.28-1.73-1.73c-2.82-2.23-5.38-3.73-8.68-3.73
			c-0.3,0-0.62,0.01-0.92,0.03c-1.73,0.12-3.42,1.43-4.54,2.41c-3.29,2.88-6.83,5.44-10.25,7.92c-5.11,3.69-10.37,7.5-14.88,12.43
			c-4.44,4.58-6.04,10.28-7.61,15.82c-0.23,0.82-0.45,1.63-0.7,2.45c-0.42,1.51-0.81,3.07-1.18,4.57
			c-2.03,8.15-4.13,16.3-12.28,21.59c-0.54,0.35-0.35,1.03,0.15,1.22c0.21,0.08,3.63,1.23,7.04-2.19c2.06-2.55,3.2-4.91,5.66-7.54
			c0.08-0.08,0.36-0.3,0.6-0.28c0.17,0.08,0.21,0.17,0.17,0.46c-0.32,1.06-0.96,1.98-1.59,2.88c-0.64,0.92-1.3,1.87-1.63,2.96
			c-0.78,2.34-2.96,4.24-4.89,5.9c0,0-0.3,0.2-0.48,0.42c-0.18,0.22-0.18,0.31-0.18,0.31c-0.06,0.51,0.35,0.83,1.18,0.87
			c4.57,0,7.82-3.24,10.95-6.39c0.14-0.14,0.33-0.21,0.53-0.2c0.16,0,0.33,0.01,0.5,0.08c0.21,0.12,0.69,0.59,1.06,0.91
			c1.03,0.91,2.08,1.86,3.46,2.14h0.05c1.66-0.23,3.16-0.42,4.71-0.42c0.45,0,0.87,0.01,1.24,0.05c1.66,0.5,3.34,1.13,4.94,1.73
			c1.13,0.43,2.3,0.87,3.48,1.26h0.05c1.52-0.06,2.6-1.47,3.4-2.73c0.37-0.89,0.2-1.76,0.02-2.6c-0.1-0.52-0.21-1.01-0.18-1.5
			c0.28-0.14,0.67-0.12,1.08-0.06c0.36,0.06,0.89,0,1.06-0.02c0.4-0.06,0.82-0.51,0.7-1.11c-0.3-1.52-1.07-2.46-1.83-3.63
			c-0.67-0.99-1.3-1.93-1.61-2.98c-0.5-1.39-1.57-2.55-2.6-3.67c-1.19-1.3-2.32-2.53-2.66-4.09c0,0-0.1-0.33,0.01-0.46
			c0.12-0.13,0.43,0.02,0.43,0.02c0.55,0.4,1.1,0.85,1.62,1.28c1.74,1.41,3.53,2.87,5.7,3.2c2.02,0.2,4.25,0.46,6.41,0.27
			c0.58-0.09,0.87-0.6,0.73-1.08c-0.87-1.83-1.76-3.79-2.29-5.93c-0.46-1.61-1.48-5.86-0.43-9.07c0.1-0.31,0.31-0.42,0.5-0.42
			c0.02,0,0.04,0,0.08,0.01c0.35,0.08,0.59,0.5,0.63,0.83l0.03,0.42c0.3,4.36,0.6,8.48,3.26,12c0.71,1.14,1.73,1.73,2.72,2.32
			c0.68,0.4,1.46,0.76,1.96,1.39c0.56,0.71,0.65,1.93,0.27,2.67l-3.28,4.84c-0.77,1.1-1.52,2.28-1.79,3.48
			c-0.24,1.22-0.14,2.4-0.03,3.55l0.02,0.28c-0.1-0.07-0.19-0.16-0.25-0.27c-1.32-2.39-1.59-4.41-0.91-5.97
			c0.43-1.01,3.1-4.79,3.87-6.03c0.25-0.4,0.45-0.8,0.24-1.07c-0.26-0.34-2.26-1.19-2.79-1.19c-0.03,0-0.07,0-0.1,0.01
			c-0.47,0.13-0.77,0.56-1.04,0.95c-0.06,0.09-0.12,0.17-0.19,0.26l-4.04,7.33l-0.09,0.27c-0.23,0.73-0.44,1.37-0.23,2.21
			c0.22,1.1,0.56,2.28,0.82,3.15l0.21,0.72c0.36,1.28,0.7,2.47,1.26,3.14c0.35,0.42,0.8,0.61,1.39,0.61c0.3,0,0.62-0.05,0.92-0.09
			c0.51-0.08,1.06-0.14,1.46-0.03c0.61,0.15,1.03,0.61,1.48,1.08c0.44,0.48,0.9,0.97,1.58,1.17c1.25,0.42,2.56,0.76,3.83,1.09
			c1.68,0.44,3.43,0.9,5.09,1.54c0.94,0.3,1.94,0.59,2.91,0.59c1.08,0,1.75-0.3,2.68-1.06c1.31-1.07,1.74-2.12,2.07-3.64
			c0.26-1.39,0.72-1.49,1.73-1.55c0.49-0.02,0.56,0,1.04-0.16c0.5-0.17,1.97-1.96,2.73-3.42c0.21-0.4,0.43-0.76,0.64-1.08
			c0.2-0.27,0.31-0.59,0.32-0.92c0-0.73-0.61-0.95-0.99-0.96h-0.26c0,0-4.31-0.03-5.49,0c-1.77,0.09-2.54,1.79-3.16,3.3
			c-0.25,0.59-0.47,1.12-0.76,1.6c-0.47,0.84-1.38,1.36-2.5,1.33c-0.33,0-1.06-0.2-1.43-0.29c-2.33-0.58-4.73-1.16-5.71-3.48
			c-0.09-0.4-0.24-1.22,0.34-1.91c1.24-1.44,2.88-3.26,4.57-4.57c2.34-0.49,4.68-2.23,5.97-4.4c0.27-0.38,0.41-0.82,0.55-1.24
			c0.21-0.66,0.41-1.28,1-1.66c0.38-0.19,0.68-0.13,0.76,0.2c0.22,1.22-0.23,2.39-0.69,3.52c-0.1,0.25-0.2,0.51-0.29,0.76
			l-0.07,0.19l0.2,0.02c0.64,0.06,1.31,0.09,1.98,0.09c2.4,0,4.68-0.41,6.89-0.81c2.19-0.4,4.46-0.81,6.8-0.81
			c0.25,0,0.5,0,0.76,0.01c1.04,0,2.05,0.09,3.03,0.18c0.96,0.08,1.96,0.18,2.95,0.18c0.35,0,0.68,0,1-0.03
			c3-0.14,5.18-1.5,5.83-3.65c0.62-1.84,0.55-5.01-0.2-9.44c-0.03-0.21-0.06-0.35-0.06-0.37v-0.08c0-0.17,0-0.34,0.22-0.45
			c0.28-0.15,0.58,0,0.71,0.36c1.14,3.18,1.79,6.85,2.14,9.36c0.39,2.45,1.4,4.93,3.14,7.57c2.14,3.2,5.68,5.03,9.69,5.03
			c0.94,0,1.87-0.18,2.8-0.29c0.64-0.08,0.89-0.05,1.32-0.05c5.11,0,9.54,2.21,12.85,6.39c0,0,0.06,0.08,0.06,0.2
			c0,0.18-0.26,0.35-0.48,0.26l-0.43-0.34c-2.88-2.23-5.85-4.54-9.58-5c-0.7-0.12-1.4-0.18-2.11-0.18c-1.08,0-2.14,0.12-3.16,0.23
			c-1.03,0.12-1.99,0.24-2.98,0.24c-1.16,0.03-2.31-0.18-3.38-0.61c-4.3-1.42-7.8-6.36-8.93-9.43c-0.08-0.18-0.26-0.29-0.45-0.29
			c-0.12,0-0.24,0.03-0.37,0.12c-0.5,0.31-0.59,0.48-0.65,0.78c-0.07,0.26,0.35,2.46,0.54,3.41c0.56,2.34,1.4,5.88,4.47,7.19
			c0.38,0.22,0.76,0.47,1.14,0.71c1.53,0.98,3.11,2,4.93,2c0.43,0,0.87-0.06,1.29-0.18c1.09-0.24,2.2-0.36,3.33-0.36
			c3.54,0,7.13,1.2,10.15,3.4c0.5,0.29,0.98,0.69,1.44,1.08c0.66,0.55,1.32,1.11,2.12,1.4c0.5,0.2,1.04,0.3,1.61,0.3
			c1.37,0,1.72-0.41,2.69-0.89c0.36-0.18,0.75-0.27,1.15-0.28c1.1,0,1.71,0.85,2.48,1.94c0.47,0.66,0.99,1.39,1.71,2.04
			c0.99,0.97,2.37,1.09,3.46,1.09c0.6,0,1.19-0.05,1.78-0.08c0.56-0.03,1.24-0.06,1.6-0.09c0.35-0.05,0.55-0.09,0.55-0.09v-0.14
			L351.15,341.69L351.15,341.69z M234.86,325.36c-0.2,0.36-0.68,0.57-1.31,0.57c-0.52,0.01-1.04-0.13-1.49-0.41
			c-0.82-0.59-1.3-1.56-1.37-2.83c-0.01-0.29-0.03-0.6,0.36-0.89c0.2-0.12,0.32-0.12,0.55-0.12c0.78,0,2.04,0.5,2.7,1.31
			c0.05,0.06,1.09,1.44,0.55,2.37L234.86,325.36L234.86,325.36z M235.99,307.35c-0.29,0.38-0.74,0.66-1.17,0.45
			c-0.41-0.14-0.77-0.67-0.99-1.07c-0.28-0.5-0.52-0.94-1.18-0.89h-0.1c-0.59,0.05-1.03,0.34-1.5,0.7
			c-0.23,0.19-1.18,0.89-1.41,1.09c-1.28,1.08-2.56,2.19-2.87,3.7c-0.06,0.27-0.12,0.54-0.18,0.81c-0.09,0.52-0.19,1.07-0.63,1.35
			h-0.03c-0.06,0.03-0.13,0.05-0.2,0.05c-0.2-0.01-0.4-0.08-0.55-0.21c-0.16-0.12-0.26-0.31-0.27-0.51c-0.22-2.6,0.66-4.94,2.48-6.6
			c1.18-0.97,2.13-2.19,3.05-3.37c0.45-0.58,0.91-1.17,1.39-1.72c0.36-0.36,0.96-0.06,1.94,1.01c0.41,0.45,1.7,2.64,2.28,4.08
			c0.22,0.63-0.07,1.11-0.07,1.11L235.99,307.35L235.99,307.35z M257.48,277.14c-0.49,0.47-1.01,0.94-1.52,1.42
			c-1.83,1.66-3.71,3.38-4.95,5.32c-0.59,0.8-1.02,1.71-1.44,2.6c-0.05,0.09-0.15,0.29-0.35,0.29c-0.1-0.01-0.2-0.05-0.27-0.13
			c-0.35-0.35-0.06-2.8,0.4-4.03c1.01-2.71,3.29-5.56,6.28-7.79c0.33-0.2,0.71-0.31,1.1-0.31c0.56,0,0.99,0.26,1.17,0.7
			C258.27,275.81,258.13,276.51,257.48,277.14z M135.52,328.58c-0.1-0.18-0.2-0.36-0.29-0.54c-0.3-0.57-0.47-1.18-0.62-1.71
			c-0.3-1.06-0.56-1.99-1.72-1.83c-1.64,0.24-3.23,0.34-5.01,0.34c-0.03,0-0.58,0-0.75,0.39c-0.2,0.45,0.25,0.87,0.73,1.3
			c0.27,0.25,0.55,0.5,0.73,0.78c0.33,0.48,0.64,1.17,0.95,1.84c0.48,1.07,0.9,1.98,1.38,2.13c0.22,0.06,0.45,0.09,0.68,0.09
			c1.12,0,2.65-0.6,3.76-1.46c0.62-0.53,0.42-0.88,0.14-1.35L135.52,328.58z M55.48,326.92l-0.09-0.07
			c-0.34-0.27-0.95-0.24-1.36,0.05c-0.28,0.2-0.58,0.39-0.85,0.58c-0.91,0.61-1.86,1.22-2.86,2.07c-0.37,0.3-0.56,0.88-0.6,1.32
			c-0.03,0.35,0.03,0.63,0.18,0.81c0.08,0.09,0.81,0.9,0.96,1.03c0.23,0.2,0.62,0.45,1.16,0.45c0.34-0.01,0.68-0.1,0.98-0.26
			c1.77-0.89,3.6-4.16,3.67-4.35C56.85,328.02,56.26,327.54,55.48,326.92z M49.66,334.69c-0.36-0.51-1.57-1.93-2.25-1.93
			c-0.06,0-0.12,0-0.16,0.03c-0.94,0.39-2.03,1.6-2.08,2.33c-0.24,3.17-0.33,3.51-1.19,4.48c-0.25,0.27-0.41,0.9-0.13,1.17
			c0.24,0.24,3.36,1.23,3.71,1.23h0.07c0.28-0.09,0.51-0.81,1.15-3c0.34-1.18,0.72-2.52,1.16-3.72c0.02-0.08,0.03-0.2-0.25-0.6
			C49.68,334.69,49.66,334.69,49.66,334.69z"/>
		<path class="st2" d="M145.13,334.48c1.28-0.09,2.6-0.19,3.54-1.18c1.18-1.72,2.2-3.45,3.09-5.28c0.8-1.64,0.81-3.24,0.02-4.5
			c-2.35-3.77-2.77-4.76-3.73-7.32l-0.02-0.07l-0.07-0.02c-0.28-0.09-0.55-0.18-0.82-0.29c-0.58-0.22-1.18-0.47-1.87-0.47h-0.09
			c-0.81,0.02-1.36,0.28-1.58,0.73l-0.03,0.07l4.27,8.43c0.27,0.66,0.59,1.32,0.42,2.31c-0.17,0.98-2.26,4.28-2.89,4.7
			c-0.11,0.09-0.24,0.14-0.37,0.15c-0.05,0-0.27-0.04-0.13-0.54c0.4-1.37,0.9-4.59,0.76-5.62c-0.15-1.19-3.73-7.12-3.88-7.38
			l-0.07-0.1c-0.55-0.9-1.12-1.84-1.08-2.93c0-0.5,0.47-0.85,0.81-0.98c0.62-0.24,1.22-0.33,1.85-0.47
			c1.52-0.34,3.09-0.68,3.65-1.53c1.71-2.6,2.72-5.31,3.4-9.07c0.03-0.17,0.15-0.48,0.39-0.48c0.14,0,0.28,0.05,0.34,0.37
			c0.63,3.59-0.22,7.28-2.34,10.24c-0.15,0.25-0.2,0.54-0.15,0.82c0.05,0.3,0.39,0.55,0.39,0.55c0.82,0.56,3.82,0.23,5.99-0.9
			c1.66,0.03,3.22-0.26,4.74-0.54c0.48-0.09,0.96-0.18,1.43-0.26c0.15,0.08,0.27,0.22,0.29,0.33c-1.28,1.44-2.05,3.05-2.45,5.08
			c-0.36,0.37-0.74,0.72-1.12,1.07c-1.39,1.28-2.89,2.71-2.96,4.53c0,0-0.04,0.66,0.67,0.7c0.22,0.01,0.48-0.1,0.71-0.2
			c0.23-0.12,0.48-0.18,0.74-0.19c0.22,0.03,0.4,0.22,0.41,0.45l-1.59,2.33c-0.6,0.97-0.34,2-0.1,3.01
			c0.18,0.55,0.09,0.98,0.25,1.47c0.4,1.16,1.81,1.71,2.94,1.71c2.07-0.09,3.96-0.77,5.78-1.43c0.33-0.12,0.64-0.23,0.98-0.35
			c2-0.87,4.67-1.04,7.85-0.53c2.55-0.17,4.47-1.85,6.33-3.49c0.8,0.02,1.62,0.49,2.46,1.4c2.76,2.96,6.14,4.4,10.35,4.4h0.48
			l0.42-0.03c0.43-0.1,0.55-0.31,0.58-0.59c0.03-0.32-0.22-0.65-0.69-0.88l-2.35-1.25c-1.88-1.19-3.93-2.64-4.49-4.53
			c-0.61-2.02-1.75-4.08-2.6-5.45c-0.17-0.28-0.36-0.55-0.55-0.82c-0.33-0.48-0.68-0.97-0.91-1.49c2.56,0.91,4,2.81,5.74,5.97
			c1.29,2.35,4.63,4.88,7.8,4.88c0.42,0,0.82-0.05,1.22-0.13c0.34-0.07,0.56-0.29,0.61-0.59c0.03-0.26,0-0.5-0.28-0.66l-1.92-0.96
			c-2.28-1.34-3.59-3.54-4.87-5.68c-0.5-0.85-1.01-1.71-1.58-2.49c-0.36-0.54-0.99-1.1-1.54-1.59c-0.48-0.43-0.94-0.85-1.02-1.07
			c-2.08-5.69-4.35-12.37-4.9-19.8c-0.08-1.13-0.88-3.63-1.83-5.24c-2.96-4.82-10.03-13.07-10.42-13.48
			c-0.24-0.26-0.49-0.51-0.75-0.75l-0.19-0.19l-12.73-10.58c-2.53-1.78-3.3-2.1-5.14-2.75c-1.29-0.44-2.64-0.66-4-0.64
			c-1.8,0-3.61,0.35-5.08,0.98c-1.01,0.54-2,1.17-2.96,1.78c-1.62,1.04-3.32,2.12-5.14,2.73c-1.43,0.64-2.96,1.11-4.45,1.57
			c-2.89,0.89-5.88,1.81-8.24,3.99c-0.69,0.63-1.25,1.16-1.72,1.61c-2.19,2.06-2.41,2.28-4.2,2.28c-4.14,0-7.08,1.02-10.15,3.51
			c-2.42,2.2-4.82,4.26-7.62,5.23c-1.25,0.43-2.65,0.6-4.12,0.74c-2.12,0.19-2.45,0.21-4.45,0.69c-3.02,0.69-6.22,3.18-8.93,5.29
			c-0.89,0.69-2.07,1.6-2.63,1.97c-0.29,0.19-0.64,0.41-0.93,0.58c-3.37,1.96-6.54,3.82-10.62,3.82h-0.3
			c-3.04-0.22-5.8-2.32-6.73-5.09c-0.85-3.12,0.06-6.33,2.53-8.79c1.17-1.17,2.5-2.3,3.81-3.4c2.08-1.77,4.05-3.44,5.42-5.28
			c1.59-2.13,1.41-5.72-0.38-7.68c-1.78-1.96-5.76-2.93-7.26-3.29l-0.26-0.06c-0.15-0.03-0.41-0.07-0.55-0.1
			c-0.95-0.19-1.86-0.32-2.78-0.54c-2.36-0.64-4.2-2.48-6.3-3.6c-0.81,1.24-1.08,2.58-0.97,4.08c0.4,3.16,3.03,6.44,5.95,7.77
			c0.13,0.05,0.25,0.1,0.38,0.14c0.92,0.4,1.89,0.46,2.81,0.46h1.18c0.56,0,1.24,0,1.85,0.15c0.66,0.19,1.14,0.75,1.23,1.43
			c0.05,0.42-0.14,0.75-0.68,1.16l-1.49,1.23c-2.52,2.07-5.12,4.23-7.22,6.83c-2.83,3.06-2.96,8.37-1.64,11.81
			c1.68,4.53,6.34,7.07,10.22,7.56c0.69,0.1,1.38,0.17,2.11,0.17c2.28,0,4.45-0.55,6.55-1.08c0.08-0.02,0.14-0.02,0.2-0.02
			c0.09,0,0.28,0,0.31,0.48c0.06,0.94,0.12,2,0.17,3.03c0.07,1.67,0.15,3.25,0.27,3.92c0.28,1.49,1.01,3.3,1.51,4.49
			c0.21,0.5,0.37,0.9,0.42,1.1c0.19,0.68,0.01,1.42-0.44,1.84c-1.59,1.46-4.84,2.62-5.43,2.71c-0.96,0.12-1.98,0.17-2.73,0.21
			c-0.37,0.02-0.68,0.03-0.83,0.06c-0.34,0.03-0.65,0.18-0.89,0.42c-0.46,0.45-0.95,1.72-1.53,3.2c-0.35,0.89-0.7,1.81-1.07,2.57
			c-1.02,1.68-2.72,2.68-4.36,3.63c-0.41,0.24-0.82,0.48-1.22,0.73l-0.05,0.05c-0.68,1.08-1.36,2.09-2.24,2.87
			c-0.68,0.63-1.55,0.77-2.39,0.88h-0.06l-0.03,0.05c-1.29,1.48-1.7,3.43-2.11,5.34c-0.06,0.29-0.13,0.59-0.19,0.87l-0.06,0.27h0.17
			c0.68,0.08,1.35,0.22,2.07,0.39c0.95,0.21,1.92,0.42,2.88,0.42c0.91,0,1.68-0.19,2.39-0.58c1.23-0.56,1.88-1.7,2.53-2.78
			c0.42-0.71,0.86-1.46,1.44-2.04c0.33-0.38,0.81-0.58,1.31-0.56c0.48,0,1.01,0.14,1.51,0.28c0.47,0.13,0.95,0.26,1.4,0.28
			c2.27,0.13,4.43-1.3,5.47-2.13c0.46-0.36,0.91-0.8,1.36-1.2c0.69-0.64,1.39-1.31,2.16-1.78c0.92-0.45,2.04-0.66,3.42-0.66
			c1.71,0,3.52,0.34,4.96,0.61c0.77,0.2,1.56,0.3,2.35,0.3c1.3,0.02,2.57-0.29,3.71-0.91c1.27-0.71,2.54-1.38,3.56-1.92
			c0.6-0.32,1.12-0.59,1.53-0.82c1.81-0.99,3.36-3.76,3.93-4.91c0.54-1.07,1.45-3.37,1.46-3.39l0.05-0.1l-2.12-1.62l-0.08,0.14
			c0,0-1.4,2.3-2.3,3.37c-3.73,5.08-9.81,5.73-14.69,5.73c-0.34-0.01-0.68-0.02-1.01-0.02c-6.04,0-10.91,2.03-14.47,6.03
			c-0.16,0.19-0.46,0.22-0.58,0.06c-0.07-0.09-0.09-0.24-0.04-0.43c0.07-0.36,0.2-0.7,0.4-1c3.78-5.37,10.24-6.17,15.45-6.26
			c3.85-0.26,6.65-0.92,9.08-2.17c3.13-1.59,5.43-5.1,6.34-7.89c0.6-1.83,0.89-3.78,1.17-5.66c0.22-1.5,0.46-3.04,0.83-4.47
			c0.07-0.18,0.24-0.3,0.44-0.3c0.04,0,0.08,0,0.15,0.03c0.2,0.04,0.58,0.18,0.58,0.47c-0.53,2.95-1.24,7,0.1,10.37
			c0.63,1.33,1.97,1.99,4.1,1.99c1.29,0,2.69-0.22,4.06-0.43c1.06-0.16,2.05-0.33,2.9-0.36c0.37-0.03,0.73-0.05,1.1-0.05
			c1.69,0,3.34,0.33,4.92,0.64c1.38,0.28,2.81,0.56,4.27,0.63c0.26,0.01,0.54,0.03,0.83,0.06c0.5,0.04,1.03,0.08,1.57,0.08
			c1.24,0,2.12-0.25,2.75-0.76c0.44-0.36,0.29-0.91,0.09-1.6l-0.03-0.13c-0.03-0.12-0.07-0.25-0.12-0.39
			c-0.28-0.91-0.71-2.29,0-2.94c0.12-0.08,0.26-0.13,0.4-0.13c0.12,0,0.28,0.03,0.33,0.22l0.23,0.8c0.31,1.1,0.64,2.25,1.35,3.23
			c1.49,1.89,3.78,3.7,6.63,5.19c1.84,1.26,4.05,3.39,4.23,6.37c0,1.35-1.31,2.28-2.28,2.87c-1.54,0.76-4.16,1.62-5.4,1.62
			c-0.16,0.01-0.33-0.02-0.48-0.08c-1.78-0.95-2.69-2.48-3.66-4.11c-0.5-0.9-1.08-1.75-1.72-2.55c-0.93-1.03-2.1-1.43-3.68-1.3
			c-1.52,0.12-2.93,0.41-4.59,0.76c-0.33,0.06-0.61,0.27-0.75,0.58c-0.15,0.36-0.12,0.77,0.09,1.1c0.87,1.54,1.7,2.95,2.59,4.43
			l0.4,0.67c0.21,0.36,0.67,0.41,1.04,0.41c0.2,0,0.42-0.01,0.66-0.03c0.25-0.01,0.5-0.03,0.76-0.03c0.77,0,1.27,0.19,1.58,0.57
			c0.27,0.41,0.5,0.84,0.74,1.26c0.59,1.04,1.18,2.13,2.19,2.9c0.91,0.81,2.23,1.27,3.62,1.27c0.61,0,1.19-0.09,1.76-0.26
			c3.99-1.25,7.88-2.54,11.57-4.52c0,0,1.46-0.02,2.03-0.07L145.13,334.48L145.13,334.48z M151.77,289.72
			c-0.07,0.25-0.22,0.41-0.4,0.41c-0.07,0-0.26-0.03-0.31-0.35c-0.67-3.4-1.07-5.08-1.85-6.65c-0.24-0.5-0.56-0.92-0.83-1.3
			c-0.58-0.78-1.07-1.45-0.51-2.36c0.16-0.27,0.57-0.45,1.01-0.45c0.22,0,0.42,0.05,0.6,0.13c0.66,0.32,1.3,1.11,1.96,2.44
			c1.64,3.36,0.34,8.1,0.32,8.15C151.76,289.74,151.77,289.72,151.77,289.72z M173.18,323.64c0,0-0.11,0.96-0.55,1.38
			c-0.46,0.41-2.07,0.63-2.93,0.61c-0.85-0.03-1.15-0.15-1.32-0.41c-0.2-0.29,0.13-0.87,0.13-0.87c0.1-0.21,1.1-2.28,3.11-2.83
			c0,0,0.64-0.24,1.27,0.07c0.62,0.3,0.33,1.85,0.3,2.06L173.18,323.64L173.18,323.64z M179,310.25c-0.06,0.47-0.2,0.93-0.42,1.36
			c-0.1,0.19-0.28,0.6-0.87,0.61c-0.64,0-0.6-0.75-0.6-0.85c0,0-0.08-2.1-0.48-2.97c-0.43-0.96-2.54-3.66-3.76-3.55
			c-0.3,0.02-1.1,0.5-1.68,1.26c-0.71,0.93-0.71,1.04-0.94,1.18c-0.22,0.14-0.5,0.07-0.6-0.48c-0.09-0.55-0.2-0.99,0.06-2.04
			c0.26-1.04,0.51-1.28,0.82-2.02c0,0,0.63-1.46,0.87-1.83c0.66-0.99,1.52-0.92,1.52-0.92c0.23,0.01,0.98-0.08,1.79,0.92
			c0.93,1.17,0.73,1.07,0.99,1.48c0.26,0.41,0.54,0.84,1.31,1.68c0.77,0.85,1.62,2.48,1.86,3.5c0.23,1.02,0.22,1.88,0.09,2.67
			L179,310.25L179,310.25z"/>
	</g>
</g>
</svg>
