<?xml version="1.0" encoding="utf-8"?>
<!-- Generator: Adobe Illustrator 25.0.0, SVG Export Plug-In . SVG Version: 6.00 Build 0)  -->
<svg version="1.1" id="Layer_1" xmlns="http://www.w3.org/2000/svg" xmlns:xlink="http://www.w3.org/1999/xlink" x="0px" y="0px"
	 viewBox="0 0 150 150" style="enable-background:new 0 0 150 150;" xml:space="preserve">
<style type="text/css">
	.st0{fill:#FFFFFF;}
	.st1{fill:#C90019;}
</style>
<g>
	<g>
		<path class="st0" d="M29.3,59.2C37.5,60,44,67,44,75.5c0,9.1-7.3,16.4-16.4,16.4c-9.1,0-16.4-7.3-16.4-16.4
			c0-9.1,7.3-16.4,16.4-16.4C28.1,59.1,28.7,59.1,29.3,59.2z M30.1,90.8c8.4-1.4,14.1-9.4,12.7-17.8c-1.2-7-6.9-12.1-13.7-12.8
			c-1.4-0.1-2.8-0.1-4.2,0.1c-1.7,0.3-3.3,0.8-4.7,1.6c7.4,2.5,11.4,6.4,11.7,10.3c0.1,2.4-1,4.2-2.5,5.6L40.1,77
			c0.3,0,0.4,0.3,0,0.4L15,84.6c2.6,3.5,6.5,5.9,10.9,6.3C27.3,91,28.7,91,30.1,90.8z M23.2,75.8c1.4-5.2-0.2-10.6-3.9-13.5
			c-5.1,3.2-8.1,9.3-7,15.7c0.4,2.1,1.1,4,2.2,5.7C18.5,82.6,22,80.5,23.2,75.8z"/>
		<path class="st1" d="M42.8,72.9c1.4,8.4-4.3,16.4-12.7,17.8c-1.4,0.2-2.8,0.3-4.2,0.1c-4.4-0.5-8.4-2.8-10.9-6.3l25.1-7.2
			c0.4-0.1,0.3-0.4,0-0.4l-10.5,0.7c1.5-1.4,2.6-3.2,2.5-5.6c-0.3-3.9-4.3-7.8-11.7-10.3c1.4-0.8,3-1.3,4.7-1.6
			c1.4-0.2,2.8-0.3,4.2-0.1C35.9,60.8,41.7,65.9,42.8,72.9z M12.3,78.1c0.4,2.1,1.1,4,2.2,5.7c4-1.1,7.5-3.2,8.8-7.9
			c1.4-5.2-0.2-10.6-3.9-13.5C14.2,65.6,11.2,71.7,12.3,78.1z"/>
	</g>
	<g>
		<g>
			<polygon points="129,73.5 129,68.1 123.5,68.1 123.5,73.5 120.6,73.5 120.6,60.7 123.5,60.7 123.5,65.8 129,65.8 129,60.7 
				132,60.7 132,73.5 			"/>
			<path d="M64.9,60.7v8.1c0,0.9,0.1,1.7,0.4,2.3c0.3,0.6,0.6,1.1,1.1,1.5c0.5,0.4,1.1,0.7,1.7,0.9c0.7,0.2,1.4,0.3,2.3,0.3
				c0.8,0,1.6-0.1,2.2-0.3c0.7-0.2,1.2-0.5,1.6-0.9c0.4-0.4,0.8-0.9,1-1.5c0.2-0.6,0.4-1.4,0.4-2.3v-8.1h-2.8v8
				c0,0.8-0.2,1.5-0.6,1.9c-0.4,0.5-1.1,0.7-1.9,0.7c-0.9,0-1.5-0.2-1.9-0.7c-0.4-0.5-0.6-1.1-0.6-1.9v-8H64.9z"/>
			<path d="M56.3,73.5V63.1h-3.5v-2.4h10v1.2c0,0.7-0.6,1.2-1.2,1.2h-2.3v10.5H56.3z"/>
			<rect x="104.1" y="60.7" width="3" height="12.9"/>
			<path d="M94.2,67.5l0.1,0.1l3.8,4.9c0.5,0.6,1.2,1,2,1h2.4L97,66.6L97,66.5l0.1-0.1l4.5-5.7h-3.1l-4.1,5.5l-0.1,0.1l0-0.2v-5.4
				h-3v12.9h3v-5.8L94.2,67.5z"/>
			<path d="M87.4,73.5c-0.9,0-1.7-0.5-2.2-1.2l-2.3-3.8h-1.5v5h-3V60.7h5.3c1.4,0,2.4,0.4,3.2,1.1c0.7,0.7,1.1,1.7,1.1,2.8
				c0,0.6-0.2,1.2-0.5,1.8c-0.3,0.6-0.9,1.1-1.6,1.4l-0.2,0.1l3.6,5.6H87.4z M81.4,66.6h1.7c0.6,0,1.1-0.2,1.4-0.5
				c0.3-0.3,0.5-0.8,0.5-1.3c0-0.5-0.2-1-0.5-1.3c-0.3-0.3-0.8-0.5-1.4-0.5h-1.7V66.6z"/>
			<path d="M109.5,73v-2.5c0.9,0.4,2.2,0.9,3.4,0.9c1.5,0,2.2-0.5,2.2-1.5c0-1.1-1-1.2-3-2.1c-1.3-0.6-2.6-1.5-2.6-3.7
				c0-2.5,1.9-3.7,4.6-3.7c1.4,0,2.6,0.3,3.3,0.6v2.4c-0.7-0.3-1.9-0.7-3.1-0.7c-1.3,0-1.9,0.5-1.9,1.3c0,0.9,0.7,1.1,2.1,1.6
				c1.7,0.8,3.7,1.2,3.7,4.1c0,2.5-2,3.9-4.7,3.9C111.8,73.7,110.5,73.4,109.5,73z"/>
		</g>
		<g>
			<path d="M114.2,90.3V77.5h8.1v1.2c0,0.7-0.6,1.2-1.2,1.2h-3.8v2.8h4.3v2.1h-4.3v3.1h5.1v2.4H114.2z"/>
			<path d="M84.8,90.3V77.5h1.4c0.8,0,1.5,0.7,1.5,1.5v9h4.7v2.3H84.8z"/>
			<rect x="66.4" y="77.5" width="3" height="12.9"/>
			<path d="M81,90.3c-0.9,0-1.7-0.5-2.2-1.2l-2.3-3.8H75v5h-3V77.5h5.3c1.4,0,2.4,0.4,3.2,1.1c0.7,0.7,1.1,1.7,1.1,2.8
				c0,0.6-0.2,1.2-0.5,1.8c-0.3,0.6-0.9,1.1-1.6,1.4l-0.2,0.1l3.6,5.6H81z M75,83.3h1.7c0.6,0,1.1-0.2,1.4-0.5
				c0.3-0.3,0.5-0.8,0.5-1.3c0-0.5-0.2-1-0.5-1.3c-0.3-0.3-0.8-0.5-1.4-0.5H75V83.3z"/>
			<path d="M59.8,77.5h-3.4l-4.9,12.9h2.1c0.5,0,1-0.3,1.2-0.9l0.5-1.5h5.2l0.8,2.4h3.2L59.8,77.5z M56.2,85.6l1.2-3.3
				c0.3-0.7,0.5-1.5,0.7-2.1h0c0.2,0.6,0.4,1.3,0.7,2.1l1.1,3.3H56.2z"/>
			<path d="M124.6,89.8v-2.5c0.9,0.4,2.2,0.9,3.4,0.9c1.5,0,2.2-0.5,2.2-1.5c0-1.1-1-1.2-3-2.1c-1.3-0.6-2.6-1.5-2.6-3.7
				c0-2.5,1.9-3.7,4.6-3.7c1.4,0,2.6,0.3,3.3,0.6v2.4c-0.7-0.3-1.9-0.7-3.1-0.7c-1.3,0-1.9,0.5-1.9,1.3c0,0.9,0.7,1.1,2.1,1.6
				c1.7,0.8,3.7,1.2,3.7,4.1c0,2.5-2,3.9-4.7,3.9C126.9,90.5,125.6,90.2,124.6,89.8z"/>
			<path d="M100.1,77.5h1.8c0.9,0,1.7,0.5,2.1,1.2l3.6,5.8c0.4,0.6,0.9,1.5,1.2,2.1h0.1c0-0.6-0.1-1.4-0.1-2v-7.1h2.6v12.9h-3.3
				l-4.4-7c-0.4-0.6-0.8-1.4-1.1-2h0c0,0.6,0.1,1.2,0.1,1.8v7.1h-2.6V77.5z"/>
			<rect x="94.4" y="77.5" width="3" height="12.9"/>
		</g>
	</g>
</g>
</svg>
