<?xml version="1.0" encoding="utf-8"?>
<!-- Generator: Adobe Illustrator 28.2.0, SVG Export Plug-In . SVG Version: 6.00 Build 0)  -->
<svg version="1.0" id="katman_1" xmlns="http://www.w3.org/2000/svg" xmlns:xlink="http://www.w3.org/1999/xlink" x="0px" y="0px"
	 viewBox="0 0 841.9 595.3" style="enable-background:new 0 0 841.9 595.3;" xml:space="preserve">
<style type="text/css">
	.st0{fill:#1A1818;}
	.st1{fill-rule:evenodd;clip-rule:evenodd;fill:#1A1818;}
	.st2{fill-rule:evenodd;clip-rule:evenodd;fill:#C01723;}
</style>
<g id="Symbols">
	<g id="header-d-tween-1440" transform="translate(-508.000000, -41.000000)">
		<g id="Group_81" transform="translate(508.000000, 41.000000)">
			<g id="Group_80" transform="translate(0.584000, 3.258000)">
				<path id="Path_84" class="st0" d="M86.8,269.7v42c-0.1,1.4,0,2.7,0.4,4.1c0.2,0.5,0.7,0.9,1.2,1.2c1.1,0.4,2.3,0.6,3.4,0.6
					c4.2,0.3,8.4-1.4,11.2-4.5c3.5-4.1,5.3-10.4,5.3-19c0-6.9-1.2-12.4-3.6-16.5c-1.6-3-4.2-5.3-7.4-6.6
					C93.9,269.9,90.4,269.5,86.8,269.7L86.8,269.7z M64,320.4V319h2c1.4,0.1,2.7-0.2,4-0.7c0.9-0.4,1.6-1.1,2.1-2
					c0.4-1.6,0.5-3.3,0.4-5v-35.4c0.1-1.7,0-3.5-0.5-5.2c-0.4-0.8-1.1-1.4-2-1.8c-1.2-0.6-2.6-0.9-4-0.8h-2v-1.5h26.8
					c5.9-0.2,11.7,0.7,17.2,2.6c5,1.9,9.2,5.3,12.1,9.7c2.8,4.4,4.2,9.5,4.1,14.7c0,3.6-0.7,7.1-2,10.5c-1.2,3-3,5.6-5.2,7.9
					c-2.2,2.1-4.7,3.8-7.4,5c-3.3,1.4-6.7,2.4-10.3,2.9c-2.8,0.4-5.6,0.5-8.5,0.5L64,320.4z"/>
				<path id="Path_85" class="st0" d="M170,302.2l-8.9-18.5l-9.2,18.5H170z M171.5,305.1h-21.1l-2.5,5.2c-0.7,1.3-1.1,2.8-1.2,4.3
					c-0.1,1.4,0.7,2.7,2,3.3c1.9,0.6,3.9,1,5.9,1v1.5h-19.9V319c2-0.2,3.8-1,5.3-2.4c2.1-2.4,3.8-5.2,5.1-8.1l21.4-42.9h0.8
					l21.6,44.1c1.2,2.9,2.9,5.6,5.1,7.9c1.2,0.9,2.7,1.4,4.2,1.4v1.5h-28.9V319h1.2c1.7,0.1,3.4-0.2,4.9-0.9c0.6-0.4,1-1.1,1-1.8
					c0-0.5-0.1-1-0.3-1.5c-0.1-0.2-0.5-1.2-1.3-3L171.5,305.1z"/>
				<path id="Path_86" class="st1" d="M256.5,302.1l16.2-35.5h24.3v1.5h-1.9c-1.5-0.1-2.9,0.2-4.2,0.8c-0.8,0.4-1.4,1.1-1.8,1.9
					c-0.4,1.6-0.6,3.3-0.5,5v35.5c-0.1,1.7,0,3.5,0.5,5.2c0.4,0.8,1.1,1.4,2,1.8c1.3,0.6,2.6,0.8,4,0.8h1.9v1.5h-31.2V319h1.9
					c1.5,0.1,2.9-0.2,4.2-0.8c0.8-0.4,1.4-1.1,1.8-1.9c0.4-1.6,0.6-3.3,0.5-5v-39.8l-22.9,49h-1.1L227,271.7v37.9
					c-0.1,1.6,0,3.3,0.2,4.9c0.4,1.3,1.3,2.5,2.5,3.2c1.9,1,3.9,1.4,6,1.2v1.5h-20.5V319h0.6c1.3,0,2.5-0.2,3.7-0.6
					c1-0.3,1.9-0.9,2.6-1.7c0.7-0.9,1.1-1.8,1.4-2.9c0.1-0.3,0.1-1.6,0.1-4.1v-34c0.1-1.7,0-3.4-0.5-5.1c-0.4-0.8-1.1-1.4-2-1.8
					c-1.3-0.6-2.6-0.8-4-0.8h-1.9v-1.5h24.4L256.5,302.1z"/>
				<path id="Path_87" class="st0" d="M349.6,302.2l-8.9-18.5l-9.2,18.5L349.6,302.2z M351.1,305.1h-21.1l-2.5,5.2
					c-0.7,1.3-1.1,2.8-1.2,4.3c-0.1,1.4,0.7,2.7,2,3.3c1.9,0.6,3.9,1,5.9,1v1.5h-19.9V319c2-0.2,3.8-1,5.3-2.4
					c2.1-2.4,3.8-5.2,5.1-8.1l21.4-42.9h0.8l21.6,44.1c1.2,2.9,2.9,5.6,5.1,7.9c1.2,0.9,2.7,1.4,4.2,1.4v1.5h-28.9V319h1.2
					c1.7,0.1,3.4-0.2,4.9-0.9c0.6-0.4,1-1.1,1-1.8c0-0.5-0.1-1-0.3-1.5c-0.4-1-0.8-2-1.3-3L351.1,305.1z"/>
				<path id="Path_88" class="st1" d="M441.9,266.7v14.6h-1.6c-0.6-2.6-1.7-5-3.1-7.2c-1.2-1.6-2.9-2.8-4.7-3.5
					c-1.9-0.6-3.9-0.8-5.9-0.7h-4.5v41.5c-0.1,1.7,0,3.5,0.5,5.2c0.5,0.8,1.2,1.4,2,1.8c1.3,0.6,2.7,0.8,4.1,0.8h2v1.5h-31.3V319h2
					c1.4,0.1,2.9-0.2,4.2-0.8c0.8-0.4,1.4-1.1,1.8-1.9c0.4-1.6,0.6-3.3,0.5-5v-41.5h-4.3c-4,0-7,0.8-8.8,2.3
					c-2.7,2.4-4.4,5.6-4.8,9.2h-1.7v-14.6H441.9z"/>
			</g>
			<rect id="Rectangle_49" x="472.8" y="264" class="st1" width="3.9" height="66.6"/>
			<polygon id="Path_89" class="st1" points="555.9,280.7 555.9,268 527.3,268 527.3,280.7 527.3,326.3 541.6,326.3 541.6,280.7 			
				"/>
			<polygon id="Path_90" class="st1" points="632.2,268 617.2,268 609.6,298.7 600.2,268 590,268 580.6,298.7 573,268 558,268 
				574,326.3 585.7,326.3 595.1,297.5 604.5,326.3 616.2,326.3 632.2,268 			"/>
			<polygon id="Path_91" class="st1" points="676.1,326.3 676.1,313.5 650.8,313.5 650.8,303.2 672.4,303.2 672.4,290.5 
				650.8,290.5 650.8,280.7 676.1,280.7 676.1,268 636.4,268 636.4,326.3 			"/>
			<polygon id="Path_92" class="st1" points="724.2,326.3 724.2,313.5 698.9,313.5 698.9,303.2 720.5,303.2 720.5,290.5 
				698.9,290.5 698.9,280.7 724.2,280.7 724.2,268 684.6,268 684.6,326.3 			"/>
			<polygon id="Path_93" class="st1" points="778.3,326.3 778.3,268 763.9,268 763.9,297.3 745.3,268 732.7,268 732.7,326.3 
				747.1,326.3 747.1,296.9 765.7,326.3 			"/>
			<polygon id="Path_94" class="st2" points="507,268 507,287.8 521.4,287.8 521.4,268 			"/>
		</g>
	</g>
</g>
</svg>
