<?xml version="1.0" encoding="utf-8"?>
<!-- Generator: Adobe Illustrator 28.2.0, SVG Export Plug-In . SVG Version: 6.00 Build 0)  -->
<svg version="1.0" id="katman_1" xmlns="http://www.w3.org/2000/svg" xmlns:xlink="http://www.w3.org/1999/xlink" x="0px" y="0px"
	 viewBox="0 0 841.9 595.3" style="enable-background:new 0 0 841.9 595.3;" xml:space="preserve">
<style type="text/css">
	.st0{fill:#0D3274;}
	.st1{fill-opacity:0;}
	.st2{fill:#2A891B;}
	.st3{fill:#ED7100;}
</style>
<g id="mbblogo_00000151518529758858522850000012113790262415524753_">
	<g>
		<path class="st0" d="M412.1,230.2v92.4h-15.4v-63.3l-28.6,63.3h-10.6l-28.7-63.3v63.3h-15.4v-92.4H330l32.9,72.5l32.8-72.5
			C395.7,230.2,412.1,230.2,412.1,230.2z"/>
		<path class="st0" d="M447.6,230.2v58.9c0,7,1.9,12.3,5.6,15.8s8.9,5.3,15.6,5.3s12-1.8,15.7-5.3s5.6-8.8,5.6-15.8v-58.9h15.4v58.7
			c0,7.5-1.7,13.9-5,19.2c-3.3,5.2-7.8,9.1-13.3,11.7c-5.6,2.6-11.7,3.9-18.5,3.9c-6.8,0-12.9-1.3-18.4-3.9
			c-5.5-2.6-9.9-6.5-13.2-11.7s-4.9-11.6-4.9-19.2v-58.7H447.6z"/>
		<path class="st0" d="M593.2,256.7c-2.4-4.6-5.8-8.1-10.1-10.4c-4.3-2.4-9.3-3.5-15-3.5c-6.2,0-11.7,1.4-16.6,4.1
			c-4.9,2.7-8.6,6.6-11.4,11.7c-2.7,5.1-4.1,10.9-4.1,17.6s1.4,12.5,4.1,17.6c2.7,5.1,6.5,9,11.4,11.8c4.9,2.7,10.4,4.1,16.6,4.1
			c8.3,0,15.2-2.3,20.4-6.9c5.2-4.6,8.4-10.8,9.6-18.8h-35.2v-12.1h51.6v11.8c-1,7.2-3.6,13.8-7.8,19.8s-9.6,10.8-16.3,14.4
			c-6.7,3.6-14.1,5.4-22.3,5.4c-8.8,0-16.9-2-24.1-6.1s-13-9.6-17.3-16.8c-4.3-7.2-6.4-15.3-6.4-24.3c0-9.1,2.1-17.2,6.4-24.3
			c4.3-7.2,10.1-12.8,17.4-16.8c7.3-4,15.4-6.1,24.1-6.1c10,0,18.9,2.4,26.6,7.3c7.8,4.8,13.4,11.7,16.9,20.6L593.2,256.7
			L593.2,256.7z M582.2,218.8c-3.7,3.4-8.6,5.1-14.9,5.1c-6.3,0-11.3-1.7-14.8-5.1c-3.6-3.4-5.4-7.9-5.4-13.5v-2.8h8.8
			c0,3.2,0.9,5.6,2.6,7.2c1.7,1.6,4.7,2.4,8.9,2.4c4.2,0,7.2-0.8,8.9-2.4c1.7-1.6,2.6-4,2.6-7.2h8.9v2.9
			C587.7,211,585.8,215.4,582.2,218.8L582.2,218.8z"/>
		<path class="st0" d="M645,310.3h31.7v12.3h-47.1v-92.4H645V310.3z"/>
		<path class="st0" d="M746,303.7h-39.3l-6.7,18.9h-16l33.6-92.6h17.8l33.6,92.6h-16.2L746,303.7L746,303.7z M741.7,291.3l-15.2-43
			l-15.4,43H741.7z"/>
		<path class="st0" d="M328,359.1c1.1,1.3,1.6,2.8,1.6,4.5c0,1.4-0.4,2.7-1.1,3.9s-1.8,2-3.3,2.7c-1.4,0.7-3.1,1-5,1h-11.4V343h10.9
			c2,0,3.6,0.3,5,1c1.4,0.7,2.5,1.5,3.2,2.6s1.1,2.3,1.1,3.7c0,1.6-0.5,3-1.3,4.1c-0.9,1.1-2,1.9-3.5,2.4
			C325.6,357,326.9,357.8,328,359.1L328,359.1z M313.5,354.9h5.8c1.5,0,2.7-0.3,3.6-1c0.8-0.7,1.3-1.7,1.3-3c0-1.3-0.4-2.2-1.3-3
			c-0.9-0.7-2.1-1.1-3.6-1.1h-5.8V354.9L313.5,354.9z M323.5,366.3c0.9-0.7,1.4-1.8,1.4-3.2c0-1.3-0.5-2.5-1.5-3.3
			c-1-0.8-2.2-1.2-3.8-1.2h-6.1v8.8h6.3C321.4,367.5,322.6,367.1,323.5,366.3L323.5,366.3z"/>
		<path class="st0" d="M339.3,343V361c0,2.1,0.6,3.7,1.7,4.8c1.1,1.1,2.7,1.6,4.7,1.6s3.7-0.5,4.8-1.6c1.1-1.1,1.7-2.7,1.7-4.8V343
			h4.7v17.9c0,2.3-0.5,4.2-1.5,5.8c-1,1.6-2.4,2.8-4.1,3.6s-3.6,1.2-5.6,1.2s-3.9-0.4-5.6-1.2s-3-2-4-3.6c-1-1.6-1.5-3.5-1.5-5.8
			V343H339.3z M340.5,339.5c-0.5-0.5-0.7-1-0.7-1.7c0-0.7,0.2-1.2,0.7-1.7c0.5-0.5,1-0.7,1.7-0.7c0.7,0,1.2,0.2,1.7,0.7
			c0.5,0.5,0.7,1,0.7,1.7c0,0.7-0.2,1.2-0.7,1.7c-0.5,0.5-1.1,0.7-1.7,0.7S341,339.9,340.5,339.5z M347.5,339.5
			c-0.5-0.5-0.7-1-0.7-1.7c0-0.7,0.2-1.2,0.7-1.7c0.5-0.5,1.1-0.7,1.7-0.7c0.7,0,1.2,0.2,1.7,0.7c0.5,0.5,0.7,1,0.7,1.7
			c0,0.7-0.2,1.2-0.7,1.7c-0.5,0.5-1.1,0.7-1.7,0.7C348.6,340.2,348,339.9,347.5,339.5z"/>
		<path class="st0" d="M384.2,343l-9.4,17.9v10.2H370V361l-9.5-17.9h5.2l6.6,13.8L379,343H384.2L384.2,343z"/>
		<path class="st0" d="M392.5,343V361c0,2.1,0.6,3.7,1.7,4.8c1.1,1.1,2.7,1.6,4.7,1.6s3.7-0.5,4.8-1.6c1.1-1.1,1.7-2.7,1.7-4.8V343
			h4.7v17.9c0,2.3-0.5,4.2-1.5,5.8c-1,1.6-2.4,2.8-4.1,3.6s-3.6,1.2-5.6,1.2c-2,0-3.9-0.4-5.6-1.2s-3-2-4-3.6
			c-1-1.6-1.5-3.5-1.5-5.8V343H392.5z M393.7,339.5c-0.5-0.5-0.7-1-0.7-1.7c0-0.7,0.2-1.2,0.7-1.7c0.5-0.5,1-0.7,1.7-0.7
			c0.7,0,1.2,0.2,1.7,0.7c0.5,0.5,0.7,1,0.7,1.7c0,0.7-0.2,1.2-0.7,1.7c-0.5,0.5-1.1,0.7-1.7,0.7
			C394.8,340.2,394.2,339.9,393.7,339.5z M400.7,339.5c-0.5-0.5-0.7-1-0.7-1.7c0-0.7,0.2-1.2,0.7-1.7c0.5-0.5,1.1-0.7,1.7-0.7
			c0.7,0,1.2,0.2,1.7,0.7c0.5,0.5,0.7,1,0.7,1.7c0,0.7-0.2,1.2-0.7,1.7c-0.5,0.5-1.1,0.7-1.7,0.7
			C401.8,340.2,401.2,339.9,400.7,339.5z"/>
		<path class="st0" d="M431.9,371.2l-11.1-12.6v12.6h-4.7V343h4.7v12.8L432,343h5.9l-12.4,14.1l12.6,14L431.9,371.2L431.9,371.2z"/>
		<path class="st0" d="M460.5,366.9c-0.7,1.2-1.6,2.2-2.8,2.9c-1.2,0.8-2.7,1.3-4.4,1.5v2c1.6,0,2.9,0.4,3.9,1.1
			c1,0.7,1.5,1.8,1.5,3.2c0,1.4-0.5,2.4-1.5,3.2c-1,0.8-2.2,1.2-3.7,1.2h-5.4v-2.9h4.5c0.7,0,1.3-0.1,1.7-0.3
			c0.4-0.2,0.6-0.6,0.6-1.2c0-0.5-0.2-1-0.6-1.2s-1-0.3-1.7-0.3h-2.2v-4.8c-2.6-0.2-4.7-1-6.3-2.5s-2.4-3.3-2.4-5.5h5
			c0.1,1.2,0.6,2.2,1.5,3c0.9,0.8,2.1,1.2,3.7,1.2c1.6,0,2.9-0.4,3.8-1.2c0.9-0.8,1.4-1.7,1.4-3c0-1-0.3-1.7-0.8-2.3
			c-0.6-0.6-1.2-1-2.1-1.4c-0.8-0.3-2-0.7-3.4-1c-1.9-0.5-3.4-1-4.5-1.5c-1.2-0.5-2.2-1.3-3-2.3c-0.8-1-1.2-2.5-1.2-4.2
			c0-1.6,0.4-3,1.2-4.2c0.8-1.2,2-2.2,3.4-2.8c1.5-0.7,3.2-1,5.2-1c2.8,0,5,0.7,6.8,2s2.7,3.2,2.9,5.6h-5.2c-0.1-1-0.6-1.9-1.5-2.6
			s-2.1-1.1-3.6-1.1c-1.3,0-2.5,0.3-3.3,1c-0.8,0.7-1.3,1.7-1.3,2.9c0,0.9,0.2,1.6,0.8,2.1s1.2,1,2,1.3c0.8,0.3,2,0.7,3.4,1
			c1.9,0.5,3.4,1,4.6,1.5c1.2,0.5,2.2,1.3,3,2.4c0.8,1.1,1.2,2.5,1.2,4.3C461.5,364.6,461.2,365.8,460.5,366.9L460.5,366.9z"/>
		<path class="st0" d="M471.7,346.8v8.3h9.8v3.8h-9.8v8.6h11.1v3.8H467V343h15.8v3.8L471.7,346.8L471.7,346.8z"/>
		<path class="st0" d="M511.3,343v28.2h-4.7v-12.3h-13.4v12.3h-4.7V343h4.7v12.1h13.4V343H511.3z"/>
		<path class="st0" d="M518,339.5c-0.5-0.5-0.7-1-0.7-1.7c0-0.7,0.2-1.2,0.7-1.7c0.5-0.5,1.1-0.7,1.7-0.7c0.7,0,1.2,0.2,1.7,0.7
			c0.5,0.5,0.7,1,0.7,1.7c0,0.7-0.2,1.2-0.7,1.7c-0.5,0.5-1.1,0.7-1.7,0.7C519.1,340.2,518.5,339.9,518,339.5z M522.1,343v28.2h-4.7
			V343H522.1z"/>
		<path class="st0" d="M543.1,371.2l-6.6-11.3H533v11.3h-4.7V343h9.8c2.2,0,4,0.4,5.6,1.1c1.5,0.7,2.7,1.8,3.4,3
			c0.7,1.3,1.1,2.7,1.1,4.2c0,1.8-0.5,3.5-1.6,5c-1.1,1.5-2.7,2.5-5,3.1l7.1,11.7L543.1,371.2L543.1,371.2z M533,356.2h5.2
			c1.7,0,3.1-0.4,3.9-1.3s1.3-2,1.3-3.5s-0.5-2.6-1.3-3.4c-0.9-0.8-2.2-1.2-4-1.2H533L533,356.2L533,356.2z"/>
		<path class="st0" d="M584.1,359.1c1.1,1.3,1.6,2.8,1.6,4.5c0,1.4-0.4,2.7-1.1,3.9s-1.8,2-3.3,2.7c-1.4,0.7-3.1,1-5,1h-11.4V343
			h10.9c2,0,3.6,0.3,5,1c1.4,0.7,2.5,1.5,3.2,2.6s1.1,2.3,1.1,3.7c0,1.6-0.5,3-1.3,4.1s-2,1.9-3.5,2.4
			C581.8,357,583.1,357.8,584.1,359.1L584.1,359.1z M569.6,354.9h5.8c1.5,0,2.7-0.3,3.6-1c0.9-0.7,1.3-1.7,1.3-3
			c0-1.3-0.4-2.2-1.3-3c-0.9-0.7-2.1-1.1-3.6-1.1h-5.8V354.9L569.6,354.9z M579.7,366.3c0.9-0.7,1.4-1.8,1.4-3.2
			c0-1.3-0.5-2.5-1.5-3.3c-1-0.8-2.2-1.2-3.8-1.2h-6.1v8.8h6.3C577.5,367.5,578.8,367.1,579.7,366.3L579.7,366.3z"/>
		<path class="st0" d="M595.5,346.8v8.3h9.8v3.8h-9.8v8.6h11.1v3.8h-15.8V343h15.8v3.8L595.5,346.8L595.5,346.8z"/>
		<path class="st0" d="M617,367.4h9.6v3.7h-14.3V343h4.7L617,367.4L617,367.4z"/>
		<path class="st0" d="M635.2,346.8v8.3h9.8v3.8h-9.8v8.6h11.1v3.8h-15.8V343h15.8v3.8L635.2,346.8L635.2,346.8z"/>
		<path class="st0" d="M669.4,344.8c2.3,1.2,4.1,2.8,5.3,4.9c1.2,2.2,1.9,4.7,1.9,7.5c0,2.9-0.6,5.4-1.9,7.4c-1.2,2.1-3,3.7-5.3,4.9
			c-2.3,1.1-4.9,1.7-8,1.7h-9.3V343h9.3C664.4,343,667.1,343.6,669.4,344.8L669.4,344.8z M669.1,364.7c1.8-1.8,2.7-4.3,2.7-7.5
			c0-3.2-0.9-5.8-2.7-7.6s-4.3-2.7-7.7-2.7h-4.7v20.6h4.7C664.7,367.4,667.3,366.6,669.1,364.7L669.1,364.7z"/>
		<path class="st0" d="M681.8,339.5c-0.5-0.5-0.7-1-0.7-1.7c0-0.7,0.2-1.2,0.7-1.7c0.5-0.5,1.1-0.7,1.7-0.7s1.2,0.2,1.7,0.7
			c0.5,0.5,0.7,1,0.7,1.7c0,0.7-0.2,1.2-0.7,1.7c-0.5,0.5-1.1,0.7-1.7,0.7S682.3,339.9,681.8,339.5z M685.9,343v28.2h-4.7V343H685.9
			z"/>
		<path class="st0" d="M713.2,343l-9.4,17.9v10.2h-4.7V361l-9.5-17.9h5.2l6.6,13.8l6.6-13.8H713.2L713.2,343z"/>
		<path class="st0" d="M721.6,346.8v8.3h9.8v3.8h-9.8v8.6h11.1v3.8h-15.8V343h15.8v3.8L721.6,346.8L721.6,346.8z"/>
		<path class="st0" d="M742.7,370.5c-1.5-0.7-2.7-1.6-3.6-2.8c-0.9-1.2-1.3-2.6-1.3-4.2h5c0.1,1.2,0.6,2.2,1.5,3
			c0.9,0.8,2.1,1.2,3.7,1.2c1.6,0,2.9-0.4,3.8-1.2s1.4-1.7,1.4-3c0-1-0.3-1.7-0.8-2.3c-0.6-0.6-1.2-1-2.1-1.4c-0.8-0.3-2-0.7-3.4-1
			c-1.9-0.5-3.4-1-4.5-1.5c-1.2-0.5-2.2-1.3-3-2.3c-0.8-1-1.2-2.5-1.2-4.2c0-1.6,0.4-3,1.2-4.2s2-2.2,3.4-2.8c1.5-0.7,3.2-1,5.2-1
			c2.8,0,5,0.7,6.8,2s2.7,3.2,2.9,5.6h-5.2c-0.1-1-0.6-1.9-1.5-2.6c-0.9-0.7-2.1-1.1-3.6-1.1c-1.3,0-2.5,0.3-3.3,1
			c-0.9,0.7-1.3,1.7-1.3,2.9c0,0.9,0.2,1.6,0.8,2.1c0.5,0.5,1.2,1,2,1.3c0.8,0.3,2,0.7,3.4,1c1.9,0.5,3.4,1,4.6,1.5
			c1.2,0.5,2.2,1.3,3,2.4c0.8,1.1,1.2,2.5,1.2,4.3c0,1.4-0.4,2.8-1.2,4c-0.8,1.3-1.9,2.3-3.4,3.1c-1.5,0.8-3.2,1.2-5.3,1.2
			C746,371.5,744.2,371.1,742.7,370.5L742.7,370.5z"/>
		<path class="st0" d="M763.8,339.5c-0.5-0.5-0.7-1-0.7-1.7c0-0.7,0.2-1.2,0.7-1.7c0.5-0.5,1.1-0.7,1.7-0.7s1.2,0.2,1.7,0.7
			c0.5,0.5,0.7,1,0.7,1.7c0,0.7-0.2,1.2-0.7,1.7c-0.5,0.5-1.1,0.7-1.7,0.7S764.3,339.9,763.8,339.5z M767.9,343v28.2h-4.7V343H767.9
			z"/>
	</g>
	<path class="st1" d="M73.9,297.3c0-61.3,50.4-111,112.6-111"/>
	<path class="st1" d="M186.5,408.3c-62.2,0-112.6-49.7-112.6-111"/>
	<path class="st0" d="M181.3,203.4l0.2,7c0,0.4,0.1,0.6,0.2,0.8l-4.6,0.1c0,0,0.1-0.2,0.1-0.4c0-0.1,0-0.2,0-0.5l-0.4-15.5
		c0,0,0-0.3,0-0.4c0-0.1,0-0.2-0.1-0.4l4.6-0.1c-0.1,0.2-0.1,0.5-0.1,0.8l0.2,6.5l5.8-0.2l-0.2-6.5c0-0.3-0.1-0.6-0.2-0.8l4.6-0.1
		c0,0-0.1,0.2-0.1,0.4c0,0.1,0,0.2,0,0.5l0.4,15.5c0,0.4,0.1,0.6,0.2,0.8l-4.6,0.1l0.1-0.4c0,0,0-0.2,0-0.5l-0.2-7
		C187.1,203.2,181.3,203.4,181.3,203.4z"/>
	<path class="st0" d="M197.5,194.6l4.6,0.6c0,0-0.1,0.2-0.2,0.4c0,0.1,0,0.2-0.1,0.5l-2,15.3c0,0.4,0,0.6,0,0.9l-4.6-0.6
		c0.1-0.2,0.2-0.5,0.2-0.8l2-15.3c0,0,0-0.3,0-0.4C197.5,194.9,197.5,194.8,197.5,194.6L197.5,194.6z M200.4,190.7
		c1.4,0.2,2,0.7,1.9,1.7c-0.1,1-0.9,1.4-2.3,1.2c-0.7-0.1-1.2-0.3-1.5-0.6c-0.4-0.3-0.5-0.7-0.4-1.1c0-0.4,0.3-0.7,0.7-1
		C199.1,190.7,199.7,190.6,200.4,190.7z"/>
	<path class="st0" d="M210.3,205.4l0.8,0.2c0.7,0.2,1.2,0.2,1.7-0.1c0.8-0.4,1.3-1.1,1.6-2.2c0.3-1,0.3-1.7,0-2.4
		c-0.3-0.7-0.8-1.2-1.5-1.4l-0.8-0.2L210.3,205.4L210.3,205.4z M209.9,206.7l-2,6.6c0,0-0.1,0.3-0.1,0.4c0,0.1,0,0.3,0,0.5l-4.4-1.3
		c0,0,0.1-0.2,0.2-0.3c0-0.1,0.1-0.2,0.2-0.5l4.4-14.8c0.1-0.3,0.1-0.6,0.1-0.8l6.6,2c1.3,0.4,2.4,1,3.1,1.9c1,1.2,1.2,2.6,0.7,4.2
		c-0.3,1-0.9,1.9-1.7,2.4c-0.7,0.5-1.7,0.7-3.1,0.7l2.2,8.2c0.1,0.4,0.2,0.7,0.3,0.9l-5-1.5c0-0.3,0-0.6,0-0.8L209.9,206.7
		L209.9,206.7z"/>
	<path class="st0" d="M161.2,196.8l9.8-1.8l0.4,1.9c-0.2,0-0.6,0-0.9,0l-4.6,0.8l1.1,5.6l4.5-0.8c0.4-0.1,0.7-0.2,0.9-0.2l0.4,2
		c-0.2,0-0.6,0-0.9,0l-4.6,0.8l1.1,5.7l4.4-0.8c0.4-0.1,0.7-0.2,1-0.3l0.4,2l-9.8,1.8c0-0.2,0-0.5,0-0.8l-2.9-15.2
		C161.4,197.1,161.3,196.8,161.2,196.8L161.2,196.8z"/>
	<path class="st0" d="M150.6,217.6l-0.4-2.8c0.7,0.2,1.2,0.4,1.5,0.4c1.1,0.2,2.2,0.2,3.2-0.2c0.8-0.3,1.4-0.8,1.6-1.4
		c0.3-0.6,0.3-1.2,0-1.8c-0.3-0.7-0.8-1.1-1.6-1.3c-0.2,0-0.5-0.1-1-0.1c-0.5,0-1.1-0.1-1.9-0.1c-1.7,0-2.9-0.2-3.7-0.7
		c-0.9-0.5-1.6-1.3-2-2.3c-0.4-1-0.5-1.9-0.3-2.9c0.4-1.9,1.7-3.3,4.1-4.3c1.4-0.6,2.9-0.8,4.5-0.8l0.4,2.6c-1.8-0.4-3.2-0.4-4.2,0
		c-0.6,0.2-1,0.6-1.3,1.1c-0.2,0.5-0.2,1,0,1.6c0.2,0.6,0.6,0.9,1.1,1.1c0.5,0.2,1.6,0.2,3.2,0.2c1.7,0,3,0.2,3.9,0.8
		c0.9,0.5,1.5,1.3,2,2.4c0.4,1,0.5,2.1,0.4,3.1c-0.3,2.1-1.7,3.7-4.2,4.7c-0.9,0.3-1.7,0.6-2.5,0.7S151.7,217.7,150.6,217.6
		L150.6,217.6z M156.1,222.1l-0.5-4l2.6-1l-0.4,4.4C157.8,221.4,156.1,222.1,156.1,222.1z"/>
	<path class="st0" d="M229.9,221.8l1.2,0.7c1.3,0.8,2.5,0.5,3.5-1c1.2-1.7,1-3.1-0.5-4.1l-0.8-0.5
		C233.3,216.9,229.9,221.8,229.9,221.8z M234.3,215.4l0.7,0.5c0.7,0.5,1.3,0.7,1.8,0.6c0.3,0,0.7-0.2,1.1-0.5
		c0.2-0.2,0.4-0.3,0.5-0.5c0.2-0.2,0.3-0.4,0.5-0.6c1-1.5,0.9-2.7-0.5-3.5l-1-0.6L234.3,215.4L234.3,215.4z M234.8,206.6l6.1,4
		c1.2,0.8,2,1.7,2.3,2.7c0.4,1.1,0.1,2.3-0.7,3.5c-0.8,1.2-1.9,1.9-3.2,1.8c-0.4,0-1-0.1-1.7-0.3c0.6,0.6,1,1.2,1.2,1.8
		c0.4,1.2,0.2,2.4-0.6,3.6c-1,1.5-2.3,2.2-3.8,2.2c-1,0-2-0.3-2.9-1l-6.3-4.2c0,0,0.4-0.4,0.6-0.6l8.7-12.8
		C234.6,207.1,234.8,206.8,234.8,206.6L234.8,206.6z"/>
	<path class="st0" d="M138.6,216.9l3.5,5.8c0,0,0.2,0.2,0.2,0.3c0.1,0.1,0.2,0.2,0.3,0.3l-3.9,2.3c0-0.2-0.2-0.5-0.3-0.8l-8.1-13.2
		c0,0-0.2-0.2-0.2-0.4c-0.1-0.1-0.2-0.2-0.3-0.3l3.9-2.3c0,0,0.1,0.3,0.1,0.4c0,0.1,0.1,0.2,0.2,0.4l3.5,5.8l0.5-8.3
		c0-0.2,0-0.5-0.1-0.8l2.8-1.6c-0.1,0.2-0.2,0.6-0.2,1l-0.5,7.8l9.7,5c0.4,0.2,0.7,0.3,0.9,0.4l-4.4,2.7c-0.2-0.2-0.4-0.4-0.6-0.5
		L138.6,216.9L138.6,216.9z"/>
	<path class="st0" d="M249.1,216.9l7.4,6.6l-1.3,1.4c-0.1-0.2-0.3-0.5-0.5-0.7l-3.5-3.1l-3.9,4.3l3.4,3c0.3,0.3,0.5,0.5,0.7,0.6
		l-1.3,1.5c-0.1-0.2-0.3-0.5-0.6-0.7l-3.4-3.1l-4,4.3l3.4,3c0.3,0.2,0.6,0.5,0.8,0.6l-1.4,1.5l-7.4-6.6c0.2-0.1,0.5-0.3,0.7-0.5
		l10.5-11.5C248.9,217.2,249,216.9,249.1,216.9L249.1,216.9z"/>
	<path class="st0" d="M253.1,245.6l-6.3-7.4c0.2-0.1,0.5-0.2,0.7-0.4l12-9.9c0,0,0.2-0.2,0.3-0.3c0.1-0.1,0.2-0.2,0.3-0.4l2.9,3.5
		c0,0-0.2,0.1-0.4,0.2c-0.1,0.1-0.2,0.2-0.4,0.3l-11.2,9.1l2.7,3.2c0.3,0.3,0.5,0.6,0.8,0.7L253.1,245.6L253.1,245.6z"/>
	<path class="st0" d="M118.7,214.1c1-0.9,1.9-1,2.5-0.4c0.7,0.7,0.5,1.5-0.6,2.5c-0.5,0.5-1,0.7-1.5,0.7c-0.5,0.1-0.8,0-1.1-0.4
		c-0.3-0.3-0.4-0.7-0.3-1.2C117.8,215,118.1,214.5,118.7,214.1L118.7,214.1z M114.3,218c1-0.9,1.9-1,2.5-0.4
		c0.7,0.7,0.5,1.5-0.6,2.5c-0.5,0.5-1,0.7-1.5,0.8c-0.5,0.1-0.8,0-1.1-0.4c-0.3-0.3-0.4-0.7-0.3-1.1
		C113.5,218.9,113.8,218.5,114.3,218z M124.4,214.7c0,0,0.1,0.2,0.2,0.4c0,0.1,0.2,0.2,0.3,0.3l7.1,7.7c1,1.1,1.6,2.3,1.7,3.6
		c0.2,2-0.8,4-3,5.9c-1.3,1.2-2.5,1.9-3.7,2.1c-2.2,0.5-4.2-0.2-5.9-2l-7-7.6c0,0-0.2-0.2-0.3-0.3s-0.2-0.2-0.4-0.2l3.4-3
		c0.1,0.2,0.2,0.5,0.5,0.7l7.2,7.8c0.7,0.8,1.5,1.2,2.3,1.4c1.2,0.2,2.2-0.2,3.3-1.1c1-0.9,1.5-1.9,1.6-2.9c0-1-0.4-2.1-1.4-3.1
		l-6.9-7.6c-0.2-0.3-0.5-0.5-0.7-0.5L124.4,214.7L124.4,214.7z"/>
	<path class="st0" d="M268.9,238.3l5.2,8.4l-1.7,1c-0.1-0.2-0.2-0.5-0.3-0.8l-2.5-3.9l-4.9,3l2.4,3.9c0.2,0.3,0.4,0.6,0.6,0.7
		l-1.7,1c-0.1-0.2-0.2-0.5-0.4-0.8l-2.4-3.9l-5.1,3.1l2.4,3.8c0.2,0.3,0.4,0.6,0.6,0.8l-1.8,1.1l-5.2-8.4c0.2,0,0.5-0.2,0.8-0.3
		l13.3-8.1C268.6,238.6,268.8,238.4,268.9,238.3L268.9,238.3z"/>
	<path class="st0" d="M113.1,240.7l-9.9-2.1c-0.4-0.1-0.7-0.1-0.9-0.1l3-3.9h0.1c0,0,0.4,0.2,0.7,0.3l6.9,1.5l-3.3-6.3
		c-0.1-0.2-0.3-0.4-0.5-0.6l1.5-1.9c0,0,0.2,0.5,0.4,0.8l4.7,8.8l5.3,3.9c0.3,0.2,0.5,0.3,0.7,0.4l-2.8,3.6c0,0-0.3-0.4-0.6-0.6
		L113.1,240.7L113.1,240.7z"/>
	<path class="st0" d="M264.3,261.6l0.5,1.4c0.5,1.2,1.3,2,2.4,2.4c1.5,0.5,3.4,0.3,5.5-0.5c2.2-0.8,3.7-2,4.4-3.7
		c0.4-1,0.4-2.1,0-3.2l-0.5-1.2C276.7,256.9,264.3,261.6,264.3,261.6z M277,252.1l2.2,5.8c0.8,2.1,1,4.1,0.6,5.8
		c-0.3,1.3-1,2.5-2.1,3.4c-1,0.9-2,1.5-3.3,2c-2,0.7-3.9,0.9-5.6,0.5c-1.3-0.2-2.4-0.8-3.3-1.6c-1-0.8-1.6-1.8-2.1-3l-2.6-6.9
		c0.3,0,0.5-0.1,0.8-0.2l14.6-5.4C276.6,252.4,276.9,252.3,277,252.1z"/>
	<path class="st0" d="M95,242.5c0.7-1.2,1.4-1.6,2.2-1.2c0.9,0.5,1,1.3,0.2,2.6c-0.3,0.6-0.7,1-1.1,1.2c-0.4,0.2-0.8,0.2-1.2,0
		c-0.4-0.2-0.6-0.6-0.7-1C94.5,243.7,94.6,243.2,95,242.5L95,242.5z M92.1,247.7c0.7-1.2,1.4-1.6,2.2-1.2c0.9,0.5,1,1.3,0.2,2.5
		c-0.3,0.6-0.7,1-1.1,1.2c-0.4,0.2-0.8,0.2-1.2,0c-0.4-0.2-0.6-0.5-0.6-1C91.7,248.8,91.8,248.3,92.1,247.7L92.1,247.7z
		 M100.6,241.2c0,0,0.2,0.2,0.3,0.3c0.1,0.1,0.2,0.2,0.4,0.2l9.2,5c1.3,0.7,2.2,1.7,2.8,2.8c0.8,1.8,0.5,4-0.9,6.6
		c-0.8,1.5-1.7,2.6-2.8,3.2c-1.9,1.2-4,1.1-6.2-0.1l-9.1-5c0,0-0.2-0.1-0.4-0.2c-0.1,0-0.2-0.1-0.5-0.1l2.2-4c0,0,0.4,0.4,0.7,0.5
		l9.3,5.1c1,0.5,1.8,0.7,2.7,0.6c1.2-0.2,2.1-0.9,2.8-2.1c0.6-1.2,0.8-2.2,0.5-3.2c-0.3-1-1.1-1.8-2.3-2.5l-9.1-4.9
		c-0.3-0.2-0.6-0.3-0.8-0.3L100.6,241.2L100.6,241.2z"/>
	<path class="st0" d="M283.5,271.2l1,4.4c0,0-0.3,0-0.4,0s-0.2,0-0.5,0.1l-15.2,3.3c-0.4,0.1-0.6,0.2-0.8,0.3l-1-4.4
		c0.2,0,0.5,0,0.9,0l15.2-3.3c0,0,0.3-0.1,0.4-0.1C283.2,271.4,283.3,271.4,283.5,271.2z M288.2,272.6c0.3,1.4,0,2.1-0.9,2.3
		c-1,0.2-1.6-0.4-1.9-1.7c-0.2-0.7-0.1-1.2,0-1.6c0.1-0.4,0.5-0.7,0.9-0.8c0.4-0.1,0.8,0,1.1,0.3
		C287.7,271.4,287.9,271.9,288.2,272.6L288.2,272.6z"/>
	<path class="st0" d="M103.7,271.8l0.4-1.3c0.5-1.5-0.2-2.5-2-3c-2-0.7-3.3-0.1-3.9,1.6l-0.3,0.9L103.7,271.8z M96.2,269.5l0.3-0.8
		c0.2-0.8,0.3-1.4,0.1-1.8c-0.1-0.3-0.4-0.5-0.8-0.9c-0.2-0.1-0.4-0.3-0.6-0.4c-0.2-0.1-0.5-0.2-0.7-0.3c-1.7-0.5-2.8-0.1-3.3,1.4
		l-0.4,1.1L96.2,269.5L96.2,269.5z M87.6,271.3l2.3-6.9c0.5-1.3,1.1-2.3,2-2.9c1-0.7,2.2-0.7,3.6-0.3c1.5,0.5,2.3,1.3,2.6,2.5
		c0.1,0.4,0.1,1,0.1,1.7c0.4-0.7,0.9-1.3,1.4-1.7c1-0.7,2.3-0.8,3.7-0.4c1.7,0.5,2.8,1.6,3.2,3c0.3,1,0.2,2-0.1,3.1l-2.3,7.1
		c0,0-0.5-0.3-0.8-0.4l-14.9-4.8C88,271.4,87.8,271.3,87.6,271.3L87.6,271.3z"/>
	<path class="st0" d="M276,284.4l8.6-5.2c0.3-0.2,0.5-0.4,0.7-0.5l0.6,4.8h-0.1c0,0-0.4,0.1-0.7,0.3l-6.1,3.6l6.8,2.2
		c0.2,0.1,0.5,0.1,0.8,0.1l0.3,2.3c0,0-0.4-0.2-0.8-0.3l-9.6-3.1l-6.6,0.8c-0.4,0-0.6,0.1-0.8,0.2l-0.5-4.5c0.2,0,0.5,0.1,0.9,0
		L276,284.4L276,284.4z"/>
	<path class="st0" d="M98.4,289.7c0-0.7,0.3-1.2,0.7-1.6c0.4-0.4,0.9-0.6,1.6-0.5c0.6,0,1.1,0.3,1.5,0.7c0.4,0.5,0.5,1,0.5,1.7
		c0,0.7-0.3,1.2-0.7,1.6c-0.5,0.4-1,0.5-1.6,0.5c-0.6,0-1.1-0.3-1.5-0.7C98.4,290.9,98.3,290.4,98.4,289.7z"/>
	<path class="st0" d="M286.7,295.9l-0.2,9.9h-2c0.1-0.3,0.1-0.6,0.2-0.9l0.1-4.6l-5.8-0.1l-0.1,4.5c0,0.4,0,0.7,0,1h-2
		c0.1-0.3,0.1-0.6,0.2-1l0.1-4.6l-5.9-0.1l-0.1,4.4c0,0.4,0,0.7,0.1,1h-2.1l0.2-9.9c0.2,0.1,0.5,0.1,0.8,0.2l15.7,0.4
		C286.3,296,286.6,296,286.7,295.9L286.7,295.9z"/>
	<path class="st0" d="M270,307.2l2.6,1.2c-0.6,0.5-1,0.9-1.2,1.1c-0.8,0.8-1.3,1.7-1.5,2.7c-0.2,0.9,0,1.5,0.3,2.1
		c0.3,0.5,0.9,0.9,1.5,1c0.7,0.1,1.4-0.1,2-0.7c0.1-0.1,0.3-0.4,0.6-0.7c0.3-0.3,0.6-0.9,1-1.5c0.9-1.4,1.8-2.3,2.6-2.7
		c1-0.5,2-0.6,3-0.5c1,0.2,1.9,0.6,2.6,1.3c1.4,1.3,1.9,3.2,1.5,5.7c-0.2,1.5-0.8,2.9-1.7,4.2l-2.4-1c1.3-1.3,2-2.4,2.2-3.5
		c0.1-0.6,0-1.2-0.3-1.7c-0.3-0.5-0.7-0.8-1.3-0.9c-0.6-0.1-1.1,0-1.5,0.4c-0.4,0.3-1,1.2-1.9,2.6c-0.9,1.5-1.8,2.4-2.7,2.8
		c-0.9,0.5-2,0.5-3,0.4c-1.1-0.2-2.1-0.6-2.9-1.3c-1.6-1.4-2.2-3.4-1.7-6c0.2-0.9,0.4-1.7,0.7-2.5C268.9,309,269.4,308.1,270,307.2z
		"/>
	<path class="st0" d="M85.3,294.6l3-0.1c-0.7,0.9-1.1,1.6-1.4,2.2c-0.2,0.6-0.4,1.3-0.3,2c0,1.5,0.7,2.7,2,3.5
		c1.3,0.8,2.9,1.2,5.1,1.2c2.2,0,3.9-0.6,5.2-1.6c1.2-0.9,1.7-2.1,1.7-3.6c0-0.7-0.2-1.4-0.5-2c-0.2-0.3-0.4-0.6-0.6-1
		c-0.2-0.3-0.5-0.7-0.9-1.1l2.9-0.1c0.4,0.9,0.7,1.7,0.8,2.4c0.2,0.7,0.2,1.6,0.2,2.5c0.1,2.9-0.6,5-2.1,6.5
		c-1.5,1.5-3.8,2.3-6.8,2.4c-2,0-3.5-0.2-4.8-0.9c-2.8-1.4-4.2-4.1-4.3-8C84.6,297.5,84.7,296,85.3,294.6L85.3,294.6z"/>
	<path class="st0" d="M99.3,313.3c-0.1-0.7,0-1.3,0.3-1.7c0.3-0.5,0.7-0.8,1.4-0.9c0.6-0.1,1.1,0,1.6,0.4c0.5,0.4,0.7,0.9,0.9,1.5
		s0,1.3-0.3,1.7s-0.8,0.7-1.4,0.9c-0.6,0.1-1.1,0-1.6-0.4S99.5,314,99.3,313.3z"/>
	<path class="st0" d="M282.6,326.1l-1.4,4.3c0,0-0.2-0.2-0.3-0.2c-0.1,0-0.2-0.1-0.5-0.2l-14.9-4.8c-0.4-0.1-0.6-0.2-0.9-0.1
		l1.4-4.3c0,0,0.5,0.3,0.8,0.4l14.9,4.8c0,0,0.3,0.1,0.4,0.1C282.3,326.1,282.4,326.2,282.6,326.1L282.6,326.1z M286,329.6
		c-0.4,1.3-1.1,1.8-2,1.5c-1-0.3-1.2-1.1-0.7-2.5c0.2-0.7,0.5-1.1,0.9-1.4c0.3-0.3,0.7-0.4,1.2-0.2c0.4,0.1,0.7,0.4,0.8,0.9
		C286.2,328.4,286.2,329,286,329.6L286,329.6z"/>
	<path class="st0" d="M89.5,332.1L86,319.6l2.2-0.6c0,0,0,0.3,0,0.5c0,0.2,0.1,0.3,0.1,0.5l0.9,3.3l13.9-3.7c0,0,0.3-0.1,0.4-0.1
		c0.1,0,0.2-0.1,0.4-0.2l1.2,4.4c0,0-0.3,0-0.4,0s-0.3,0-0.5,0.1l-13.9,3.7l0.9,3.2c0.1,0.3,0.2,0.7,0.4,1L89.5,332.1L89.5,332.1z"
		/>
	<path class="st2" d="M136.4,285.3c-4.8-3.7-5.1-13.1,1.1-17.6c7.4-5.4,15.2-0.6,22.2,6.1h8.1l-3.4-3.9l-1.1-1.1l-1.1-1.1
		c-19.3-19.6-43-2-33.5,17.1c1.4,2.8,3.2,4.2,3.9,5.2c-0.6,0.9-2.5,2.3-3.9,5.2c-9.5,19.2,14.2,36.7,33.5,17.1l1.1-1.1l1.1-1.1
		l3.7-4.2h-8c-7.1,6.9-15,12-22.5,6.4c-6.1-4.5-5.9-13.9-1.1-17.6c4.3-3.3,7.4-4.5,8.1-4.7l0,0C143.8,289.8,140.7,288.6,136.4,285.3
		 M180.7,339c-3.7,4.9-13.1,5.1-17.5-1.1c-5.4-7.4-0.7-15.1,5.9-22v-8.1l-3.6,3.2l-1.1,1.1l-1.1,1.1c-19.6,19.4-2,43.2,17,33.6
		c2.8-1.4,4.2-3.2,5.1-3.9c0.9,0.6,2.3,2.5,5.1,3.9c19.1,9.6,36.6-14.2,17-33.6l-1.1-1.1l-1.1-1.1l-4.1-3.7l-0.1,7.9
		c6.8,7.1,11.9,15,6.4,22.6c-4.5,6.2-13.8,5.9-17.5,1.1c-3.3-4.3-4.5-7.4-4.7-8.1l0,0C185.2,331.5,184,334.6,180.7,339L180.7,339z
		 M233.7,294.5c4.8,3.7,5.1,13.1-1.1,17.6c-7.4,5.4-15.1,0.7-22-5.9l-8,0.1l3.2,3.5l1.1,1.1l1.1,1.1c19.3,19.6,43,2,33.5-17.1
		c-1.4-2.8-3.2-4.2-3.9-5.2c0.6-0.9,2.5-2.3,3.9-5.2c9.5-19.2-14.2-36.7-33.5-17.1l-1.1,1.1l-1.1,1.1l-3.7,4.2h8
		c7.1-6.9,15-11.9,22.5-6.4c6.1,4.5,5.9,13.9,1.1,17.6c-4.3,3.3-7.4,4.5-8.1,4.7l0,0C226.3,289.9,229.5,291.1,233.7,294.5
		L233.7,294.5z M189.9,240.8c3.7-4.9,13.1-5.1,17.5,1.1c5.5,7.6,0.5,15.5-6.3,22.5v8l4.1-3.7l1.1-1.1l1.1-1.1
		c19.6-19.4,2-43.2-17-33.6c-2.8,1.4-4.2,3.2-5.1,3.9c-0.9-0.6-2.3-2.5-5.1-3.9c-19.1-9.6-36.6,14.2-17,33.6l1.1,1.1l1.1,1.1
		l3.9,3.5v-8.1c-6.6-7-11.5-14.8-6.1-22.3c4.5-6.2,13.8-5.9,17.5-1.1c3.3,4.3,4.5,7.4,4.7,8.1l0,0
		C185.5,248.2,186.7,245.1,189.9,240.8L189.9,240.8z"/>
	<path class="st3" d="M185.3,275.7h-0.5l-1.2,4.3l0.7,2.4c-0.7,0.1-1.4,0.2-2,0.5l-0.5-2.4l-3-3.3h-0.1l-0.3,0.2h-0.1l1,4.4l1.7,1.8
		c-0.6,0.4-1.1,0.9-1.6,1.4l-1.6-1.9l-4.2-1.5v0.1l-0.2,0.3v0.1l2.8,3.4l2.3,0.8c-0.3,0.6-0.6,1.3-0.7,2l-2.3-1l-4.4,0.6v0.5
		l-0.1,0.1l4.2,1.7l2.5-0.3v0.2c0,0.7,0.1,1.3,0.2,1.9l-2.5,0.2l-3.7,2.6v0.1l0.2,0.4v0.1l4.5-0.4l2-1.5c0.3,0.6,0.7,1.2,1.2,1.7
		l-2.1,1.3l-2,4h0l0.3,0.3h0l3.7-2.4l1.1-2.2c0.6,0.4,1.2,0.7,1.9,1l-1.2,2.2v4.5h0.1l0.4,0.1h0.1l2.2-3.9v-2.5
		c0.3,0,0.7,0.1,1.1,0.1c0.3,0,0.7,0,1,0l-0.1,2.5l2.1,3.9h0.1l0.4-0.1h0.1l0.1-4.5l-1.2-2.2c0.7-0.2,1.3-0.5,1.9-1l1.1,2.2l3.7,2.5
		h0l0.3-0.3h0l-2-4.1l-2-1.4c0.5-0.5,0.9-1.1,1.2-1.7l2,1.5l4.4,0.5v-0.1l0.2-0.4v-0.1l-3.6-2.7l-2.5-0.3c0.2-0.7,0.3-1.4,0.3-2.1
		l0,0l2.5,0.4l4.2-1.6v-0.5l-4.5-0.7l-2.3,0.9c-0.2-0.7-0.4-1.4-0.7-2l2.3-0.8l2.9-3.4v-0.1l-0.2-0.3v-0.1l-4.3,1.4l-1.6,1.9
		c-0.5-0.5-1-1-1.5-1.4l1.7-1.8l1.1-4.4H192l-0.3-0.2h-0.1l-3.1,3.2l-0.6,2.4c-0.7-0.3-1.4-0.5-2.2-0.6l0.7-2.4L185.3,275.7l-0.1,0
		L185.3,275.7z"/>
	<polygon class="st0" points="184.8,220.4 186.1,223.6 189.8,223.4 187,225.5 188.3,228.7 185.2,226.8 182.3,228.9 183.3,225.7 
		180.1,223.8 183.8,223.7 	"/>
	<polygon class="st0" points="152.3,228.5 154.9,230.7 158.1,228.9 156.6,232.1 159.2,234.3 155.6,234 154.1,237.3 153.4,233.9 
		149.7,233.7 153,231.9 	"/>
	<polygon class="st0" points="127.2,250.8 130.6,251.5 132.6,248.4 132.7,252 136,252.7 132.7,254.2 132.8,257.7 130.7,255.1 
		127.3,256.6 129.3,253.5 	"/>
	<polygon class="st0" points="115.3,282.2 118.6,281.3 118.9,277.6 120.7,280.8 124,279.8 121.7,282.7 123.4,285.8 120.3,284.4 
		118.1,287.3 118.4,283.6 	"/>
	<polygon class="st0" points="119.2,315.6 121.7,313.3 120.3,309.8 123.3,311.8 125.8,309.5 125.1,313 128.1,315 124.7,315.2 
		124,318.8 122.6,315.4 	"/>
	<polygon class="st0" points="138.1,343.4 139.3,340.1 136.4,337.7 140,338.1 141.1,334.8 142.2,338.3 145.7,338.7 142.8,340.5 
		143.9,344 141,341.6 	"/>
	<polygon class="st0" points="164.7,358.8 164.2,355.4 160.5,354.6 163.9,353.3 163.3,349.8 165.9,352.5 169.2,351.1 167.4,354.1 
		170,356.6 166.4,355.9 	"/>
	<polygon class="st0" points="205.1,360.2 203.1,357.4 199.5,358.4 201.8,355.7 199.8,352.8 203.3,354 205.6,351.2 205.4,354.7 
		208.9,355.8 205.3,356.8 	"/>
	<polygon class="st0" points="231,344.1 228,342.6 225.3,345.1 226.1,341.6 223,340.1 226.5,339.5 227.3,336 228.8,339.1 
		232.3,338.5 229.6,341 	"/>
	<polygon class="st0" points="250.4,316.6 246.9,316.7 245.7,320.2 244.8,316.7 241.3,316.8 244.2,314.6 243.3,311.2 246,313.3 
		248.9,311 247.7,314.6 	"/>
	<polygon class="st0" points="254.8,283.3 251.8,285 252.3,288.6 249.9,286 246.9,287.6 248.4,284.4 246.1,281.7 249.4,282.3 
		250.9,279 251.5,282.7 	"/>
	<polygon class="st0" points="243.4,251.7 241.5,254.6 243.6,257.6 240.3,256.4 238.4,259.2 238.2,255.6 234.9,254.4 238.1,253.4 
		238,249.7 240.1,252.7 	"/>
	<polygon class="st0" points="218.7,229 218.3,232.4 221.6,234.1 218.1,234.6 217.7,238 215.9,234.8 212.3,235.3 214.8,232.9 
		213,229.7 216.2,231.4 	"/>
	<path class="st0" d="M192.6,364.2h2.5v-3.9L192.6,364.2z M195,365.1h-3.2v-1c0,0,0.2-0.2,0.2-0.4l2.7-4.4c0,0,0.2-0.3,0.2-0.4h1.4
		c0,0,0,0.1,0,0.2c0,0,0,0.1,0,0.2v4.7h0.6c0,0,0.3,0,0.4,0v1c0,0-0.2,0-0.2,0s-0.1,0-0.2,0h-0.5v1.9c0,0,0,0.3,0,0.4H195
		c0,0,0-0.2,0-0.4L195,365.1L195,365.1z M188.5,360.2l-1.5,0.7v-0.5c0,0,0-0.2,0-0.4l2.9-1.1c0,0,0,0.1,0,0.2c0,0,0,0.1,0,0.2v7.7
		c0,0,0,0.2,0,0.2s0,0.1,0,0.2h-1.5c0,0,0-0.2,0-0.4V360.2L188.5,360.2z M183.1,359.6c-0.3,0-0.5,0.1-0.8,0.4
		c-0.2,0.2-0.3,0.5-0.4,1s-0.1,1.2-0.1,2.2c0,0.3,0,0.6,0,1c0,0.3,0,0.7,0,1c0,0.2,0,0.4,0,0.5c0,0.1,0.1,0.3,0.1,0.5
		c0.1,0.2,0.2,0.5,0.4,0.6s0.4,0.2,0.7,0.2c0.4,0,0.7-0.2,0.9-0.5c0.2-0.2,0.3-0.5,0.3-1c0-0.5,0.1-1.2,0.1-2.3c0-0.8,0-1.4,0-1.7
		c0-0.2,0-0.3,0-0.5c0-0.2-0.1-0.3-0.1-0.5c-0.1-0.2-0.2-0.5-0.5-0.6C183.5,359.7,183.3,359.6,183.1,359.6L183.1,359.6z
		 M183.1,358.9c0.7,0,1.3,0.2,1.7,0.6c0.3,0.3,0.6,0.8,0.7,1.3c0.2,0.6,0.2,1.3,0.2,2.3c0,0.8,0,1.5-0.1,1.9
		c-0.1,0.5-0.2,0.9-0.4,1.2c-0.2,0.4-0.5,0.7-0.9,1s-0.8,0.3-1.4,0.3c-1,0-1.7-0.4-2.2-1.2c-0.2-0.4-0.3-0.8-0.4-1.2
		c-0.1-0.5-0.1-1.1-0.1-1.9c0-0.8,0-1.5,0.1-2c0.1-0.5,0.2-0.8,0.4-1.2c0.2-0.4,0.5-0.7,0.8-0.9c0.2-0.1,0.4-0.2,0.6-0.2
		S182.8,358.9,183.1,358.9z M174.3,366.5c0.8-0.7,1.4-1.3,1.8-2c0.9-1.2,1.4-2.4,1.4-3.4c0-0.5-0.1-0.8-0.4-1.1
		c-0.2-0.3-0.6-0.4-1.1-0.4c-0.5,0-1,0.2-1.5,0.5l-0.1-0.8c0.5-0.2,0.8-0.2,1-0.3c0.2,0,0.5-0.1,0.9-0.1c0.7,0,1.3,0.2,1.7,0.5
		c0.2,0.2,0.4,0.4,0.5,0.7c0.1,0.3,0.2,0.6,0.2,0.9c0,0.7-0.3,1.5-0.9,2.4c-0.5,0.9-1.2,1.7-1.9,2.3l-0.5,0.5l-0.2,0.2h3
		c0.3,0,0.5,0,0.6,0v1h-4.7c0,0,0-0.2,0-0.4L174.3,366.5L174.3,366.5z"/>
	<polygon class="st0" points="160.6,289.9 146.3,274.7 169,274.7 174.1,280 159.8,280 169.2,289.9 159.8,299.8 174.1,299.8 
		169,305.1 146.3,305.1 	"/>
	<polygon class="st0" points="185,314.4 169.9,328.9 169.9,306.1 175.2,300.9 175.2,315.2 185,305.8 194.9,315.2 194.9,300.9 
		200.3,306.1 200.3,328.9 	"/>
	<polygon class="st0" points="209.5,289.9 223.8,305.1 201.1,305.1 196,299.8 210.3,299.8 200.9,289.9 210.3,280 196,280 
		201.1,274.7 223.8,274.7 	"/>
	<polygon class="st0" points="185,265.4 200.3,251 200.3,273.8 194.9,278.9 194.9,264.6 185,274 175.2,264.6 175.2,278.9 
		169.9,273.8 169.9,251 	"/>
	<path class="st0" d="M226.1,387.2l4.2-2.2l-5.3-5L226.1,387.2z M226.5,389.3l0.7,4.6c0,0.3,0.1,0.5,0.2,0.6l0.1,0.2l-2.2,1.2
		c0-0.3,0-0.6,0-1l-2.6-17.5c0,0,0-0.2-0.1-0.3c0-0.1-0.1-0.2-0.1-0.3l-0.1-0.2l3.5-1.8c0,0,0.2,0.4,0.5,0.6l13.3,12
		c0.2,0.2,0.5,0.4,0.8,0.5l-4.7,2.5l-0.1-0.2c0,0-0.2-0.3-0.4-0.5l-3.4-3.2L226.5,389.3L226.5,389.3z M218.1,398.4l-10.1,3
		c0-0.2,0-0.6-0.1-0.9l-4.8-15.9c0,0-0.1-0.3-0.1-0.4c0-0.1-0.1-0.2-0.2-0.4l4.7-1.4c0,0,0,0.3,0,0.4c0,0.1,0,0.3,0.1,0.5l4.4,14.7
		l4.4-1.3c0.5-0.1,0.8-0.3,1-0.5L218.1,398.4L218.1,398.4z M196.5,385.4l0.2,3c-1.7-1.1-3.4-1.6-5.1-1.5c-1.6,0.1-2.9,0.8-3.8,2
		c-0.5,0.7-0.9,1.5-1.1,2.5c-0.1,0.5-0.2,1-0.2,1.6s0,1.2,0,1.9c0.2,2.4,0.8,4.2,1.8,5.4c0.4,0.5,0.9,0.8,1.6,1.1
		c0.6,0.2,1.3,0.4,2,0.3c0.7,0,1.3-0.3,1.8-0.7l-0.5-6.9c0-0.4-0.1-0.7-0.2-0.9l4.7-0.4c0,0-0.1,0.3-0.1,0.5c0,0.1,0,0.3,0,0.5
		l0.5,7c0,0.5,0.1,0.9,0.3,1.2c-1.7,0.7-2.9,1.1-3.7,1.3c-0.8,0.2-1.8,0.4-3,0.5c-2,0.2-3.5,0-4.8-0.5c-1.6-0.7-2.9-1.7-3.8-3.2
		c-0.8-1.3-1.3-2.9-1.5-4.8c-0.2-3.2,0.6-5.8,2.5-7.7c1.6-1.6,3.8-2.5,6.6-2.7C192.7,384.7,194.6,384.9,196.5,385.4L196.5,385.4z
		 M192.4,379.5l2.2-0.2c0,0.4,0,0.7-0.1,1.1c-0.1,0.4-0.3,0.7-0.5,1c-0.9,1.2-2.2,1.9-3.9,2c-1.3,0.1-2.4-0.2-3.2-0.7
		c-0.8-0.6-1.4-1.5-1.7-2.7l2.2-0.2c0.1,0.5,0.4,1,0.9,1.2c0.5,0.3,1,0.4,1.7,0.4c0.7,0,1.2-0.2,1.7-0.6
		C192,380.5,192.3,380.1,192.4,379.5L192.4,379.5z M177.2,385.4c0,0-0.2,0.3-0.2,0.4c0,0.1-0.1,0.3-0.1,0.5l-2.2,10.9
		c-0.3,1.6-1,2.8-2,3.7c-1.6,1.5-4,1.9-7.1,1.2c-1.8-0.4-3.2-1-4.2-1.8c-1.8-1.5-2.5-3.7-2-6.2l2.2-10.8c0,0,0-0.3,0.1-0.4
		c0-0.1,0-0.3,0-0.5l4.9,1c-0.2,0.2-0.2,0.5-0.3,0.9l-2.2,11.1c-0.2,1.1-0.1,2.1,0.2,2.9c0.5,1.1,1.6,1.8,3.1,2.1
		c1.4,0.3,2.6,0.1,3.5-0.5c0.9-0.6,1.5-1.7,1.8-3.1l2.2-10.7c0.1-0.4,0.1-0.7,0-0.9L177.2,385.4L177.2,385.4z M138.5,379.4l-6.3,9.6
		l-0.1,0.2c0,0-0.1,0.2-0.1,0.2c0,0.1,0,0.2-0.1,0.4l-2.3-1c0.2-0.2,0.5-0.5,0.6-0.7l9.3-14l0.2-0.4l0.2-0.4l3.8,1.7l-0.1,0.2
		c0,0-0.1,0.3-0.2,0.6l-1.4,13l9.1-9.6c0,0,0.3-0.4,0.4-0.5l0.1-0.2l3.7,1.7l-0.2,0.3c0,0-0.1,0.3-0.1,0.4l-4.9,16.1
		c-0.1,0.2-0.1,0.5-0.1,0.9l-4.5-2l0.2-0.4l0.1-0.4l3.5-11.1l-8.4,8.8c0,0-0.2,0.2-0.2,0.3c-0.1,0.1-0.1,0.2-0.2,0.2l-0.1,0.2
		l-3.4-1.5l0.1-0.2c0,0,0.1-0.3,0.1-0.6L138.5,379.4L138.5,379.4z"/>
</g>
</svg>
