<?xml version="1.0" encoding="utf-8"?>
<!-- Generator: Adobe Illustrator 25.0.1, SVG Export Plug-In . SVG Version: 6.00 Build 0)  -->
<svg version="1.0" id="Layer_1" xmlns="http://www.w3.org/2000/svg" xmlns:xlink="http://www.w3.org/1999/xlink" x="0px" y="0px"
	 viewBox="0 0 778.7 554.7" style="enable-background:new 0 0 778.7 554.7;" xml:space="preserve">
<style type="text/css">
	.st0{fill-rule:evenodd;clip-rule:evenodd;fill:#34335C;}
	.st1{fill-rule:evenodd;clip-rule:evenodd;fill:#004370;}
	.st2{fill-rule:evenodd;clip-rule:evenodd;fill:#332E2B;}
	.st3{fill-rule:evenodd;clip-rule:evenodd;fill:#FBFBFB;}
	.st4{fill-rule:evenodd;clip-rule:evenodd;fill:#302A27;}
	.st5{fill-rule:evenodd;clip-rule:evenodd;fill:#1E1E19;}
	.st6{fill-rule:evenodd;clip-rule:evenodd;fill:#21201C;}
	.st7{fill-rule:evenodd;clip-rule:evenodd;fill:#FDE900;}
	.st8{fill-rule:evenodd;clip-rule:evenodd;fill:#017650;}
	.st9{fill-rule:evenodd;clip-rule:evenodd;fill:#33325B;}
	.st10{fill-rule:evenodd;clip-rule:evenodd;fill:#C10E2E;}
</style>
<g>
	<path class="st0" d="M382.9,280.9c0-27.2,0-54.4,0-81.7c0-0.5,0-0.9,0-1.4c-0.1-0.8,0.4-1,1.1-1c0.9,0,1,0.4,1,1.1
		c0,0.4,0,0.8,0,1.2c0,54.4,0,108.9,0,163.3c0,0.5,0,0.9,0,1.4c0,0.7-0.4,0.9-1,0.9c-0.6,0-1.1,0-1.1-0.8c0-0.5,0-1.1,0-1.6
		C382.9,335.2,382.9,308.1,382.9,280.9z"/>
	<g>
		<g>
			<g>
				<path class="st1" d="M452,338c0,0.9,0,1.8,0,2.7c0,0.3-0.1,0.4-0.4,0.4c-0.4,0-0.9-0.2-1.1,0.1c-0.3,0.3-0.1,0.8-0.1,1.1
					c0,3.9,0,7.7,0,11.6c0,0.4-0.1,0.5-0.5,0.5c-1.1,0-2.3,0-3.4,0c-0.3,0-0.5-0.1-0.6-0.4c-0.9-3-1.9-6-2.9-9
					c0-0.1-0.1-0.2-0.2-0.4c0,0.1,0,0.3,0,0.4c0,1.9,0,3.8,0,5.7c0,0.3,0.1,0.4,0.4,0.4c0.8,0,0.8,0,0.8,0.8c0,0.7,0,1.4,0,2.1
					c0,0.3-0.1,0.3-0.3,0.3c-1.7,0-3.5,0-5.2,0c-0.2,0-0.3,0-0.3-0.3c0-0.9,0-1.7,0-2.6c0-0.2,0.1-0.3,0.3-0.3c0.3,0,0.6,0,0.9,0
					c0.2,0,0.3-0.1,0.3-0.3c0-3.1,0-6.3,0-9.4c0-0.3-0.1-0.3-0.3-0.3c-0.4,0-0.9,0.2-1.1-0.1c-0.3-0.3-0.1-0.8-0.1-1.2
					c0-0.6,0-1.3,0-1.9c1.9,0,3.8,0,5.8,0c1,3.3,2.1,6.6,3.1,9.8c0,0,0.1,0,0.1,0c0-0.2,0-0.3,0-0.5c0-1.8,0-3.6,0-5.4
					c0-0.8,0-0.8-0.8-0.8c-0.3,0-0.4-0.1-0.4-0.4c0-0.9,0.1-1.8,0-2.7C448,338,450,338,452,338z"/>
				<path class="st1" d="M521.5,338c0,0.9,0,1.8,0,2.7c0,0.3-0.1,0.4-0.4,0.4c-0.4,0-0.9-0.2-1.1,0.1c-0.3,0.3-0.1,0.8-0.1,1.1
					c0,2.8,0,5.6,0,8.4c0,0.4,0.1,0.5,0.4,0.4c1.1,0,1.1,0,1.1,1.1c0,0.6,0,1.2,0,1.7c0,0.2,0,0.4-0.3,0.4c-1.9,0-3.8,0-5.6,0
					c-0.3,0-0.3-0.1-0.3-0.3c0-0.9,0-1.7,0-2.6c0-0.2,0.1-0.3,0.3-0.3c0.3,0,0.6,0,1,0c0.2,0,0.3-0.1,0.3-0.3c0-1.1,0-2.2,0-3.3
					c0-0.2-0.1-0.3-0.3-0.3c-1.2,0-2.5,0-3.7,0c-0.2,0-0.3,0.1-0.3,0.3c0,1.1,0,2.2,0,3.3c0,0.2,0.1,0.3,0.3,0.3c0.3,0,0.7,0,1,0
					c0.2,0,0.3,0.1,0.3,0.3c0,0.9,0,1.8,0,2.7c0,0.2-0.1,0.2-0.3,0.2c-1.9,0-3.8,0-5.7,0c-0.2,0-0.3-0.1-0.3-0.3c0-0.9,0-1.7,0-2.6
					c0-0.2,0.1-0.3,0.3-0.3c0,0,0,0,0,0c0.4,0,0.9,0.2,1.1-0.1c0.3-0.2,0.1-0.8,0.1-1.1c0-2.8,0-5.6,0-8.4c0-0.4-0.1-0.5-0.5-0.5
					c-0.3,0-0.8,0.1-1-0.1c-0.2-0.2-0.1-0.7-0.1-1c0-0.7,0-1.3,0-2c2.1,0,4.2,0,6.2,0c0,0.6,0,1.2,0,1.8c0,0.4,0.2,1-0.1,1.2
					c-0.2,0.2-0.8,0.1-1.1,0.1c-0.3,0-0.3,0.1-0.3,0.3c0,0.8,0,1.6,0,2.4c0,0.2,0,0.3,0.3,0.3c1.2,0,2.4,0,3.7,0
					c0.2,0,0.3-0.1,0.3-0.3c0-0.5,0-1.1,0-1.6c0-1.1,0-1.1-1.1-1.1c0,0-0.1,0-0.1,0c-0.2,0-0.3-0.1-0.3-0.3c0-0.9,0-1.9,0-2.8
					C517.4,338,519.4,338,521.5,338z"/>
				<path class="st1" d="M475.1,338c0.7,0.7,1.3,1.4,2,2.1c0.2,0.2,0.3,0.4,0.3,0.6c0,1.5,0,2.9,0,4.4c0,0.6-0.1,1-0.6,1.3
					c-0.4,0.3-0.4,0.5,0,0.8c0.5,0.3,0.6,0.8,0.6,1.4c-0.1,0.7,0,1.5,0,2.2c0,0.2,0.1,0.3,0.3,0.3c0.1,0,0.1,0,0.2,0c1,0,1,0,1,1
					c0,0.6,0,1.2,0,1.9c0,0.2-0.1,0.3-0.3,0.3c-1.3,0-2.7,0-4,0c-0.3,0-0.3-0.1-0.3-0.4c0-1.8,0-3.5,0-5.3c0-0.4-0.1-0.5-0.5-0.5
					c-1.1,0-2.2,0-3.3,0c-0.3,0-0.4,0-0.4,0.4c0,0.7,0,1.5,0,2.2c0,0.2,0,0.4,0.3,0.3c0.4,0,0.9-0.2,1.1,0.1
					c0.3,0.3,0.1,0.8,0.1,1.2c0,0.5,0,1,0,1.6c0,0.2,0,0.3-0.3,0.3c-1.9,0-3.8,0-5.7,0c-0.2,0-0.3,0-0.3-0.2c0-0.9,0-1.8,0-2.7
					c0-0.2,0.1-0.3,0.3-0.3c0.3,0,0.6,0,1,0c0.2,0,0.3-0.1,0.3-0.3c0-3.2,0-6.3,0-9.5c0-0.2-0.1-0.3-0.3-0.3c0,0-0.1,0-0.1,0
					c-0.4,0-0.9,0.1-1.1-0.1c-0.3-0.2-0.1-0.7-0.1-1.1c0-0.6,0-1.3,0-1.9C468.6,338,471.8,338,475.1,338z M472.1,345.2
					c0.6,0,1.2,0,1.8,0c0.2,0,0.3-0.1,0.3-0.3c0-1.1,0-2.3,0-3.4c0-0.2-0.1-0.3-0.3-0.3c-1.2,0-2.4,0-3.6,0c-0.3,0-0.3,0.1-0.3,0.3
					c0,1.1,0,2.3,0,3.4c0,0.2,0.1,0.3,0.3,0.3C470.9,345.2,471.5,345.2,472.1,345.2z"/>
				<path class="st1" d="M490,338c0,0.2,0.2,0.3,0.3,0.4c0.6,0.7,1.6,1.2,1.9,2c0.3,0.8,0.1,1.8,0.1,2.8c0,0.2,0,0.4,0,0.6
					c0,0.3-0.1,0.5-0.3,0.7c-0.3,0.3-0.6,0.6-0.9,0.9c-0.1,0.1-0.2,0.2,0,0.4c0,0,0,0,0.1,0.1c1,0.7,1.3,1.7,1.2,2.9
					c-0.1,1,0,1.9,0,2.9c0,0.3-0.1,0.5-0.3,0.6c-0.6,0.6-1.3,1.3-1.9,1.9c-0.2,0.2-0.3,0.2-0.6,0.2c-3,0-6,0-9,0
					c-0.3,0-0.4-0.1-0.4-0.4c0-0.8,0-1.6,0-2.5c0-0.3,0.1-0.3,0.3-0.3c0.4,0,0.9,0.2,1.1-0.1c0.3-0.3,0.1-0.8,0.1-1.2
					c0-2.8,0-5.6,0-8.4c0-0.3-0.1-0.5-0.4-0.4c-0.4,0-0.8,0.1-1.1-0.1c-0.3-0.2-0.1-0.7-0.1-1.1c0-0.7,0-1.3,0-2
					C483.5,338,486.7,338,490,338z M487,351.2c0.6,0,1.2,0,1.8,0c0.2,0,0.3-0.1,0.3-0.3c0-1.1,0-2.1,0-3.2c0-0.3-0.1-0.3-0.3-0.3
					c-1.2,0-2.4,0-3.7,0c-0.3,0-0.3,0.1-0.3,0.3c0,1,0,2.1,0,3.1c0,0.3,0.1,0.3,0.3,0.3C485.8,351.2,486.4,351.2,487,351.2z
					 M487,344.5c0.6,0,1.2,0,1.8,0c0.3,0,0.4-0.1,0.4-0.4c0-0.9,0-1.7,0-2.6c0-0.3-0.1-0.4-0.4-0.4c-1.2,0-2.4,0-3.6,0
					c-0.2,0-0.4,0-0.4,0.3c0,0.9,0,1.8,0,2.7c0,0.3,0.1,0.3,0.4,0.3C485.8,344.5,486.4,344.5,487,344.5z"/>
				<path class="st1" d="M502.6,338c0.1,1,0.4,1.9,0.6,2.9c0.7,3.3,1.4,6.6,2.1,10c0.1,0.3,0.2,0.4,0.5,0.4c0.9,0,0.9,0,0.9,0.9
					c0,0.6,0,1.3,0,1.9c0,0.3,0,0.4-0.3,0.4c-1.6,0-3.2,0-4.8,0c-0.3,0-0.3-0.1-0.3-0.4c0-0.8,0-1.6,0-2.4c0-0.3,0.1-0.4,0.4-0.4
					c0.5,0,0.5,0,0.4-0.5c-0.1-0.5-0.3-0.7-0.8-0.6c-0.8,0-1.6,0-2.5,0c-0.4,0-0.5,0.1-0.6,0.5c-0.1,0.7-0.1,0.7,0.6,0.7
					c0.3,0,0.4,0.1,0.4,0.4c0,0.8,0,1.6,0,2.5c0,0.3-0.1,0.4-0.4,0.4c-1.6,0-3.2,0-4.9,0c-0.2,0-0.4,0-0.3-0.3c0-0.9,0-1.7,0-2.6
					c0-0.3,0.1-0.3,0.3-0.3c0.9,0,0.9,0,1.1-1c0.8-4,1.7-8,2.5-12c0-0.1,0-0.1,0-0.2C499.3,338,500.9,338,502.6,338z M500.1,341.9
					C500.1,341.9,500,341.9,500.1,341.9c-0.4,1.6-0.7,3.2-1.1,4.7c-0.1,0.2,0,0.3,0.2,0.3c0.5,0,1,0,1.6,0c0.3,0,0.3-0.1,0.3-0.3
					c-0.1-0.6-0.2-1.2-0.4-1.7C500.5,343.9,500.3,342.9,500.1,341.9z"/>
				<path class="st1" d="M464.1,338c-0.1,1.2,0,2.4,0,3.7c0,0.7,0,0.7-0.7,0.7c-0.7,0-1.4,0-2.1,0c-0.3,0-0.4,0-0.4-0.3
					c0-0.9,0-0.9-0.9-0.9c-0.5,0-1.1,0-1.6,0c-0.3,0-0.4,0-0.4,0.3c0,0.8,0,1.7,0,2.5c0,0.3,0.1,0.3,0.4,0.3c0.8,0,1.6,0,2.4,0
					c0.3,0,0.3,0.1,0.3,0.3c0,0.8,0,1.6,0,2.5c0,0.3-0.1,0.4-0.4,0.4c-0.8,0-1.5,0-2.3,0c-0.3,0-0.4,0-0.4,0.4c0,1,0,2,0,3
					c0,0.2,0,0.4,0.3,0.3c0.8,0,1.6,0,2.3,0c0.2,0,0.3-0.1,0.3-0.3c0-0.9,0-0.9,0.9-0.9c0.6,0,1.3,0,1.9,0c0.3,0,0.3,0.1,0.3,0.3
					c0,1.3,0,2.5,0,3.8c0,0.3-0.1,0.3-0.3,0.3c-3.4,0-6.7,0-10.1,0c-0.3,0-0.3-0.1-0.3-0.3c0-0.9,0-1.7,0-2.6c0-0.2,0.1-0.3,0.3-0.3
					c0,0,0,0,0,0c0.4,0,0.9,0.1,1.1-0.1c0.3-0.2,0.1-0.7,0.1-1.1c0-2.8,0-5.6,0-8.4c0-0.4-0.1-0.5-0.5-0.5c-0.3,0-0.8,0.1-1-0.1
					c-0.2-0.2-0.1-0.7-0.1-1c0-0.7,0-1.3,0-2C456.9,338,460.5,338,464.1,338z"/>
				<path class="st1" d="M437,338c-0.1,1.2,0,2.3,0,3.5c0,0.2,0,0.3,0,0.5c0,0.4-0.1,0.5-0.4,0.5c-0.8,0-1.6,0-2.3,0
					c-0.3,0-0.4,0-0.4-0.3c0-0.9,0-0.9-0.9-0.9c-0.5,0-1.1,0-1.6,0c-0.3,0-0.4,0.1-0.4,0.4c0,0.8,0,1.7,0,2.5c0,0.3,0.1,0.3,0.3,0.3
					c0.8,0,1.6,0,2.4,0c0.3,0,0.4,0,0.4,0.3c0,0.8,0,1.7,0,2.5c0,0.3-0.1,0.4-0.4,0.4c-0.8,0-1.6,0-2.4,0c-0.3,0-0.3,0.1-0.3,0.3
					c0,1,0,2,0,3.1c0,0.3,0.1,0.3,0.3,0.3c0.8,0,1.5,0,2.2,0c0.3,0,0.4-0.1,0.4-0.4c0-0.9,0-0.9,0.9-0.9c0.6,0,1.3,0,1.9,0
					c0.3,0,0.4,0.1,0.4,0.4c0,1.2,0,2.5,0,3.7c0,0.3-0.1,0.4-0.4,0.4c-3.3,0-6.7,0-10,0c-0.3,0-0.4,0-0.4-0.3c0-0.8,0-1.7,0-2.5
					c0-0.3,0.1-0.4,0.3-0.3c0.3,0,0.6,0,0.9,0c0.2,0,0.3,0,0.3-0.3c0-3.2,0-6.3,0-9.5c0-0.2-0.1-0.3-0.3-0.3c0,0-0.1,0-0.1,0
					c-0.4,0-0.9,0.1-1.1-0.1c-0.3-0.2-0.1-0.7-0.1-1.1c0-0.6,0-1.3,0-1.9C429.8,338,433.4,338,437,338z"/>
				<path class="st1" d="M545.4,338c0,1.3,0,2.7,0,4c0,0.3-0.1,0.4-0.4,0.4c-0.8,0-1.6,0-2.5,0c-0.2,0-0.3-0.1-0.3-0.3
					c0-0.9,0-0.9-1-0.9c-0.5,0-1.1,0-1.6,0c-0.2,0-0.4,0-0.4,0.3c0,0.9,0,1.7,0,2.6c0,0.3,0.1,0.3,0.4,0.3c0.8,0,1.6,0,2.4,0
					c0.3,0,0.3,0.1,0.3,0.3c0,0.8,0,1.7,0,2.5c0,0.3-0.1,0.3-0.3,0.3c-0.8,0-1.6,0-2.4,0c-0.2,0-0.4,0.1-0.3,0.3c0,1,0,2,0,3.1
					c0,0.2,0,0.3,0.3,0.3c0.8,0,1.6,0,2.4,0c0.2,0,0.3-0.1,0.3-0.3c0-0.3-0.1-0.7,0.1-0.9c0.2-0.2,0.6-0.1,0.9-0.1
					c0.6,0,1.2,0,1.8,0c0.2,0,0.3,0,0.3,0.3c0,1.3,0,2.5,0,3.8c0,0.2-0.1,0.3-0.3,0.3c-3.4,0-6.8,0-10.2,0c-0.3,0-0.3-0.1-0.3-0.3
					c0-0.8,0-1.7,0-2.5c0-0.3,0.1-0.4,0.4-0.4c0.4,0,0.9,0.1,1.1-0.1c0.2-0.2,0.1-0.7,0.1-1.1c0-2.8,0-5.6,0-8.4
					c0-0.4-0.1-0.5-0.4-0.5c-1.1,0-1.1,0-1.1-1.1c0-0.7,0-1.3,0-2C538.2,338,541.8,338,545.4,338z"/>
				<path class="st1" d="M531.1,338c0.6,0.8,1.3,1.4,2,2c0.2,0.2,0.3,0.5,0.3,0.8c0,0.8,0,1.7,0,2.5c0,0.2,0,0.4-0.3,0.4
					c-0.8,0-1.7,0-2.5,0c-0.2,0-0.3-0.1-0.3-0.3c0-0.6,0-1.2,0-1.9c0-0.3,0-0.4-0.3-0.4c-1.2,0-2.4,0-3.6,0c-0.3,0-0.3,0.1-0.3,0.3
					c0,3.1,0,6.3,0,9.4c0,0.3,0.1,0.4,0.4,0.4c1.2,0,2.4,0,3.6,0c0.3,0,0.4-0.1,0.3-0.4c0-1,0-2,0-3c0-0.3,0.1-0.4,0.3-0.4
					c0.8,0,1.6,0,2.4,0c0.3,0,0.4,0,0.4,0.3c0,1.3,0,2.6,0,3.8c0,0.2-0.1,0.3-0.2,0.5c-0.6,0.5-1.1,1.1-1.6,1.7
					c-0.4,0.4-0.8,0.7-1.3,0.6c-0.3-0.1-0.6,0.1-0.7,0.4c-0.3,0.9-0.9,1.2-1.8,1.1c-0.5-0.1-1,0-1.6,0c0.2-0.5,0.4-0.9,0.7-1.4
					c-0.3,0-0.6,0-0.8,0c-0.5,0.1-0.9-0.1-1.3-0.5c-0.5-0.6-1.1-1.1-1.6-1.6c-0.2-0.2-0.2-0.3-0.2-0.6c0-3.7,0-7.3,0-11
					c0-0.2,0.1-0.4,0.2-0.6c0.7-0.7,1.4-1.4,2.1-2.1C527.1,338,529.1,338,531.1,338z"/>
				<path class="st1" d="M424.9,338c-0.1,1.2,0,2.4,0,3.7c0,0.7,0,0.7-0.7,0.7c-0.7,0-1.4,0-2.1,0c-0.3,0-0.4,0-0.4-0.3
					c0-0.9,0-0.9-0.9-0.9c-0.6,0-1.1,0-1.7,0c-0.2,0-0.3,0.1-0.3,0.3c0,0.9,0,1.7,0,2.6c0,0.3,0.1,0.3,0.3,0.3c0.8,0,1.6,0,2.4,0
					c0.3,0,0.4,0.1,0.4,0.4c0,0.8,0,1.6,0,2.4c0,0.3-0.1,0.4-0.4,0.4c-0.8,0-1.6,0-2.4,0c-0.3,0-0.3,0.1-0.3,0.3c0,1,0,2,0,3.1
					c0,0.3,0.1,0.3,0.3,0.3c0.5,0,0.9,0,1.4,0c0.2,0,0.3,0.1,0.3,0.3c0,0.9,0,1.7,0,2.6c0,0.2,0,0.3-0.3,0.3c-2,0-4.1,0-6.1,0
					c-0.3,0-0.3-0.1-0.3-0.3c0-0.9,0-1.7,0-2.6c0-0.2,0.1-0.4,0.3-0.3c0,0,0,0,0,0c0.4,0,0.9,0.1,1.1-0.1c0.3-0.3,0.1-0.8,0.1-1.2
					c0-2.8,0-5.6,0-8.4c0-0.4-0.1-0.5-0.5-0.5c-0.3,0-0.8,0.1-1-0.1c-0.2-0.2-0.1-0.7-0.1-1c0-0.7,0-1.3,0-2
					C417.7,338,421.3,338,424.9,338z"/>
			</g>
			<g>
				<path class="st1" d="M568.7,345.3c0,2,0,4.1,0,6.1c0,0.3,0.1,0.3,0.3,0.3c0.9,0,0.9,0,0.9,0.9c0,0.6,0,1.3,0,1.9
					c0,0.2-0.1,0.3-0.3,0.3c-1.7,0-3.5,0-5.2,0c-0.2,0-0.3-0.1-0.3-0.3c0-0.8,0-1.7,0-2.5c0-0.2,0.1-0.3,0.3-0.3c0,0,0,0,0,0
					c0.4,0,0.9,0.1,1.1-0.1c0.3-0.2,0.1-0.7,0.1-1.1c0-2.8,0-5.5,0-8.3c0-0.4-0.1-0.5-0.5-0.5c-1.1,0-1.1,0-1.1-1.1
					c0-0.5,0-1.1,0-1.6c0-0.4,0.1-0.5,0.5-0.5c1.6,0,3.3,0,4.9,0c0.3,0,0.4,0.1,0.5,0.4c0.9,2.8,1.8,5.6,2.7,8.4
					c0.1,0.3,0.2,0.7,0.4,1c0-1.3,0-2.6,0-3.9c0-0.8,0-1.7,0-2.5c0-0.3-0.1-0.4-0.4-0.4c-0.8,0-0.8,0-0.8-0.8c0-0.6,0-1.3,0-1.9
					c0-0.3,0.1-0.3,0.3-0.3c1.7,0,3.5,0,5.2,0c0.3,0,0.3,0.1,0.3,0.3c0,0.8,0,1.6,0,2.5c0,0.2-0.1,0.3-0.3,0.3c0,0-0.1,0-0.1,0
					c-0.4,0-0.9-0.2-1.1,0.1c-0.2,0.2-0.1,0.7-0.1,1c0,3.8,0,7.6,0,11.5c0,0.4-0.1,0.5-0.5,0.5c-1.1,0-2.3,0-3.4,0
					c-0.4,0-0.5-0.1-0.6-0.4c-0.9-2.8-1.8-5.7-2.8-8.5C568.9,345.7,568.8,345.5,568.7,345.3C568.7,345.3,568.7,345.3,568.7,345.3z"
					/>
				<path class="st1" d="M557.8,346.4c0-1.4,0-2.8,0-4.1c0-0.3-0.1-0.5-0.4-0.4c-0.8,0-0.8,0-0.8-0.8c0-0.6,0-1.3,0-1.9
					c0-0.3,0.1-0.4,0.3-0.4c1.8,0,3.7,0,5.5,0c0.3,0,0.4,0.1,0.4,0.4c0,0.8,0,1.6,0,2.4c0,0.3-0.1,0.3-0.4,0.3c-0.9,0-0.9,0-0.9,0.9
					c0,2.8,0,5.7,0,8.5c0,0.3-0.1,0.6-0.2,0.8c-0.5,0.8-1,1.7-1.5,2.5c-0.1,0.2-0.3,0.3-0.5,0.3c-2.2,0-4.4,0-6.5,0
					c-0.3,0-0.4-0.1-0.6-0.3c-0.6-0.9-1.2-1.7-1.8-2.6c-0.2-0.2-0.2-0.5-0.2-0.7c0-3,0-6,0-9c0-0.4-0.1-0.5-0.5-0.5
					c-0.1,0-0.3,0-0.4,0c-0.3,0-0.4-0.1-0.4-0.3c0-0.8,0-1.6,0-2.4c0-0.3,0.1-0.4,0.4-0.4c1.8,0,3.7,0,5.5,0c0.3,0,0.3,0.1,0.3,0.4
					c0,0.8,0,1.6,0,2.4c0,0.3-0.1,0.4-0.4,0.4c-0.9,0-0.9,0-0.9,0.9c0,2.6,0,5.2,0,7.8c0,0.3,0.1,0.5,0.4,0.4c1,0,2,0,3.1,0
					c0.3,0,0.4-0.1,0.4-0.4C557.8,349.2,557.8,347.8,557.8,346.4z"/>
				<path class="st1" d="M617.4,338.7c1.5,0,2.9,0,4.4,0c0.3,0,0.5,0.1,0.6,0.3c0.6,0.6,1.2,1.2,1.8,1.8c0.2,0.2,0.3,0.4,0.3,0.7
					c0,1.4,0,2.8,0,4.2c0,0.6-0.1,1.1-0.6,1.4c-0.3,0.2-0.4,0.5,0,0.7c0.5,0.4,0.7,0.9,0.6,1.5c-0.1,0.7,0,1.4,0,2.1
					c0,0.3,0.1,0.4,0.3,0.3c0,0,0,0,0,0c0.4,0,0.8-0.1,1,0.1c0.2,0.2,0.1,0.7,0.1,1.1c0,0.5,0,1,0,1.6c0,0.3-0.1,0.4-0.4,0.4
					c-1.3,0-2.6,0-3.8,0c-0.3,0-0.4-0.1-0.4-0.4c0-1.7,0-3.4,0-5.1c0-0.4-0.1-0.5-0.5-0.5c-1.1,0-2.2,0-3.3,0
					c-0.3,0-0.5,0.1-0.4,0.4c0,0.7,0,1.4,0,2.1c0,0.3,0.1,0.3,0.3,0.3c0.4,0,0.9-0.2,1.1,0.1c0.2,0.3,0.1,0.8,0.1,1.2
					c0,0.5,0,1,0,1.5c0,0.3-0.1,0.4-0.4,0.4c-1.8,0-3.6,0-5.5,0c-0.3,0-0.4-0.1-0.4-0.3c0-0.8,0-1.6,0-2.5c0-0.3,0.1-0.3,0.3-0.3
					c0.4,0,0.9,0.2,1.1-0.1c0.3-0.3,0.1-0.8,0.1-1.2c0-2.7,0-5.4,0-8.2c0-0.4-0.1-0.5-0.5-0.5c-1.1,0-1.1,0-1.1-1.1c0-0.5,0-1,0-1.5
					c0-0.4,0.1-0.5,0.5-0.5C614.5,338.7,615.9,338.7,617.4,338.7z M619.3,341.8c-0.6,0-1.2,0-1.8,0c-0.2,0-0.3,0.1-0.3,0.3
					c0,1.1,0,2.2,0,3.3c0,0.2,0.1,0.3,0.3,0.3c1.2,0,2.4,0,3.5,0c0.2,0,0.3-0.1,0.3-0.3c0-1.1,0-2.2,0-3.3c0-0.3-0.1-0.3-0.3-0.3
					C620.5,341.8,619.9,341.8,619.3,341.8z"/>
				<path class="st1" d="M590.8,341.8c0.7,3.1,1.3,6.2,2,9.3c0,0,0,0,0.1,0c0.7-3.1,1.3-6.2,2-9.3c-0.4,0-0.7,0-1,0
					c-0.3,0-0.3-0.1-0.3-0.3c0-0.8,0-1.6,0-2.4c0-0.3,0.1-0.4,0.4-0.4c1.7,0,3.3,0,5,0c0.3,0,0.3,0.1,0.3,0.3c0,0.8,0,1.5,0,2.3
					c0,0.4-0.1,0.5-0.5,0.5c-0.7,0-0.7,0-0.8,0.7c-0.8,4-1.7,8-2.5,12c-0.1,0.3-0.2,0.4-0.5,0.4c-1.3,0-2.7,0-4,0
					c-0.3,0-0.4-0.1-0.5-0.4c-0.8-4-1.7-8-2.5-12c-0.1-0.5-0.2-0.8-0.8-0.7c-0.4,0.1-0.5-0.1-0.5-0.5c0-0.8,0-1.5,0-2.3
					c0-0.3,0.1-0.4,0.4-0.4c1.7,0,3.4,0,5.1,0c0.3,0,0.3,0.1,0.3,0.3c0,0.8,0,1.6,0,2.5c0,0.3-0.1,0.3-0.3,0.3
					C591.6,341.8,591.3,341.8,590.8,341.8z"/>
				<path class="st1" d="M665.5,354.9c-1.6,0-3.3,0-4.9,0c-0.4,0-0.5-0.1-0.5-0.5c0-0.8,0-1.5,0-2.3c0-0.3,0.1-0.4,0.4-0.4
					c0.4,0,0.9,0.2,1.1-0.1c0.2-0.2,0.1-0.7,0.1-1.1c0-2.8,0-5.5,0-8.3c0-0.4-0.1-0.5-0.5-0.5c-1.1,0-1.1,0-1.1-1.1
					c0-0.5,0-1.1,0-1.6c0-0.4,0.1-0.4,0.4-0.4c3.3,0,6.6,0,9.9,0c0.3,0,0.4,0,0.4,0.4c0,1.2,0,2.4,0,3.6c0,0.3-0.1,0.4-0.4,0.4
					c-0.8,0-1.6,0-2.4,0c-0.3,0-0.4-0.1-0.4-0.4c0-0.9,0-0.9-0.9-0.9c-0.6,0-1.2,0-1.8,0c-0.2,0-0.3,0.1-0.3,0.3c0,0.8,0,1.7,0,2.5
					c0,0.3,0.1,0.3,0.4,0.3c0.8,0,1.6,0,2.4,0c0.3,0,0.4,0.1,0.4,0.4c0,0.8,0,1.6,0,2.4c0,0.3-0.1,0.4-0.4,0.4c-0.8,0-1.5,0-2.3,0
					c-0.3,0-0.4,0.1-0.4,0.4c0,1,0,2,0,3c0,0.3,0.1,0.3,0.3,0.3c0.8,0,1.5,0,2.3,0c0.3,0,0.3-0.1,0.3-0.3c0-0.9,0-0.9,0.9-0.9
					c0.6,0,1.2,0,1.9,0c0.3,0,0.3,0.1,0.3,0.3c0,1.2,0,2.5,0,3.7c0,0.3-0.2,0.4-0.4,0.4C668.8,354.9,667.2,354.9,665.5,354.9z"/>
				<path class="st1" d="M605.8,354.9c-1.6,0-3.3,0-4.9,0c-0.3,0-0.5-0.1-0.4-0.4c0-0.8,0-1.6,0-2.4c0-0.3,0.1-0.4,0.4-0.4
					c0,0,0,0,0,0c0.4,0,0.9,0.2,1.1-0.1c0.2-0.2,0.1-0.7,0.1-1c0-2.8,0-5.5,0-8.3c0-0.4-0.1-0.5-0.5-0.5c-1.1,0-1.1,0-1.1-1.1
					c0-0.6,0-1.1,0-1.7c0-0.3,0.1-0.3,0.3-0.3c3.4,0,6.7,0,10.1,0c0.3,0,0.3,0.1,0.3,0.4c0,1.2,0,2.4,0,3.6c0,0.3-0.1,0.4-0.4,0.4
					c-0.8,0-1.6,0-2.4,0c-0.3,0-0.3-0.1-0.4-0.4c0-0.9,0-0.9-0.9-0.9c-0.6,0-1.1,0-1.7,0c-0.2,0-0.3,0.1-0.3,0.3c0,0.8,0,1.7,0,2.5
					c0,0.3,0.1,0.3,0.4,0.3c0.8,0,1.6,0,2.4,0c0.3,0,0.4,0.1,0.4,0.4c0,0.8,0,1.6,0,2.4c0,0.3-0.1,0.4-0.4,0.4c-0.8,0-1.5,0-2.3,0
					c-0.3,0-0.4,0.1-0.4,0.4c0,1,0,1.9,0,2.9c0,0.3,0.1,0.4,0.4,0.4c0.7,0,1.5,0,2.2,0c0.3,0,0.4-0.1,0.4-0.4c0-0.9,0-0.9,0.9-0.9
					c0.6,0,1.2,0,1.9,0c0.3,0,0.3,0.1,0.3,0.3c0,1.2,0,2.5,0,3.7c0,0.3-0.2,0.4-0.4,0.4C609.2,354.9,607.5,354.9,605.8,354.9z"/>
				<path class="st1" d="M677.4,354.9c-0.8,0-1.6,0-2.5,0c-0.3,0-0.5-0.1-0.7-0.3c-0.6-0.6-1.2-1.3-1.9-1.9
					c-0.1-0.1-0.2-0.3-0.2-0.5c0-0.7,0-1.3,0-2c0-0.3,0.1-0.3,0.3-0.3c0.8,0,1.7,0,2.5,0c0.2,0,0.3,0.1,0.3,0.3c0,0.4,0,0.9,0,1.3
					c0,0.2,0.1,0.3,0.3,0.3c1.2,0,2.4,0,3.6,0c0.3,0,0.3-0.1,0.3-0.3c0-1,0-1.9,0-2.9c0-0.3-0.1-0.4-0.4-0.3c-1.4,0-2.8,0-4.2,0
					c-0.3,0-0.5-0.1-0.7-0.3c-0.6-0.6-1.2-1.2-1.8-1.8c-0.2-0.2-0.3-0.4-0.3-0.7c0-1.3,0-2.6,0-3.9c0-0.3,0.1-0.5,0.3-0.6
					c0.6-0.6,1.2-1.2,1.8-1.8c0.2-0.2,0.4-0.3,0.6-0.3c1.7,0,3.3,0,5,0c0.3,0,0.5,0.1,0.7,0.3c0.6,0.6,1.2,1.2,1.8,1.8
					c0.2,0.2,0.3,0.3,0.2,0.6c0,0.7,0,1.3,0,2c0,0.2,0,0.4-0.3,0.3c-0.8,0-1.7,0-2.5,0c-0.2,0-0.3-0.1-0.3-0.3c0-0.1,0-0.1,0-0.2
					c0-0.5,0.2-1.1-0.1-1.3c-0.3-0.2-0.9-0.1-1.3-0.1c-0.8,0-1.6,0-2.4,0c-0.4,0-0.4,0.1-0.4,0.4c0,0.8,0,1.6,0,2.4
					c0,0.4,0.1,0.5,0.5,0.5c1.4,0,2.8,0,4.2,0c0.3,0,0.5,0.1,0.7,0.3c0.6,0.6,1.2,1.2,1.8,1.8c0.2,0.2,0.2,0.3,0.2,0.6
					c0,1.5,0,3,0,4.5c0,0.2-0.1,0.4-0.2,0.6c-0.6,0.6-1.3,1.2-1.9,1.9c-0.2,0.2-0.4,0.3-0.6,0.2
					C679.1,354.9,678.3,354.9,677.4,354.9z"/>
				<path class="st1" d="M632.6,354.9c-0.9,0-1.7,0-2.6,0c-0.2,0-0.4-0.1-0.6-0.2c-0.6-0.6-1.3-1.3-1.9-1.9
					c-0.1-0.1-0.2-0.3-0.2-0.5c0-0.7,0-1.3,0-2c0-0.3,0.1-0.3,0.3-0.3c0.8,0,1.6,0,2.5,0c0.3,0,0.4,0.1,0.3,0.3c0,0.4,0,0.9,0,1.3
					c0,0.2,0.1,0.3,0.3,0.3c1.2,0,2.5,0,3.7,0c0.3,0,0.3-0.1,0.3-0.4c0-1,0-1.9,0-2.9c0-0.3-0.1-0.4-0.4-0.4c-1.4,0-2.8,0-4.2,0
					c-0.3,0-0.6-0.1-0.8-0.3c-0.6-0.6-1.2-1.2-1.8-1.8c-0.2-0.2-0.2-0.4-0.2-0.6c0-1.3,0-2.7,0-4c0-0.3,0.1-0.5,0.3-0.7
					c0.6-0.6,1.2-1.2,1.8-1.8c0.2-0.2,0.4-0.3,0.6-0.2c1.7,0,3.4,0,5.1,0c0.2,0,0.4,0.1,0.6,0.2c0.6,0.6,1.2,1.2,1.9,1.8
					c0.2,0.2,0.3,0.4,0.3,0.6c0,0.6,0,1.3,0,1.9c0,0.3,0,0.4-0.3,0.4c-0.8,0-1.6,0-2.5,0c-0.3,0-0.3-0.1-0.3-0.3c0-0.4,0-0.8,0-1.2
					c0-0.3-0.1-0.3-0.3-0.3c-1.2,0-2.4,0-3.6,0c-0.3,0-0.3,0.1-0.3,0.4c0,0.8,0,1.7,0,2.5c0,0.3,0.1,0.4,0.4,0.4c1.4,0,2.8,0,4.2,0
					c0.3,0,0.5,0.1,0.7,0.3c0.6,0.6,1.2,1.2,1.8,1.8c0.2,0.2,0.2,0.4,0.2,0.6c0,1.5,0,2.9,0,4.4c0,0.3-0.1,0.5-0.3,0.6
					c-0.6,0.6-1.2,1.2-1.8,1.8c-0.2,0.2-0.3,0.3-0.6,0.2C634.3,354.9,633.4,354.9,632.6,354.9z"/>
				<path class="st1" d="M652.7,338.7c1.9,0,3.8,0,5.7,0c0.3,0,0.4,0.1,0.4,0.4c0,1.3,0,2.6,0,3.9c0,0.3-0.1,0.4-0.4,0.4
					c-0.8,0-1.6,0-2.4,0c-0.3,0-0.4-0.1-0.4-0.4c0-0.1,0-0.2,0-0.2c0-1.1,0-1-1-1.1c-0.4,0-0.4,0.2-0.4,0.4c0,2.4,0,4.9,0,7.3
					c0,0.6,0,1.2,0,1.7c0,0.4,0.1,0.5,0.5,0.5c0.4,0,0.8,0,1.2,0c0.2,0,0.3,0,0.3,0.3c0,0.8,0,1.7,0,2.5c0,0.2-0.1,0.3-0.3,0.3
					c-2.2,0-4.3,0-6.5,0c-0.3,0-0.3-0.1-0.3-0.3c0-0.8,0-1.6,0-2.5c0-0.3,0.1-0.4,0.4-0.3c0.4,0,0.9,0,1.3,0c0.2,0,0.3-0.1,0.3-0.3
					c0-3.1,0-6.2,0-9.3c0-0.2-0.1-0.3-0.3-0.3c-1.1,0-1.1,0-1.1,1c0,0.7,0,0.7-0.7,0.7c-0.7,0-1.4,0-2.1,0c-0.3,0-0.4-0.1-0.4-0.4
					c0-1.3,0-2.7,0-4c0-0.4,0.1-0.4,0.5-0.4C649,338.7,650.9,338.7,652.7,338.7z"/>
				<path class="st1" d="M685.5,346.7c0-1.5,0-3,0-4.5c0-0.3-0.1-0.5-0.4-0.5c-1.1,0-1.1,0-1.1-1.1c0-0.5,0-1.1,0-1.6
					c0-0.3,0.1-0.4,0.4-0.4c1.8,0,3.6,0,5.4,0c0.3,0,0.4,0.1,0.4,0.4c0,0.8,0,1.6,0,2.4c0,0.3-0.1,0.3-0.3,0.3
					c-0.4,0-0.9-0.1-1.1,0.1c-0.3,0.2-0.1,0.7-0.1,1.1c0,2.8,0,5.5,0,8.3c0,0.4,0.1,0.5,0.5,0.5c1,0,1,0,1,1c0,0.6,0,1.1,0,1.7
					c0,0.3-0.1,0.4-0.3,0.4c-1.8,0-3.7,0-5.5,0c-0.3,0-0.3-0.1-0.3-0.3c0-0.8,0-1.7,0-2.5c0-0.2,0.1-0.3,0.3-0.3c0.3,0,0.6,0,0.9,0
					c0.3,0,0.4-0.1,0.4-0.4C685.5,349.8,685.5,348.3,685.5,346.7z"/>
				<path class="st1" d="M642.2,354.9c-0.9,0-1.8,0-2.7,0c-0.3,0-0.4-0.1-0.4-0.4c0-0.8,0-1.6,0-2.4c0-0.3,0.1-0.4,0.4-0.4
					c0.4,0,0.9,0.2,1.1-0.1c0.2-0.3,0.1-0.7,0.1-1.1c0-2.8,0-5.5,0-8.3c0-0.4-0.1-0.5-0.5-0.5c-1,0-1,0-1-1c0-0.6,0-1.1,0-1.7
					c0-0.3,0.1-0.3,0.3-0.3c1.8,0,3.7,0,5.5,0c0.3,0,0.4,0.1,0.4,0.4c0,0.8,0,1.6,0,2.4c0,0.3-0.1,0.4-0.4,0.4
					c-0.4,0-0.9-0.1-1.1,0.1c-0.3,0.3-0.1,0.8-0.1,1.2c0,2.8,0,5.5,0,8.3c0,0.3,0.1,0.4,0.4,0.4c1.1,0,1.1,0,1.1,1.1
					c0,0.5,0,1.1,0,1.6c0,0.3-0.1,0.4-0.4,0.4C644.1,354.9,643.2,354.9,642.2,354.9z"/>
				<path class="st1" d="M582.1,354.9c-0.9,0-1.8,0-2.8,0c-0.3,0-0.4-0.1-0.4-0.4c0-0.8,0-1.6,0-2.5c0-0.3,0.1-0.4,0.3-0.3
					c0,0,0,0,0,0c0.4,0,0.9,0.2,1.1-0.1c0.2-0.2,0.1-0.7,0.1-1.1c0-2.8,0-5.5,0-8.3c0-0.4-0.1-0.5-0.5-0.5c-1.1,0-1.1,0-1.1-1.1
					c0-0.6,0-1.1,0-1.7c0-0.2,0.1-0.3,0.3-0.3c1.9,0,3.7,0,5.6,0c0.2,0,0.3,0.1,0.3,0.3c0,0.9,0,1.7,0,2.6c0,0.2-0.1,0.3-0.3,0.3
					c0,0-0.1,0-0.1,0c-0.4,0-0.9-0.1-1.1,0.1c-0.3,0.2-0.1,0.7-0.1,1.1c0,2.8,0,5.5,0,8.3c0,0.4,0.1,0.5,0.5,0.5
					c1.1,0,1.1,0,1.1,1.1c0,0.5,0,1.1,0,1.6c0,0.3-0.1,0.4-0.4,0.4C583.9,354.9,583,354.9,582.1,354.9z"/>
				<path class="st1" d="M552.1,335.4c0.5,0,1,0,1.5,0c0.3,0,0.4,0,0.4,0.3c0,0.6,0,1.2,0,1.8c0,0.2-0.1,0.3-0.3,0.3c-1,0-2,0-3,0
					c-0.2,0-0.4-0.1-0.3-0.3c0-0.6,0-1.2,0-1.8c0-0.3,0.1-0.3,0.4-0.3C551.1,335.4,551.6,335.4,552.1,335.4z"/>
				<path class="st1" d="M559.7,337.8c-0.5,0-1,0-1.5,0c-0.3,0-0.3-0.1-0.3-0.3c0-0.6,0-1.2,0-1.8c0-0.2,0-0.4,0.3-0.3
					c1,0,2.1,0,3.1,0c0.2,0,0.3,0.1,0.3,0.3c0,0.6,0,1.2,0,1.8c0,0.3-0.1,0.3-0.3,0.3C560.7,337.8,560.2,337.8,559.7,337.8z"/>
				<path class="st1" d="M642.2,337.8c-0.4,0-0.8,0-1.2,0c-0.2,0-0.3-0.1-0.3-0.3c0-0.6,0-1.2,0-1.8c0-0.2,0.1-0.3,0.3-0.3
					c0.9,0,1.7,0,2.6,0c0.3,0,0.3,0.1,0.3,0.3c0,0.6,0,1.2,0,1.8c0,0.3-0.1,0.4-0.4,0.4C643,337.8,642.6,337.8,642.2,337.8z"/>
				<path class="st1" d="M687.1,337.8c-0.4,0-0.8,0-1.2,0c-0.3,0-0.3-0.1-0.3-0.3c0-0.6,0-1.2,0-1.8c0-0.2,0-0.4,0.3-0.3
					c0.9,0,1.7,0,2.6,0c0.2,0,0.3,0,0.3,0.3c0,0.6,0,1.3,0,1.9c0,0.2-0.1,0.3-0.3,0.3C688,337.8,687.5,337.8,687.1,337.8z"/>
				<path class="st1" d="M582.1,337.8c-0.4,0-0.8,0-1.2,0c-0.2,0-0.4,0-0.4-0.3c0-0.6,0-1.2,0-1.9c0-0.2,0.1-0.3,0.3-0.3
					c0.9,0,1.7,0,2.6,0c0.2,0,0.3,0.1,0.3,0.3c0,0.6,0,1.2,0,1.9c0,0.2-0.1,0.3-0.3,0.3C582.9,337.8,582.5,337.8,582.1,337.8z"/>
			</g>
		</g>
	</g>
	<g>
		<path class="st2" d="M86.1,263.8c1.7-4.3,1.7-8.9,2.5-13.3c9.8-52,53.6-95.6,105.8-105c44.1-7.9,83.4,2.6,116.5,32.9
			c31.6,29,46.1,65.6,43.1,108.5c-4.2,60.5-47.5,109.6-106.7,122C174,424.2,101.3,375.2,88.1,301.6c-0.6-3.6-0.6-7.3-2-10.8
			C86.1,281.8,86.1,272.8,86.1,263.8z M350.7,277.3c0-71.5-58.5-130.3-129.5-130.5c-72.8-0.1-129.8,57.9-131.3,127.6
			c-1.5,72.4,56.2,131.9,128,133.1C290.7,408.9,350.3,350.6,350.7,277.3z"/>
		<path class="st3" d="M350.7,277.3c-0.3,73.2-60,131.6-132.8,130.3c-71.8-1.2-129.5-60.7-128-133.1
			c1.4-69.7,58.4-127.8,131.3-127.6C292.2,147,350.7,205.8,350.7,277.3z M281.5,172c-1.4-0.4-2.2,0.1-3,1.4
			c-3,5.3-6.1,10.5-9.1,15.7c-0.5,0.8-1.4,1.6,0.2,2.6c1.5,0.9,2,0.2,2.6-1c3.1-5.4,6.1-10.7,9.3-16
			C282.1,173.7,282.1,172.9,281.5,172c0.1-0.2,0.2-0.5,0.6-0.3c1.9,0.7,2.1-1,2.5-2c0.5-1.4-1.1-1.6-1.9-2c-1.6-0.7-1.4,1.1-2,1.7
			C279.2,170.8,282.2,170.8,281.5,172z M312.3,357c-0.2,1.5,0,2.9,1.6,3.7c1.3,0.6,1.9-0.8,2.1-1.4c0.7-2.6-1.4-2.6-3.1-2.9
			c-0.1-0.8-0.4-1.5-1.1-2.1c-4.9-4.1-9.7-8.3-14.5-12.5c-0.9-0.7-1.4-1-2.3,0c-0.9,1.1-0.7,1.7,0.3,2.5c4.8,4.1,9.6,8.1,14.2,12.4
			C310.6,357.7,311.3,357.3,312.3,357z M168.3,365.3c-1.6,0.4-2.8,1.5-4,2.5c-1.8,1.5-3.2,1.6-4.9-0.1c-1.2-1.2-2.8-2.1-4.7-3.6
			c0.8,2.5,1.2,4.2,1.9,5.9c0.8,1.9,0.3,3.1-1.4,4.2c-1.5,0.9-3.1,1.7-4.6,3.9c7.3-1.9,10.3,1.3,11,8.1c0.9-7.1,4.4-9.9,11.4-8
			c-2.2-2-4.8-3.2-5.9-5.2c-1.3-2.4,1.5-4.8,1.6-7.5c0.1-0.2,0.2-0.3,0.3-0.5c0,0-0.1-0.2-0.2-0.2
			C168.5,365,168.4,365.2,168.3,365.3z M132.2,277.2c-0.1,48.5,39.3,88.1,87.8,88.1c48.6,0,87.1-38.5,88.3-85.7
			c1.3-50.4-39.3-90.4-88.1-90.4C171.7,189.3,132.3,228.5,132.2,277.2z M132,231c0-4.6-4.5-7.5-8.6-5.9c-0.7,0.3-1.2,1.5-2.1-0.2
			c-2.7-4.9-7.6-4.9-10.4,0c-1.3,2.3-2.3,4.8-3.5,7.2c-0.7,1.4-0.4,2,1,2.7c5.7,2.6,11.4,5.3,17.1,7.8c0.5,0.2,1.3,1.2,1.8-0.1
			C129.1,238.6,131.5,235,132,231z M320.7,235c0.3,0.3,0.6,0.5,0.8,0.7c2.7,2.5,5.5,2.8,8.1,1.1c2.6-1.7,3.3-4.2,1.9-7.6
			c-1.3-3.2-2.8-6.2-4.1-9.3c-0.5-1.2-1.2-1.3-2.2-0.8c-5.8,2.7-11.6,5.4-17.4,8.1c-1.1,0.5-1.5,0.9-0.9,2.1
			c0.6,1.5,1.4,1.3,2.5,0.7c1.9-1,3.8-1.8,5.8-2.7c0.6-0.2,1.2-1.1,1.8,0.1c1.1,2.3,2.5,4.6,0.8,7.2c-1.2,1.8-2.2,3.6-3.3,5.4
			c-1.6,2.5-1.6,2.5,0.5,5.4C317.1,242.1,319.4,238.9,320.7,235z M254.8,166.4c0.4,1.7,0.7,2.7,0.9,3.6c1.2,5,2.5,9.9,3.6,14.9
			c0.3,1.6,1.4,2.1,2.6,2.3c1.4,0.2,1.2-1.2,1.5-2c2.1-5.6,4.2-11.2,6.3-16.8c0.4-1.1,0.9-2-0.9-2.7c-1.9-0.7-1.7,0.8-2,1.6
			c-1.7,4.4-3.3,8.9-5.1,13.8c-0.4-1.2-0.7-1.9-0.9-2.6c-1.2-5-2.5-9.9-3.6-14.9c-0.4-1.7-1.1-2.8-2.8-3c-1.8-0.2-1.4,1.6-1.8,2.5
			c-2.1,5.3-4,10.6-5.9,15.9c-0.4,1-1.6,2.3,0.6,3c2.2,0.7,2-1.2,2.3-2.1C251.5,175.6,253,171.3,254.8,166.4z M114.3,251.7
			c-0.1-0.6-0.2-1-0.3-1.4c-0.8-3.6-2.6-5.2-5.8-5.3c-3.3-0.1-5.1,1.3-6.1,5c-0.8,3.2-1.4,6.5-2.1,9.7c-0.2,1-0.5,1.9,1,2.1
			c6.4,1.3,12.8,2.6,19.1,3.9c1,0.2,1.6,0,1.8-1.1c0.2-1.1,0-1.8-1.3-2c-2.1-0.4-4.2-0.8-6.3-1.3c-0.8-0.2-1.7-0.1-1.6-1.4
			c0.3-2.6,0.9-5.1,3.8-6.2c2-0.8,3.9-1.7,5.9-2.3c2.3-0.7,3-2,2.6-4.5C121.4,248.1,117.7,249.3,114.3,251.7z M117.8,298.2
			c-1,1.2-1.5,1.8-2,2.4c-3.3,3.8-6.6,7.6-10,11.3c-1.1,1.2-1.5,2.3-0.9,3.7c0.8,1.8,2,0.5,3,0.2c5.7-1.4,11.4-3,17.1-4.4
			c1.3-0.3,1.9-0.6,1.6-2.1c-0.4-1.7-1.4-1.1-2.4-0.9c-4.5,1.2-9.1,2.3-13.7,3.5c0-1.3,0.9-1.8,1.5-2.5c3.4-3.9,6.8-7.7,10.3-11.5
			c1.1-1.2,0.8-2.4,0.3-3.5c-0.6-1.2-1.7-0.3-2.5-0.1c-5.6,1.4-11.2,2.8-16.7,4.4c-0.9,0.3-2.9-0.2-2.4,2.1c0.5,2.3,1.9,1.1,2.9,0.9
			C108.3,300.7,112.8,299.5,117.8,298.2z M192.3,168.9c-2.6,0-1.4-2.5-2-3.7c-0.5-1-1-2.5,1.1-2.9c3-0.5,6-1.3,9.1-1.9
			c1.1-0.2,2.2-0.3,1.8-2c-0.3-1.4-1.1-1.2-2.2-0.9c-4,1-8.1,1.9-12.2,2.7c-1.6,0.3-1.8,1-1.5,2.4c1.4,6,2.7,12.1,4,18.1
			c0.3,1.5,0.9,1.9,2.4,1.5c4.1-1,8.3-1.9,12.5-2.8c1-0.2,2.1-0.3,1.7-2c-0.5-1.8-1.6-1-2.5-0.8c-2.9,0.6-5.9,1.1-8.7,2
			c-2,0.6-2.8,0.1-3-1.8c-0.1-0.9-0.3-1.9-0.6-2.8c-0.6-1.7,0.2-2.3,1.7-2.6c2.6-0.5,5.2-1,7.8-1.7c0.9-0.2,2.3,0,1.8-1.8
			c-0.4-1.6-1.5-1.2-2.5-1C198.2,167.5,195.4,168.2,192.3,168.9z M123.4,333.5c-0.7,1-2.1,1.2-3,2c-1.9,1.4-3,1.1-4-1.2
			c-1.1-2.5-2.6-4.9-3.8-7.4c-0.5-1-0.8-1.9-2.3-1.1c-1.5,0.8-0.7,1.5-0.3,2.3c1.9,3.7,3.9,7.3,5.8,11c0.6,1.2,1.1,1.8,2.6,1
			c5.5-3,11.1-5.9,16.6-8.9c0.9-0.5,1.7-0.8,1-2.1c-2.2-4.1-4.4-8.3-6.6-12.4c-0.5-1-1-1.1-2-0.6c-1.1,0.6-1,1.1-0.5,2
			c1.2,2.1,2.3,4.3,3.4,6.5c2.3,4.4,2.2,4.2-2.3,6.7c-1.7,0.9-2.3,0.6-3-1c-1.1-2.3-2.3-4.5-3.6-6.8c-0.5-0.9-0.7-2.4-2.4-1.4
			c-1.8,1-0.4,2,0,2.9c0.5,1.1,1.1,2.1,1.6,3.1C121.5,329.9,122.4,331.6,123.4,333.5z M337.4,309.7c0.2-1.1-0.7-1.3-1.4-1.5
			c-6-2.1-12.1-4.1-18.1-6.2c-1.3-0.4-1.6-0.1-2,1.1c-1.4,4.3-2.9,8.5-4.3,12.7c-0.3,0.9-0.7,1.7,0.8,2.2c1.4,0.5,1.6-0.2,2-1.2
			c0.8-2.5,2-5,2.5-7.6c0.7-3.5,2.3-4,5.2-2.4c0.2,0.1,0.4,0.1,0.6,0.2c2,0.4,2.5,1.3,1.7,3.3c-1.1,2.6-1.8,5.2-2.8,7.8
			c-0.4,1-0.2,1.4,0.9,1.9c1.2,0.5,1.6,0,1.9-0.9c0.7-2.1,1.4-4.2,2.1-6.4c1.4-4.1,1.4-4,5.5-2.6c1.8,0.6,1.9,1.4,1.3,3
			c-1.1,2.9-2,5.8-3,8.8c-0.2,0.6-0.8,1.5,0.5,1.8c0.7,0.1,1.6,1,1.9-0.1C334.3,318.9,335.8,314.3,337.4,309.7z M320.8,209.3
			c-0.2-0.5-0.4-0.8-0.6-1.2c-2.8-3.6-5.7-7.2-8.5-10.9c-1-1.3-1.6-0.3-2.3,0.2c-4.8,3.7-9.6,7.5-14.4,11.2
			c-1.5,1.1-1.5,1.8-0.4,3.2c2.7,3.3,5.3,6.7,7.9,10.1c0.6,0.8,1.1,1.5,2.2,0.6c1.1-0.8,0.9-1.4,0.1-2.3c-2-2.4-3.7-5-5.8-7.3
			c-1.5-1.7-1.4-2.8,0.6-3.9c0.6-0.4,1.2-0.9,1.8-1.4c1.2-1.2,2.1-1.3,3.2,0.3c1.6,2.4,3.6,4.5,5.3,6.8c0.7,0.9,1.2,0.9,2.1,0.3
			c1-0.7,0.8-1.3,0.2-2.1c-1.3-1.7-2.6-3.4-3.9-5c-2.8-3.6-2.8-3.5,0.9-6.3c1.2-0.9,1.8-1,2.8,0.3c1.9,2.6,3.9,5.1,5.9,7.6
			c0.4,0.5,0.7,1.2,1.5,0.9C319.8,210.3,320.2,209.8,320.8,209.3z M302.5,334c-0.1,2.6,0.8,4.6,3.1,5.9c2.4,1.3,4.8,0.9,6.9-0.8
			c2.1-1.7,3.9-3.7,5.9-5.3c2-1.6,4.2-0.6,4.4,1.8c0.4,3.2-3.1,7-6.3,6.4c-1.7-0.3-1.9,0.6-2.2,1.5c-0.5,1.5,0.9,1.4,1.7,1.6
			c3.4,0.9,7.3-1.7,9-6.1c1.4-3.3,0.7-6.4-1.6-8.1c-2.2-1.6-5.1-1.3-7.9,1.1c-1.9,1.6-3.5,3.5-5.5,4.9c-2.1,1.5-4.6,0.1-4.8-2.4
			c-0.3-3.7,3.8-7.8,7.6-7.1c1.7,0.3,2.2-0.7,2.4-1.7c0.3-1.3-1.1-1.3-1.9-1.5C308.1,322.9,302.6,328,302.5,334z M178.1,188.4
			c3.6-2,5.3-4.7,5.5-8.1c0.1-1,0.5-2.6-1.3-2.7c-1.6-0.1-2.1,0.7-2,2.4c0.2,3-1.4,5-4.2,6.1c-2.9,1.2-5.2,0.4-7.3-1.7
			c-1.9-2-3-4.4-3.6-7.1c-0.6-3,0.5-5.2,2.9-6.9c2.3-1.6,4.8-2,7.1,0c1.3,1.1,2.1,0.6,2.9-0.3c1.3-1.5-0.4-1.9-1.1-2.3
			c-3.4-2.3-6.8-1.9-10.2,0.2c-3.7,2.3-5.4,6-4.8,10c1.2,7.2,5.4,11,12.6,11.4c1.5,0.1,2.3,2.1,4.1,1.7c0.2,1.7-1.4,1.6-2.2,2.2
			c-0.3,0.3-0.5,0.6-0.3,1.1c0.3,0.5,0.6,0.9,1.2,0.7c1.9-0.6,3.7-1.4,4.2-3.6C182.2,189.2,180.3,188.9,178.1,188.4z M339.6,256
			c0-6.3-2.8-10.1-6.6-10.2c-3.9-0.1-5.8,2.7-6,8.6c-0.1,1.7-0.3,3.4-0.5,5.1c-0.2,1.3-1.1,2.1-2.3,2.3c-1.3,0.3-2.3-0.3-3.1-1.3
			c-2.6-3.1-2.3-7.7,1.1-10.1c1.3-0.9,0.9-1.7,0.5-2.6c-0.7-1.6-1.7-0.3-2.3,0c-4.6,2.3-5.3,10.2-1.5,14.6c1.8,2.1,4,2.8,6.6,2.2
			c2.7-0.6,3.9-2.5,4.3-5c0.3-2.5,0.3-5.1,0.6-7.6c0.2-1.4,0.6-2.8,2.3-3c1.6-0.2,2.6,0.8,3.3,2.1c1.5,2.8,1.1,5.8-1.3,7.6
			c-1.3,1-0.9,1.9-0.4,2.7c0.7,1.2,1.7,0.3,2.4-0.1C339,259.8,339.6,257.5,339.6,256z M155,189.4c0.8,0.1,1.1,0.7,1.4,1.2
			c1.5,1.8,3,3.6,4.5,5.5c0.8,1,1.3,1,2.3,0.3c1-0.8,0.9-1.4,0.2-2.3c-4.1-4.9-8.1-9.9-12.2-14.9c-0.7-0.9-1.2-1.2-2.3-0.3
			c-1.2,1-0.9,1.6-0.1,2.5c1.2,1.4,2.3,2.8,3.4,4.2c0.4,0.5,1.4,1.1,0.5,1.8c-2.5,2.2-4.8,4.9-7.7,6.1c-1.7,0.7-2.9-2.8-4.4-4.3
			c-0.2-0.2-0.4-0.5-0.6-0.7c-0.6-0.9-1.2-1.4-2.3-0.4c-0.8,0.8-1.2,1.3-0.3,2.3c4.2,5,8.3,10,12.4,15.1c0.7,0.9,1.2,0.9,2.1,0.2
			c0.8-0.7,1.3-1.3,0.3-2.3c-0.8-0.8-1.5-1.8-2.3-2.7c-3.4-4.2-3.4-4.2,0.8-7.7C152.2,191.7,153.6,190.6,155,189.4z M110.3,288.4
			c0-0.1,0-0.3,0-0.4c3,0,6-0.1,9,0c1.5,0,2.3-0.2,2.2-2.1c-0.2-4.4-0.2-8.8-0.3-13.2c0-0.9,0-1.6-1.3-1.6c-1.3,0-1.6,0.5-1.6,1.7
			c0.2,2.3,0.2,4.7,0.3,7.1c0.1,5.1,0.1,5-5,5.1c-2,0-2.6-0.6-2.5-2.5c0.1-2.8-0.1-5.6,0-8.3c0-1.2-0.5-1.4-1.5-1.4
			c-1.1,0-1.4,0.3-1.3,1.5c0.2,2.4,0,4.9,0.3,7.4c0.3,2.8-0.5,3.5-3.4,3.6c-2.8,0-3.4-0.9-3.3-3.3c0.1-2.7-0.2-5.3-0.2-8
			c0-1.1,0-1.8-1.5-1.8c-1.3,0-1.3,0.7-1.3,1.6c0.1,4.3,0.3,8.6,0.3,12.8c0,1.4,0.5,1.9,1.9,1.8
			C104.1,288.3,107.2,288.4,110.3,288.4z M240.4,384.8c-0.1-1.2-0.2-1.9-0.2-2.6c-0.2-2.2,0.1-4.4,2.2-5.6c1.9-1.1,3.6-0.5,5,1.3
			c0.8,1,1.9,0.2,2.5-0.4c0.8-0.7-0.1-1.3-0.5-1.8c-1.4-1.8-3.3-2.5-5.7-2.2c-2.9,0.4-5,1.9-6,4.6c-1.6,4.2,0.7,13.1,3.9,16.1
			c2.6,2.4,6.7,2.5,9.4,0.4c2.6-2,3.4-6.2,1.8-9.6c-1.5-3.1-4.7-4.5-8-3.7C243.1,381.7,242,383.2,240.4,384.8z M278.1,385.9
			c0.3-0.1,0.6-0.2,0.9-0.3c0.9-2.4,1.1-5.4,2.8-6.9c1.9-1.6,5.1-0.4,7.7-0.5c0.1,0,0.3-0.2,0.7-0.7c-6.1-2.2-7.6-6.2-4.3-11.7
			c0.1-0.1-0.1-0.4-0.3-1.1c-4.1,5.3-8.4,5-12.6,0.4c-0.1-0.1-0.3,0.1-0.5,0.1c0,0.3,0,0.7,0.1,1c0.6,2.1,2.1,4.5,1.6,6.4
			c-0.5,2-3.4,2.7-5.1,4.1c-0.3,0.2-0.6,0.5-0.9,0.7C274.3,376.7,278.3,378.5,278.1,385.9z M223.7,170.4c-0.1,5.6,2.4,8.4,7.8,9.1
			c5.3,0.7,8.6-1.4,9.6-6.6c0.8-4.3,1.2-8.7,1.7-13c0.1-0.9,0.6-2.1-1.2-2.3c-1.8-0.2-1.8,0.6-2,2c-0.5,4.5-1.1,8.9-1.8,13.3
			c-0.4,2.8-2.4,3.8-5.1,3.7c-4.1-0.1-6.1-2.2-5.8-6.3c0.3-4,0.9-8.1,1.3-12.1c0.1-1,0.6-2.1-1.2-2.3c-1.6-0.2-1.8,0.6-1.9,1.8
			C224.6,162,224.1,166.4,223.7,170.4z M147.9,208.7c-7.2-2-14.3-3.9-21.3-5.9c-1.3-0.4-2.2,0-3,1.1c-0.7,1-0.5,1.7,0.1,2.6
			c3.9,6.2,7.7,12.5,11.5,18.8c2.4-1.3,2.2-2.8,0.9-4.7c-0.9-1.2-2.4-3-2.1-3.7c1.2-2.4,3-4.7,4.9-6.6c1.2-1.2,2.9,0.2,4.2,0.6
			C145.2,211.5,147,211.7,147.9,208.7z M207.2,388.9c0.2,1.7,0.2,3.4,0.6,5.1c0.9,3.4,3,5.2,6.3,5.4c3.3,0.2,5.5-1.6,6.6-4.5
			c1.6-4.3,2-8.7,0.9-13.2c-0.9-3.4-3.1-5.3-6.4-5.3c-3.1-0.1-5.2,1.6-6.4,4.4C207.7,383.4,207.4,386.1,207.2,388.9z M192,391.8
			c0.9-1.5,2.2-1.7,3.3-2.3c2.6-1.3,5.3-2.3,7.6-4.1c2.3-1.8,3.4-4.2,2.6-7.1c-0.7-2.9-3-4.2-5.8-4.8c-2.9-0.6-5.3,0-7.1,2.5
			c-0.4,0.6-1.7,1.4-0.3,2.3c0.9,0.6,1.9,1,2.6-0.4c1-1.9,2.7-2.3,4.6-1.8c1.6,0.4,2.7,1.3,3,3c0.3,2.1-0.7,3.6-2.3,4.6
			c-2.2,1.3-4.5,2.4-6.8,3.5c-2.2,1.1-4.4,2.1-5.9,4.2c-0.8,1.2-0.9,2,0.9,2.4c3.7,0.9,7.4,2,11.1,3.1c1.2,0.4,1.7,0,2-1.1
			c0.4-1.2-0.3-1.4-1.3-1.7C197.5,393.5,194.8,392.6,192,391.8z M131.9,356.3c-2.2-2.6-4.4-5.2-6.6-7.9c-0.6-0.7-1.1-1.2-2.1-0.4
			c-1.1,0.8-0.9,1.5-0.1,2.3c2.6,3,5.1,6,7.6,9.1c0.9,1.1,1.5,1.1,2.5,0.2c4.8-4.1,9.6-8.2,14.5-12.2c0.8-0.7,1.4-1.2,0.5-2.3
			c-0.9-1.1-1.5-1.2-2.6-0.2c-1.6,1.5-3.5,2.8-5.1,4.4c-1,0.9-1.6,0.7-2.3-0.2c-1.5-1.8-3.1-3.6-4.5-5.4c-0.7-0.9-1.3-1.2-2.3-0.3
			c-1,0.8-0.7,1.4,0,2.1c0.7,0.7,1.3,1.5,1.9,2.2C137.3,352.4,137.3,352.4,131.9,356.3z M285,198.2c1.2-3.6,2.2-6.4,3.1-9.2
			c1-2.9,1.9-5.9,3-8.8c0.6-1.6-0.5-2.1-1.4-2.8c-0.9-0.6-1.1,0-1.3,0.7c-2.1,6.8-4.3,13.6-6.4,20.5c-0.5,1.8,1.5,3.5,3.1,2.6
			c6.6-3.7,13.1-7.6,19.7-11.4c-2.2-2.2-2.3-2.2-4.3-0.9C295.5,191.9,290.6,194.9,285,198.2z M337.3,295.8c-0.1,1.2-0.1,1.9-0.2,2.5
			c-0.3,1.1,0,1.6,1.2,1.7c1.1,0.1,1.5-0.2,1.6-1.3c0.5-4.9,1.1-9.8,1.7-14.7c0.1-1.1-0.1-1.5-1.2-1.7c-1.1-0.2-1.6,0.3-1.7,1.3
			c-0.1,1.1-0.2,2.1-0.3,3.2c-0.1,2-0.8,2.6-3,2.3c-4.9-0.8-9.8-1.1-14.7-1.7c-1.3-0.2-2.2-0.5-2.4,1.4c-0.2,1.8,1.1,1.6,2,1.7
			c4.5,0.6,8.9,1.3,13.4,1.5C337,292.1,338.5,293,337.3,295.8z M230.4,381.8c0.6,5.5,1.1,10.6,1.6,15.7c0.1,1.2,0.2,2.1,1.8,1.9
			c1.4-0.2,1.4-1,1.2-2.1c-0.2-1.5-0.3-3-0.5-4.4c-0.5-5-1-10-1.6-14.9c-0.1-0.7,0.1-1.6-0.9-1.8c-0.5-0.1-1.1-0.1-1.4,0.5
			c-1.3,2.3-3.1,4-5.2,5.6c-0.8,0.6-0.6,1.7-0.1,2.3c0.7,1,1.3,0,1.8-0.4C228.1,383.5,229,382.8,230.4,381.8z M330.1,274.9
			c0-0.1,0-0.2,0-0.3c3.3-0.2,6.6-0.3,9.9-0.4c1,0,1.7-0.2,1.5-1.4c-0.1-1-0.3-1.8-1.7-1.8c-6.4,0.3-12.8,0.6-19.1,0.8
			c-1.1,0-1.7,0.4-1.8,1.7c0,1.5,0.9,1.4,1.9,1.4C323.9,274.9,327,274.9,330.1,274.9z M346.2,272.5c0.2-1.3-0.2-2.1-1.7-2
			c-1.3,0.1-2.1,0.5-2,2.1c0.1,1.6,0.9,1.6,2.1,1.6C345.8,274.2,346.7,274,346.2,272.5z M233.2,153.4c0.3-1.4-0.7-1.3-1.7-1.4
			c-1.5-0.2-1.3,0.9-1.5,1.8c-0.2,1.4,0.7,1.4,1.7,1.5C233.1,155.4,233.2,154.5,233.2,153.4z M238.8,154.2c0.3-1.5-0.7-1.5-1.7-1.6
			c-1.4-0.2-1.2,0.7-1.4,1.6c-0.2,1.2,0.1,1.7,1.5,1.8C238.6,156,238.7,155.2,238.8,154.2z"/>
		<path class="st4" d="M132.2,277.2c0.1-48.7,39.5-87.9,88-88c48.8,0,89.4,40,88.1,90.4c-1.2,47.3-39.7,85.8-88.3,85.7
			C171.5,365.3,132.1,325.7,132.2,277.2z M267.3,321c-0.1,0-0.2,0.1-0.2,0.1c0,0,0,0.1,0,0.2C267.1,321.2,267.2,321.1,267.3,321
			c0.1,0,0.2-0.1,0.2-0.1c0,0,0-0.1,0-0.2C267.4,320.8,267.4,320.9,267.3,321z M230,313.3c-6.2,4.4-6.3,10.8-5.8,17.4
			c0,0.4,0,0.9,0,1.3c0.1,0.9-0.4,2.1,0.9,2.5c1.1,0.3,1.8-0.4,2.5-1c2-1.8,2.8-4.2,3.8-6.6c0.8-2,1.6-4.8,4.1-4.9
			c3.6-0.2,5-2.4,6.3-5.1c0.7-1.4,1.3-2.9,3.1-2.8c2.6,0.1,4.1-1.4,5.8-3c1.8-1.7,3.6-3.7,6.3-3.4c4,0.4,7.2-1.1,10.4-3.2
			c1.1-0.7,2.4-2,3.8-0.9c1.5,1.3,0.3,2.7-0.3,4.1c-0.6,1.4-1.1,2.8-1.8,4.1c-1.1,2.4-1.5,4.9-0.8,8.2c6.4-9.7,11.2-19.5,15.4-29.7
			c0.8-1.9-0.6-1.9-1.9-1.9c-5,0-10.1,0-15.1,0c-1.5,0-2.4,0.6-2.9,2c-0.5,1.3-1.2,2.6-1.3,3.9c-0.4,5.8-4.4,7.6-9.1,8.1
			c-5.4,0.6-9.9,3-14.5,5.6C235.8,309.5,233.3,312.1,230,313.3c0.1-0.3,0-0.8,0.2-0.9c6.9-5.2,13.9-10.3,22.9-11.3
			c4.9-0.6,6.8-2.1,8.1-6.9c0.4-1.5,0.9-3.1,1.6-4.5c2.2-4.8,1.7-5.6-3.5-6.2c1.7-2.4,3.9-1.4,4.7,0.2c1.7,3.4,4.5,2.7,7.2,2.7
			c4,0,7.9-0.1,11.9,0.1c1.6,0,2.3-0.5,2.7-1.9c4.3-12.3,7.5-25,9.1-38c0.3-2.8-0.2-3.8-3.4-3.8c-47.4,0.1-94.9,0.1-142.3,0
			c-3.2,0-3.7,1-3.4,3.8c1.6,13,4.7,25.6,9,38c0.5,1.4,1.2,2,2.7,1.9c5.9-0.1,11.8,0,17.7-0.1c0.8,0,1.5,0.2,2.2-0.7
			c2.9-4,6.6-4.2,10.2-0.6c-1.3,0.3-2.2-0.6-3.3-0.9c-2-0.5-4.2-1.1-5.4,1.1c-1.2,2.3,0.3,3.8,2.2,4.9c1.3,0.8,2.3,1.7,1.3,3.3
			c-1.1,1.9-0.3,3.5,0.6,5.1c-2.4-0.4-2.9-2.2-2.3-4.1c0.5-1.6,1.3-2.9-1-3.7c-1.5-0.5-1.8-2.6-3.9-2.5c-5.7,0.2-11.4,0.1-17,0
			c-2.1,0-2.3,0.7-1.6,2.5c3.5,8.5,7.5,16.8,12.2,24.7c9.3,15.7,20.8,29.6,34.2,42.1c3.9,3.6,8,5.1,13.1,5.2c2.3,0,3-0.7,2.9-2.9
			c-0.5-7,1.3-14.3-2-21.1c2.2,1.8,3.3,3.9,3.2,6.9c-0.2,5-0.1,10,0,15.1c0,0.9-0.5,2.3,0.9,2.4c1.7,0.1,1-1.5,1.1-2.5
			c0.1-5.3,0-10.7,0-16c0-4.3,2.4-7.6,6.3-8.5c3.5-0.8,6.7,0.8,9.9,1.9c2.7,0.9,5.3,2.2,6.8-1.7c0.2-0.5,0.8-0.7,1.4-0.6
			c-2,5.1-2.3,5.3-7.4,3.8c-2.2-0.6-4.4-1.6-6.7-2.1c-4.8-1.2-8.9,1.8-9,6.7c-0.1,5.5,0,10.9-0.1,16.4c0,2,0.9,2.2,2.6,2.2
			c4.3-0.1,7.3-2.5,10.1-5.2c8.6-8.3,17-16.8,23.9-26.6c1.9-2.7,4.3-5.1,5.6-8.8c-2.3,0.8-4.1,1.4-5.9,2.1c-1.4,0.5-2.3,1.4-2.2,3.1
			c0.4,5.1-1.8,7.7-6.9,7.8c-1.4,0-2.7,0.4-4.1,0.7c0.6-2.3,2.6-1.8,4.2-1.9c3.4-0.2,6.5-2.2,5.9-4.6c-1.2-5,1.8-6.1,5.4-7.2
			c1.9-0.6,4-1.7,3.8-4.2c-0.3-3.7,1.5-6.8,2.7-10.1c0.4-1,1.4-1.9,0.8-3.3c-1.4-0.2-2.1,0.8-3.1,1.3c-2.3,1.2-4.3,3.4-7.3,2.9
			c-3.7-0.6-6.4,1.1-8.7,3.7c-1.3,1.4-2.7,2.6-4.6,2.6c-2.4-0.1-3.4,1.3-4.2,3.2c-1,2.3-2.4,4.5-5.2,4.6c-2.2,0.1-3.2,1.3-4,3.2
			c-0.8,1.9-1.5,3.8-2.4,5.6c-1,2-2.5,3.5-4.7,4.1c-1.9,0.5-3.3,0.2-3.2-2.4c0.2-4,0-7.9,0.1-11.9C223,318.1,226.6,314.1,230,313.3z
			 M280.7,240.6c-6-2.3-11.7-5.2-17.2-8.4c-16.1-9.6-28.9-22.9-41.1-36.9c-2.7-3.1-3.6-1.1-4.9,0.5c-5.7,7.4-12.4,13.9-19.2,20.2
			c-8,7.4-16.6,14-26.4,19c-3.9,2-7.8,3.9-11.9,5.6C200.3,240.6,240.5,240.6,280.7,240.6z M142.7,242.5
			c-11.9,29.3-9.9,57.4,8.1,83.9c11.6,17.1,40.6,35.6,51.8,33.3C170.3,327.1,147.8,289.3,142.7,242.5z M238,360
			c25.2-5.5,44.2-19.5,56.9-42c15.3-27.1,11.6-59.2,2.8-74.7C292.5,289.7,270.3,327.4,238,360z M223.6,192.5c0.2,0.7,0.2,1,0.4,1.1
			c13.1,15.7,27.7,29.7,45.9,39.6c7.7,4.2,15.9,6.9,24.7,7.5c1.9,0.1,2.6-0.2,1.5-2.2c-4.3-8-9.4-15.3-15.9-21.6
			c-11.1-10.9-24.3-18.4-39.5-22.1C235.1,193.4,229.6,192.2,223.6,192.5z M217,192.6c-4.5-0.5-8.5,0.4-12.5,1.2
			c-26.4,5.4-46.1,19.9-59.2,43.5c-0.5,1-1.9,2.2-1,3.1c0.6,0.6,2.2,0.4,3.4,0.2c6.6-0.8,13-2.6,19-5.4
			c18.5-8.8,33.2-22.3,46.6-37.6C214.5,196.1,216.2,194.8,217,192.6z"/>
		<path class="st5" d="M132,231c-0.5,4.1-2.9,7.7-4.6,11.5c-0.5,1.2-1.3,0.3-1.8,0.1c-5.7-2.6-11.4-5.3-17.1-7.8
			c-1.4-0.6-1.7-1.3-1-2.7c1.2-2.4,2.2-4.9,3.5-7.2c2.8-4.9,7.7-5,10.4,0c0.9,1.7,1.4,0.5,2.1,0.2C127.5,223.4,132,226.3,132,231z
			 M125.3,227.7c-2.4,0-3.1,1.9-4,3.6c-2.5,5-2.2,5.7,3.2,7.3c0.5,0.1,1.1,0.6,1.4,0c1.3-2.5,3.2-4.9,3-7.9
			C128.8,228.9,127.4,227.7,125.3,227.7z M116.9,224.6c-2.4-0.2-6.1,3.9-5.8,6.8c0.2,2.3,3.4,3.1,4.5,2.8c2.8-0.6,2.9-3.9,3.7-6.2
			C120,226.1,118.5,224.9,116.9,224.6z"/>
		<path class="st6" d="M320.7,235c-1.3,3.9-3.6,7-5.9,10.3c-2.1-2.9-2.1-2.9-0.5-5.4c1.1-1.8,2.2-3.7,3.3-5.4
			c1.7-2.6,0.3-4.9-0.8-7.2c-0.6-1.2-1.2-0.4-1.8-0.1c-2,0.8-3.9,1.7-5.8,2.7c-1.1,0.6-1.8,0.7-2.5-0.7c-0.5-1.3-0.2-1.6,0.9-2.1
			c5.8-2.6,11.6-5.3,17.4-8.1c1.1-0.5,1.7-0.4,2.2,0.8c1.3,3.1,2.9,6.2,4.1,9.3c1.4,3.5,0.6,5.9-1.9,7.6c-2.6,1.8-5.4,1.4-8.1-1.1
			C321.3,235.5,321,235.3,320.7,235z M329.1,231.5c-0.1-1.8-0.8-3.1-1.4-4.5c-2.3-5.1-2.7-5.2-7.3-2.3c-0.5,0.3-1.3,0.6-0.9,1.4
			c1.4,2.6,2,5.6,4.3,7.7c1,1,2.2,1.1,3.5,0.4C328.5,233.6,329.1,232.6,329.1,231.5z"/>
		<path class="st5" d="M254.8,166.4c-1.8,4.9-3.3,9.2-5,13.5c-0.4,0.9-0.1,2.9-2.3,2.1c-2.2-0.7-0.9-2-0.6-3
			c1.9-5.3,3.8-10.6,5.9-15.9c0.4-0.9,0-2.7,1.8-2.5c1.7,0.2,2.4,1.3,2.8,3c1.1,5,2.3,10,3.6,14.9c0.2,0.7,0.4,1.4,0.9,2.6
			c1.8-4.9,3.4-9.4,5.1-13.8c0.3-0.8,0.1-2.3,2-1.6c1.8,0.6,1.3,1.6,0.9,2.7c-2.1,5.6-4.2,11.2-6.3,16.8c-0.3,0.8-0.2,2.2-1.5,2
			c-1.2-0.2-2.3-0.7-2.6-2.3c-1.1-5-2.4-10-3.6-14.9C255.5,169.1,255.2,168.2,254.8,166.4z"/>
		<path class="st5" d="M114.3,251.7c3.4-2.4,7.1-3.6,10.9-4.8c0.5,2.5-0.3,3.8-2.6,4.5c-2,0.6-4,1.6-5.9,2.3
			c-2.8,1.1-3.4,3.5-3.8,6.2c-0.2,1.4,0.7,1.3,1.6,1.4c2.1,0.4,4.2,0.9,6.3,1.3c1.3,0.2,1.5,0.9,1.3,2c-0.2,1.2-0.9,1.3-1.8,1.1
			c-6.4-1.3-12.8-2.6-19.1-3.9c-1.5-0.3-1.2-1.1-1-2.1c0.7-3.2,1.3-6.5,2.1-9.7c0.9-3.7,2.8-5,6.1-5c3.2,0.1,5,1.7,5.8,5.3
			C114.1,250.7,114.2,251.1,114.3,251.7z M111.4,253.1c0.1-2.5-0.4-4.3-2.8-4.7c-2.4-0.4-3.5,1.1-4.1,3.1c-0.4,1.4-0.6,2.9-1,4.4
			c-0.7,2.2-0.3,3.2,2.3,3.8c3.2,0.7,4.8,0.4,4.9-3.2C110.7,255.2,111.2,254,111.4,253.1z"/>
		<path class="st5" d="M117.8,298.2c-5,1.3-9.4,2.5-13.9,3.5c-1.1,0.3-2.4,1.4-2.9-0.9c-0.5-2.3,1.4-1.8,2.4-2.1
			c5.6-1.5,11.2-2.9,16.7-4.4c0.8-0.2,1.9-1.1,2.5,0.1c0.5,1.1,0.8,2.3-0.3,3.5c-3.5,3.8-6.9,7.6-10.3,11.5
			c-0.6,0.7-1.5,1.2-1.5,2.5c4.6-1.2,9.1-2.3,13.7-3.5c1.1-0.3,2-0.9,2.4,0.9c0.3,1.5-0.3,1.8-1.6,2.1c-5.7,1.4-11.4,3-17.1,4.4
			c-0.9,0.2-2.2,1.6-3-0.2c-0.6-1.4-0.3-2.5,0.9-3.7c3.4-3.7,6.7-7.5,10-11.3C116.3,300,116.8,299.4,117.8,298.2z"/>
		<path class="st6" d="M192.3,168.9c3.1-0.7,5.9-1.4,8.7-2c1-0.2,2.1-0.6,2.5,1c0.5,1.8-1,1.6-1.8,1.8c-2.6,0.6-5.2,1.2-7.8,1.7
			c-1.5,0.3-2.3,0.9-1.7,2.6c0.3,0.9,0.5,1.9,0.6,2.8c0.2,1.9,1,2.5,3,1.8c2.8-0.9,5.8-1.4,8.7-2c0.9-0.2,2.1-1,2.5,0.8
			c0.4,1.7-0.7,1.7-1.7,2c-4.2,1-8.3,1.8-12.5,2.8c-1.5,0.4-2.1,0-2.4-1.5c-1.3-6-2.7-12.1-4-18.1c-0.3-1.4-0.1-2.1,1.5-2.4
			c4.1-0.8,8.1-1.7,12.2-2.7c1.1-0.3,1.8-0.4,2.2,0.9c0.4,1.6-0.7,1.7-1.8,2c-3,0.6-6,1.4-9.1,1.9c-2.2,0.4-1.6,1.9-1.1,2.9
			C190.9,166.4,189.7,168.9,192.3,168.9z"/>
		<path class="st6" d="M123.4,333.5c-1-1.9-1.9-3.6-2.8-5.3c-0.5-1-1.2-2-1.6-3.1c-0.4-0.9-1.8-1.9,0-2.9c1.8-1,1.9,0.5,2.4,1.4
			c1.2,2.2,2.5,4.5,3.6,6.8c0.7,1.6,1.3,1.9,3,1c4.5-2.4,4.6-2.3,2.3-6.7c-1.1-2.2-2.2-4.4-3.4-6.5c-0.5-0.9-0.6-1.5,0.5-2
			c1-0.5,1.5-0.4,2,0.6c2.2,4.2,4.3,8.3,6.6,12.4c0.7,1.3-0.1,1.7-1,2.1c-5.6,2.9-11.1,5.8-16.6,8.9c-1.5,0.8-2,0.2-2.6-1
			c-1.9-3.7-3.9-7.4-5.8-11c-0.4-0.8-1.2-1.5,0.3-2.3c1.5-0.8,1.8,0.1,2.3,1.1c1.3,2.5,2.8,4.8,3.8,7.4c1,2.3,2.1,2.6,4,1.2
			C121.3,334.8,122.6,334.5,123.4,333.5z"/>
		<path class="st5" d="M337.4,309.7c-1.5,4.6-3.1,9.2-4.7,13.8c-0.4,1.1-1.3,0.2-1.9,0.1c-1.3-0.3-0.7-1.2-0.5-1.8
			c1-2.9,1.9-5.9,3-8.8c0.6-1.6,0.4-2.4-1.3-3c-4.2-1.4-4.1-1.5-5.5,2.6c-0.7,2.1-1.4,4.2-2.1,6.4c-0.3,0.9-0.7,1.4-1.9,0.9
			c-1-0.5-1.3-0.9-0.9-1.9c1-2.6,1.7-5.3,2.8-7.8c0.8-2,0.3-2.9-1.7-3.3c-0.2,0-0.4-0.1-0.6-0.2c-2.9-1.7-4.5-1.1-5.2,2.4
			c-0.5,2.6-1.7,5-2.5,7.6c-0.3,1-0.5,1.7-2,1.2c-1.5-0.5-1.1-1.2-0.8-2.2c1.5-4.2,3-8.4,4.3-12.7c0.4-1.2,0.7-1.5,2-1.1
			c6,2.1,12.1,4.1,18.1,6.2C336.7,308.4,337.5,308.6,337.4,309.7z"/>
		<path class="st5" d="M320.8,209.3c-0.6,0.5-1,1-1.6,1.2c-0.8,0.3-1.1-0.4-1.5-0.9c-2-2.5-4-5-5.9-7.6c-0.9-1.3-1.6-1.2-2.8-0.3
			c-3.7,2.8-3.7,2.7-0.9,6.3c1.3,1.7,2.6,3.4,3.9,5c0.6,0.8,0.8,1.4-0.2,2.1c-0.9,0.7-1.4,0.6-2.1-0.3c-1.7-2.3-3.6-4.5-5.3-6.8
			c-1.1-1.6-2-1.5-3.2-0.3c-0.5,0.5-1.1,1-1.8,1.4c-1.9,1.1-2.1,2.2-0.6,3.9c2.1,2.3,3.8,4.9,5.8,7.3c0.7,0.9,0.9,1.5-0.1,2.3
			c-1.2,0.9-1.6,0.3-2.2-0.6c-2.6-3.4-5.2-6.8-7.9-10.1c-1.2-1.4-1.1-2.2,0.4-3.2c4.9-3.7,9.6-7.5,14.4-11.2
			c0.7-0.5,1.3-1.5,2.3-0.2c2.8,3.6,5.6,7.2,8.5,10.9C320.4,208.5,320.6,208.9,320.8,209.3z"/>
		<path class="st6" d="M302.5,334c0.1-6,5.6-11.1,10.8-9.9c0.9,0.2,2.2,0.2,1.9,1.5c-0.2,1.1-0.7,2-2.4,1.7
			c-3.7-0.7-7.9,3.3-7.6,7.1c0.2,2.5,2.8,3.9,4.8,2.4c2-1.4,3.6-3.3,5.5-4.9c2.8-2.4,5.6-2.7,7.9-1.1c2.4,1.8,3,4.8,1.6,8.1
			c-1.8,4.3-5.6,6.9-9,6.1c-0.8-0.2-2.2-0.1-1.7-1.6c0.3-0.9,0.6-1.8,2.2-1.5c3.2,0.6,6.6-3.1,6.3-6.4c-0.3-2.4-2.4-3.4-4.4-1.8
			c-2.1,1.6-3.9,3.6-5.9,5.3c-2.1,1.7-4.4,2.1-6.9,0.8C303.2,338.7,302.3,336.6,302.5,334z"/>
		<path class="st6" d="M178.1,188.4c2.1,0.5,4.1,0.8,3.6,3.2c-0.4,2.1-2.3,2.9-4.2,3.6c-0.6,0.2-0.9-0.2-1.2-0.7
			c-0.3-0.5-0.1-0.8,0.3-1.1c0.8-0.7,2.4-0.6,2.2-2.2c-1.7,0.4-2.5-1.6-4.1-1.7c-7.2-0.4-11.4-4.2-12.6-11.4c-0.7-4,1.1-7.8,4.8-10
			c3.4-2.1,6.8-2.5,10.2-0.2c0.7,0.5,2.3,0.9,1.1,2.3c-0.8,0.9-1.6,1.4-2.9,0.3c-2.2-1.9-4.8-1.6-7.1,0c-2.4,1.7-3.5,3.9-2.9,6.9
			c0.6,2.7,1.7,5.1,3.6,7.1c2,2.1,4.4,2.9,7.3,1.7c2.7-1.1,4.4-3.1,4.2-6.1c-0.1-1.7,0.3-2.5,2-2.4c1.8,0.1,1.4,1.7,1.3,2.7
			C183.4,183.7,181.8,186.3,178.1,188.4z"/>
		<path class="st6" d="M339.6,256c0,1.5-0.6,3.8-3,5.2c-0.8,0.4-1.7,1.4-2.4,0.1c-0.5-0.8-0.9-1.7,0.4-2.7c2.4-1.9,2.8-4.8,1.3-7.6
			c-0.7-1.3-1.6-2.3-3.3-2.1c-1.8,0.2-2.2,1.6-2.3,3c-0.3,2.5-0.3,5.1-0.6,7.6c-0.3,2.5-1.6,4.4-4.3,5c-2.6,0.6-4.8-0.1-6.6-2.2
			c-3.8-4.5-3.1-12.3,1.5-14.6c0.7-0.3,1.6-1.6,2.3,0c0.4,0.9,0.8,1.7-0.5,2.6c-3.4,2.4-3.7,7-1.1,10.1c0.8,1,1.8,1.5,3.1,1.3
			c1.3-0.3,2.1-1,2.3-2.3c0.2-1.7,0.5-3.4,0.5-5.1c0.2-5.8,2.1-8.7,6-8.6C336.8,245.9,339.6,249.7,339.6,256z"/>
		<path class="st5" d="M155,189.4c-1.4,1.1-2.8,2.3-4.2,3.5c-4.2,3.5-4.2,3.5-0.8,7.7c0.7,0.9,1.4,1.9,2.3,2.7c1,1,0.5,1.6-0.3,2.3
			c-0.8,0.7-1.4,0.7-2.1-0.2c-4.1-5-8.2-10.1-12.4-15.1c-0.9-1.1-0.5-1.5,0.3-2.3c1-1,1.6-0.5,2.3,0.4c0.2,0.3,0.4,0.5,0.6,0.7
			c1.6,1.5,2.7,5,4.4,4.3c2.9-1.1,5.3-3.9,7.7-6.1c0.8-0.7-0.1-1.3-0.5-1.8c-1.1-1.4-2.2-2.9-3.4-4.2c-0.8-0.9-1.2-1.5,0.1-2.5
			c1.1-0.8,1.6-0.6,2.3,0.3c4,5,8.1,9.9,12.2,14.9c0.7,0.9,0.9,1.5-0.2,2.3c-1,0.8-1.6,0.7-2.3-0.3c-1.4-1.9-2.9-3.7-4.5-5.5
			C156,190.1,155.8,189.5,155,189.4z"/>
		<path class="st6" d="M110.3,288.4c-3.1,0-6.2-0.1-9.3,0c-1.4,0-1.9-0.4-1.9-1.8c0-4.3-0.2-8.6-0.3-12.8c0-1,0-1.6,1.3-1.6
			c1.4,0,1.5,0.7,1.5,1.8c0,2.7,0.3,5.3,0.2,8c0,2.4,0.5,3.4,3.3,3.3c2.9,0,3.7-0.8,3.4-3.6c-0.3-2.4-0.1-4.9-0.3-7.4
			c-0.1-1.2,0.2-1.5,1.3-1.5c1,0,1.5,0.2,1.5,1.4c0,2.8,0.2,5.6,0,8.3c-0.1,2,0.5,2.6,2.5,2.5c5-0.1,5,0,5-5.1
			c0-2.4-0.1-4.7-0.3-7.1c-0.1-1.3,0.3-1.7,1.6-1.7c1.3,0,1.3,0.7,1.3,1.6c0.1,4.4,0,8.8,0.3,13.2c0.1,1.8-0.7,2.1-2.2,2.1
			c-3-0.1-6,0-9,0C110.3,288.1,110.3,288.2,110.3,288.4z"/>
		<path class="st6" d="M240.4,384.8c1.6-1.6,2.7-3,4.5-3.5c3.3-0.8,6.5,0.6,8,3.7c1.6,3.5,0.9,7.6-1.8,9.6c-2.8,2.1-6.8,1.9-9.4-0.4
			c-3.3-3-5.5-11.9-3.9-16.1c1-2.7,3.1-4.2,6-4.6c2.3-0.3,4.2,0.4,5.7,2.2c0.4,0.5,1.2,1.2,0.5,1.8c-0.7,0.6-1.8,1.3-2.5,0.4
			c-1.4-1.8-3.1-2.4-5-1.3c-2.1,1.2-2.4,3.4-2.2,5.6C240.2,382.9,240.3,383.6,240.4,384.8z M250.8,389.1c-0.1-3-2-5.3-4.4-5.4
			c-2.4,0-4.4,2.1-4.2,4.6c0.1,2.8,2.3,5.2,4.7,5.2C249.2,393.6,250.9,391.7,250.8,389.1z"/>
		<path class="st5" d="M278.1,385.9c0.2-7.3-3.8-9.2-10-8.7c0.3-0.2,0.6-0.5,0.9-0.7c1.7-1.4,4.6-2.1,5.1-4.1c0.4-1.9-1-4.2-1.6-6.4
			c-0.1-0.3,0-0.6-0.1-1c0.2,0,0.5-0.2,0.5-0.1c4.2,4.6,8.4,4.9,12.6-0.4c0.2,0.7,0.4,1,0.3,1.1c-3.3,5.5-1.7,9.5,4.3,11.7
			c-0.5,0.5-0.6,0.7-0.7,0.7c-2.6,0.2-5.8-1.1-7.7,0.5c-1.7,1.4-1.9,4.5-2.8,6.9C278.6,385.7,278.4,385.8,278.1,385.9z"/>
		<path class="st5" d="M168.5,365.6c-0.1,2.6-2.9,5.1-1.6,7.4c1.1,2,3.8,3.2,5.9,5.2c-6.9-1.9-10.5,0.9-11.4,8
			c-0.7-6.8-3.7-10-11-8.1c1.5-2.2,3.1-3,4.6-3.9c1.8-1.1,2.2-2.3,1.4-4.2c-0.7-1.6-1.1-3.4-1.9-5.9c2,1.5,3.5,2.4,4.7,3.6
			c1.7,1.7,3.2,1.5,4.9,0.1c1.2-1,2.4-2.1,4-2.5L168.5,365.6z"/>
		<path class="st6" d="M223.7,170.4c0.4-4,0.9-8.4,1.4-12.8c0.1-1.2,0.4-2,1.9-1.8c1.8,0.2,1.3,1.3,1.2,2.3c-0.4,4-1,8.1-1.3,12.1
			c-0.3,4.1,1.6,6.2,5.8,6.3c2.7,0.1,4.7-0.9,5.1-3.7c0.7-4.4,1.3-8.9,1.8-13.3c0.2-1.3,0.2-2.2,2-2c1.8,0.2,1.3,1.4,1.2,2.3
			c-0.5,4.3-0.9,8.7-1.7,13c-1,5.1-4.3,7.2-9.6,6.6C226,178.8,223.6,176,223.7,170.4z"/>
		<path class="st5" d="M147.9,208.7c-1,3-2.7,2.8-4.9,2.1c-1.3-0.4-3-1.8-4.2-0.6c-1.9,1.9-3.7,4.2-4.9,6.6
			c-0.4,0.7,1.2,2.5,2.1,3.7c1.4,1.9,1.6,3.4-0.9,4.7c-3.8-6.3-7.7-12.5-11.5-18.8c-0.5-0.9-0.8-1.6-0.1-2.6c0.8-1.1,1.7-1.5,3-1.1
			C133.7,204.8,140.7,206.7,147.9,208.7z M132.1,214.4c1.5-1.9,2.8-3.6,4.4-5.6c-3.2-1-6.2-1.9-9.8-3
			C128.6,208.9,130.3,211.6,132.1,214.4z"/>
		<path class="st6" d="M207.2,388.9c0.2-2.8,0.5-5.6,1.6-8.1c1.2-2.8,3.3-4.4,6.4-4.4c3.2,0.1,5.5,1.9,6.4,5.3
			c1.1,4.5,0.7,8.9-0.9,13.2c-1.1,2.9-3.3,4.7-6.6,4.5c-3.2-0.2-5.4-2-6.3-5.4C207.5,392.4,207.4,390.6,207.2,388.9z M219.2,386.5
			c-0.1-1.2,0-2.4-0.2-3.5c-0.4-2-1.3-3.7-3.6-4c-2.4-0.2-3.5,1.4-4.1,3.4c-1.1,3.5-1.2,7.2-0.7,10.8c0.3,2,1.3,3.5,3.4,3.7
			c2.2,0.2,3.3-1.3,4-3.1C218.9,391.4,219.1,389,219.2,386.5z"/>
		<path class="st6" d="M192,391.8c2.9,0.8,5.6,1.7,8.3,2.4c0.9,0.3,1.6,0.5,1.3,1.7c-0.3,1.1-0.8,1.5-2,1.1
			c-3.7-1.2-7.3-2.2-11.1-3.1c-1.8-0.4-1.7-1.2-0.9-2.4c1.5-2.1,3.7-3.1,5.9-4.2c2.3-1.1,4.6-2.2,6.8-3.5c1.6-1,2.7-2.5,2.3-4.6
			c-0.3-1.7-1.4-2.6-3-3c-2-0.5-3.7-0.1-4.6,1.8c-0.7,1.4-1.7,1-2.6,0.4c-1.4-0.9-0.1-1.7,0.3-2.3c1.7-2.5,4.2-3.1,7.1-2.5
			c2.8,0.6,5.1,1.9,5.8,4.8c0.7,2.9-0.3,5.3-2.6,7.1c-2.3,1.8-5,2.8-7.6,4.1C194.2,390.1,192.9,390.3,192,391.8z"/>
		<path class="st5" d="M131.9,356.3c5.4-3.8,5.4-3.8,1.3-8.7c-0.6-0.7-1.2-1.5-1.9-2.2c-0.7-0.7-0.9-1.3,0-2.1
			c1-0.9,1.6-0.6,2.3,0.3c1.4,1.9,3,3.6,4.5,5.4c0.8,1,1.3,1.1,2.3,0.2c1.7-1.5,3.5-2.8,5.1-4.4c1.1-1,1.7-0.8,2.6,0.2
			c0.9,1.1,0.4,1.6-0.5,2.3c-4.9,4-9.7,8.1-14.5,12.2c-1.1,0.9-1.7,0.9-2.5-0.2c-2.5-3.1-5.1-6.1-7.6-9.1c-0.7-0.9-0.9-1.5,0.1-2.3
			c1-0.8,1.5-0.3,2.1,0.4C127.5,351,129.7,353.7,131.9,356.3z"/>
		<path class="st5" d="M285,198.2c5.6-3.4,10.5-6.4,15.5-9.3c2.1-1.2,2.1-1.2,4.3,0.9c-6.6,3.8-13.1,7.7-19.7,11.4
			c-1.6,0.9-3.6-0.8-3.1-2.6c2-6.8,4.2-13.6,6.4-20.5c0.2-0.7,0.4-1.3,1.3-0.7c0.9,0.7,2,1.2,1.4,2.8c-1.1,2.9-2,5.8-3,8.8
			C287.1,191.8,286.2,194.7,285,198.2z"/>
		<path class="st6" d="M337.3,295.8c1.1-2.8-0.4-3.7-3.6-3.8c-4.5-0.2-8.9-0.9-13.4-1.5c-0.9-0.1-2.2,0.1-2-1.7
			c0.2-1.8,1.2-1.5,2.4-1.4c4.9,0.6,9.8,0.9,14.7,1.7c2.2,0.3,2.9-0.3,3-2.3c0-1.1,0.1-2.1,0.3-3.2c0.1-1,0.6-1.5,1.7-1.3
			c1.1,0.2,1.4,0.6,1.2,1.7c-0.6,4.9-1.2,9.8-1.7,14.7c-0.1,1.1-0.5,1.4-1.6,1.3c-1.1-0.1-1.5-0.6-1.2-1.7
			C337.3,297.7,337.2,297,337.3,295.8z"/>
		<path class="st6" d="M230.4,381.8c-1.3,1-2.2,1.7-3.2,2.3c-0.5,0.3-1.2,1.3-1.8,0.4c-0.5-0.7-0.7-1.7,0.1-2.3
			c2.1-1.5,3.9-3.3,5.2-5.6c0.3-0.6,0.9-0.6,1.4-0.5c1,0.2,0.8,1.1,0.9,1.8c0.6,5,1.1,10,1.6,14.9c0.2,1.5,0.3,3,0.5,4.4
			c0.1,1,0.2,1.9-1.2,2.1c-1.6,0.2-1.7-0.7-1.8-1.9C231.5,392.4,230.9,387.3,230.4,381.8z"/>
		<path class="st5" d="M312.3,357c-0.9,0.3-1.7,0.7-2.7-0.3c-4.7-4.2-9.4-8.3-14.2-12.4c-1-0.9-1.2-1.4-0.3-2.5c0.9-1,1.5-0.8,2.3,0
			c4.8,4.2,9.6,8.4,14.5,12.5c0.7,0.6,1,1.2,1.1,2.1l0,0C312.2,356,312.2,356.5,312.3,357L312.3,357z"/>
		<path class="st6" d="M281.4,172c0.6,0.9,0.7,1.7,0.1,2.8c-3.2,5.3-6.2,10.7-9.3,16c-0.6,1.1-1.1,1.9-2.6,1
			c-1.5-0.9-0.6-1.7-0.2-2.6c3-5.3,6.1-10.5,9.1-15.7C279.2,172.1,280,171.6,281.4,172L281.4,172z"/>
		<path class="st6" d="M330.1,274.9c-3.1,0-6.2,0-9.3,0c-1,0-1.9,0-1.9-1.4c0-1.3,0.6-1.6,1.8-1.7c6.4-0.2,12.8-0.5,19.1-0.8
			c1.4-0.1,1.5,0.8,1.7,1.8c0.2,1.2-0.6,1.4-1.5,1.4c-3.3,0.1-6.6,0.3-9.9,0.4C330.1,274.7,330.1,274.8,330.1,274.9z"/>
		<path class="st4" d="M346.2,272.5c0.4,1.5-0.5,1.7-1.7,1.7c-1.2,0-2,0-2.1-1.6c-0.1-1.6,0.7-2,2-2.1
			C346,270.3,346.4,271.1,346.2,272.5z"/>
		<path class="st4" d="M281.5,172c0.7-1.2-2.3-1.2-0.9-2.6c0.6-0.6,0.5-2.4,2-1.7c0.8,0.4,2.4,0.6,1.9,2c-0.3,1-0.5,2.8-2.5,2
			C281.7,171.5,281.6,171.8,281.5,172C281.4,172,281.5,172,281.5,172z"/>
		<path class="st6" d="M312.9,356.4c1.7,0.3,3.8,0.2,3.1,2.9c-0.2,0.6-0.8,1.9-2.1,1.4c-1.6-0.7-1.7-2.1-1.6-3.7l0,0
			c0.2,0,0.5,0,0.7,0C312.9,356.8,312.9,356.6,312.9,356.4L312.9,356.4z"/>
		<path class="st6" d="M233.2,153.4c0,1.1-0.1,2-1.5,1.9c-1-0.1-1.9-0.1-1.7-1.5c0.1-0.9,0-2,1.5-1.8
			C232.5,152.1,233.5,152,233.2,153.4z"/>
		<path class="st6" d="M238.8,154.2c-0.1,1-0.2,1.8-1.7,1.7c-1.3-0.1-1.6-0.6-1.5-1.8c0.1-0.9,0-1.7,1.4-1.6
			C238.1,152.7,239.1,152.7,238.8,154.2z"/>
		<path class="st5" d="M168.3,365.3c0.1-0.2,0.2-0.3,0.3-0.5c0.1,0.1,0.2,0.2,0.2,0.2c-0.1,0.2-0.2,0.3-0.3,0.5
			C168.5,365.6,168.3,365.3,168.3,365.3z"/>
		<path class="st7" d="M187.7,285c-3.6-3.6-7.3-3.5-10.2,0.6c-0.7,1-1.4,0.7-2.2,0.7c-5.9,0-11.8,0-17.7,0.1c-1.6,0-2.3-0.5-2.7-1.9
			c-4.3-12.3-7.4-25-9-38c-0.3-2.8,0.2-3.8,3.4-3.8c47.4,0.1,94.9,0.1,142.3,0c3.1,0,3.7,0.9,3.4,3.8c-1.6,13-4.8,25.6-9.1,38
			c-0.5,1.4-1.2,2-2.7,1.9c-4-0.1-7.9,0-11.9-0.1c-2.7,0-5.5,0.8-7.2-2.7c-0.8-1.6-3.1-2.5-4.7-0.2c0,0,0,0.1,0,0.1
			c-1.9,3.5-5.2,2.8-8.3,2.8c-1.9,0-3.8,0-5.8,0c-4.6,0-9.3,0-14.3,0c2.5-5.2,2.8-9.9-0.1-14.5c-0.6-0.9,0-1.6,0.4-2.4
			c1.1-2.3,1.2-4.8-0.5-6.7c-2.2-2.5-3.3-5.2-3.8-8.4c-0.3-2.1-1.4-4.3-4-4.4c-2.4-0.1-3.8,1.6-4.7,3.7c-0.8,1.8-1.4,4.1-2.8,5.3
			c-3.2,2.7-3.8,6-3.2,9.8c0.3,1.9,0,3.5-1.3,5c-1.5,1.8-1.8,4.1-1,6.4c0.7,2,1.5,3.9,2.3,6c-7.3,0-14.4-0.1-21.4,0.1
			C189.3,286.4,188.6,285.6,187.7,285L187.7,285z"/>
		<path class="st8" d="M247.3,335.8c-0.6-0.1-1.2,0.1-1.4,0.6c-1.4,3.9-4.1,2.6-6.8,1.7c-3.2-1.1-6.3-2.7-9.9-1.9
			c-3.9,0.9-6.3,4.1-6.3,8.5c-0.1,5.3,0,10.7,0,16c0,0.9,0.6,2.5-1.1,2.5c-1.3,0-0.9-1.5-0.9-2.4c0-5-0.1-10,0-15.1
			c0.1-3-1-5.1-3.2-6.9c-0.1-0.2-0.3-0.3-0.4-0.5c-3.1-3.2-4.4-3.3-8.6-0.6l0,0c-0.5,0-1.1,0.1-1.3,0.6l0,0
			c-1.4,0.2-2.9,0.3-4.3,0.7c-2.9,0.9-4.7-1.8-7.3-2l0,0c-0.6-2.7-2.9-2.3-4.8-2.5c-5.1-0.5-6.9-2.5-6.3-7.5
			c0.2-1.5-0.4-2.7-1.7-3.4c-2.8-1.5-5.5-3-8.3-4.5l0,0c-1.6-2.2-1.2-4.5-0.4-6.9c0.7-2.1,0.5-4-1.5-5.3l0,0
			c-0.3-1.6-1.5-3.3-0.3-4.8c1-1.2,2.3,0.2,3.5,0.5c0.8,0.8,1.6,1.6,2.4,2.4c1,1.4,2.5,1.9,4.2,1.9c2.6-0.1,5.1,0.1,7.6,0.7l0,0
			c0.9,4.9,1.2,5.2,6,5.8c2.4,0.3,4.3,1.3,4.9,3.8c0.5,2.1,1.7,3.9,3.9,4.2c2.2,0.3,3,1.6,3.9,3.3c1.5,3,2.5,6.4,5.2,8.7
			c0.4,0.4,0.7,0.7,1.1,1.1c0.5,0.4,0.9,0.9,1.4,1.2c3.5,2.1,4.5,1.5,4.5-2.5c0-3.3-0.1-6.6,0-9.9c0.2-5.3-2.9-8.3-7-10.8l0,0
			c-1.8-2.8-4.9-4.1-7.5-5.8c-4.3-2.7-8.6-5.9-13.8-6.3c-3.4-0.2-6.5-0.7-9.5-2.1l0,0c-0.9-1.6-1.7-3.2-0.6-5.1
			c0.9-1.6,0-2.5-1.3-3.3c-1.9-1.1-3.4-2.6-2.2-4.9c1.2-2.2,3.4-1.7,5.4-1.1c1.1,0.3,2,1.3,3.3,0.9c0,0-0.1,0-0.1,0
			c-0.6,4.9,2.6,6.7,6.4,7.9c0.1,0.2,0.3,0.3,0.5,0.5c1.4,2.1,2,5,5.3,5.2l0,0c0.1,1.7,1.2,2,2.6,1.9l0,0c0.7,2.2,2.4,3,4.5,3.2l0,0
			c-0.1,1.4,1.1,1.7,1.9,2.3c2.6,1.9,5.3,3.6,7.4,6c0.6,0.7,1.2,1.6,2.4,1.2c1.2-0.4,1.6-1.5,1.7-2.5c0.3-3.2-0.7-6-3-8.3l0,0
			c-0.2-0.2-0.4-0.4-0.7-0.7l0,0c-0.6-2.2-2.6-3.4-3.6-5.2c-1-1.9-1.7-3.8-0.1-5.6c1.9-2.1,1.6-3.9,0.1-6.2
			c-2.4-3.7-3.5-7.6-0.1-11.5c0.8-1,0.9-2.2,0.7-3.6c-0.4-2.5-1-5.4,0.9-7.4c2.3-2.5,3.8-5.4,5.3-8.4c0.7-1.3,1.6-2.8,3.3-2.6
			c1.6,0.2,2.4,1.6,2.8,3.2c0.2,0.7,0.6,1.5,0.5,2.2c-0.2,2.4,0.7,4,2.4,5.6c2.4,2.1,2.8,4.7,1.1,7.5c-0.4,0.7-1,1.2-0.3,2.2
			c3.7,5.6,2.8,10.9-1.2,15.9c-0.5,0.7-1.2,1.5-0.7,2.3c2.3,4,1,7.8-0.1,11.7l0,0c-3.1,0.9-3.8,3.5-4.3,6.1
			c-0.3,1.3-0.8,3.1,0.5,3.9c1.4,0.8,3.3,0.7,4.9-0.3c0.4-0.3,0.9-0.5,1.3-0.9c4-3.6,8.6-6.3,13.2-8.9c2.1-1.2,3.2-2.7,3.9-5
			c0.7-2.3,1.6-4.7,4.6-5.1c4.5-0.6,6.9-3,7.7-7.9c0,0,0-0.1,0-0.1c5.3,0.6,5.7,1.4,3.5,6.2c-0.6,1.5-1.2,3-1.6,4.5
			c-1.3,4.8-3.2,6.4-8.1,6.9c-8.9,1-16,6.1-22.9,11.3c-0.2,0.1-0.1,0.6-0.2,0.9h0c-3.4,0.8-7,4.9-7,8.1c-0.1,4,0.1,7.9-0.1,11.9
			c-0.1,2.6,1.3,2.9,3.2,2.4c2.2-0.6,3.7-2.1,4.7-4.1c0.9-1.8,1.6-3.7,2.4-5.6c0.7-1.8,1.8-3,4-3.2c2.8-0.2,4.2-2.3,5.2-4.6
			c0.8-1.9,1.7-3.2,4.2-3.2c1.9,0.1,3.3-1.2,4.6-2.6c2.3-2.6,5-4.3,8.7-3.7c3,0.5,4.9-1.7,7.3-2.9c1-0.5,1.8-1.5,3.1-1.3
			c0.6,1.3-0.4,2.2-0.8,3.3c-1.3,3.3-3,6.4-2.7,10.1c0.2,2.5-1.9,3.6-3.8,4.2c-3.6,1.1-6.6,2.1-5.4,7.2c0.6,2.4-2.5,4.4-5.9,4.6
			C249.9,334,247.9,333.4,247.3,335.8L247.3,335.8z M221,294.7c1.9-2.4,2.4-9.1,2-12c-1-6.8-4-13.5-0.1-20.3c-2.9-0.4-1,4.9-4.7,3.2
			c-0.2-0.1-0.5,0.8-0.2,1.1c2.4,1.9,1.5,4.8,2.1,7.2c0.7,2.6,1,5.2,1.4,7.9c0.1,0.9,0.6,2.1-0.5,2.6c-1,0.4-1.5-0.5-2-1.1
			c-0.2-0.2-0.5-0.3-0.9-0.5c-0.1,1.4,0.4,2.5,1.4,2.8c2.7,0.9,2.4,2.9,2.3,5C221.6,291.6,221.3,292.8,221,294.7z M259.7,314.2
			c-4.3,4.2-9.6,6.3-14.8,8.8c-2.3,1.1-4.5,3-4.8,6.2c2.8-4.2,7.1-5.9,11.4-7.9C254.8,319.8,258,317.8,259.7,314.2z M186.7,317.5
			c4,2.9,8.6,4.6,12.6,7.3C196,320.6,191.2,319.3,186.7,317.5z M203.1,328.2c-0.7-1.8-1.4-2.6-3.1-2.6
			C200.6,326.8,201.3,327.6,203.1,328.2z M225.3,283c0.2-0.1,0.3-0.1,0.5-0.2c-0.1-0.1-0.1-0.2-0.2-0.2c-0.2,0-0.3,0.1-0.5,0.2
			C225.2,282.9,225.3,282.9,225.3,283z M183.4,313.7c-0.1-0.1-0.3-0.2-0.4-0.2c0,0-0.1,0.1-0.2,0.2c0.2,0.1,0.3,0.2,0.5,0.2
			C183.3,313.9,183.4,313.7,183.4,313.7z"/>
		<path class="st9" d="M280.7,240.6c-40.2,0-80.4,0-120.6,0c4-1.7,8-3.6,11.9-5.6c9.8-5,18.4-11.6,26.4-19
			c6.8-6.3,13.4-12.9,19.2-20.2c1.3-1.6,2.2-3.6,4.9-0.5c12.2,13.9,25,27.2,41.1,36.9C269,235.4,274.6,238.3,280.7,240.6z"/>
		<path class="st10" d="M142.7,242.5c5.1,46.7,27.5,84.5,60,117.2c-11.2,2.2-40.2-16.3-51.8-33.3
			C132.9,299.9,130.8,271.9,142.7,242.5z"/>
		<path class="st10" d="M238,360c32.3-32.7,54.5-70.4,59.7-116.7c8.8,15.5,12.5,47.5-2.8,74.7C282.2,340.5,263.2,354.5,238,360z"/>
		<path class="st9" d="M178.4,304.9c-0.8-0.8-1.6-1.6-2.4-2.4c0-2.2-1.5-2.2-3.1-2.1c-1.2,0-2.1,0.7-2,1.9c0.1,1.7-1.1,4,1.9,4.5
			l0,0c0.7,2.7,0.5,5.3-0.4,7.9c-0.6,2-0.1,3.7,2.3,4.3l0,0c0,1.4,1,2.1,2,2.6c1.6,0.8,3.2,1.6,4.8,2.5c1.3,0.7,2.2,1.4,1.9,3.2
			c-0.8,4.4,0.6,6.6,4.8,7.9c2.5,0.8,5.3,0.6,7.7,1.8l0,0c3.2,4.2,6.9,4.6,11.6,1.3l0,0c0.5,0,1-0.1,1.3-0.6l0,0
			c3-1.1,5.7,0.3,8.6,0.6c0.1,0.2,0.3,0.3,0.4,0.5c3.2,6.8,1.5,14,2,21.1c0.2,2.2-0.6,3-2.9,2.9c-5.1-0.1-9.2-1.6-13.1-5.2
			c-13.4-12.5-24.8-26.4-34.2-42.1c-4.7-7.9-8.8-16.2-12.2-24.7c-0.7-1.8-0.5-2.6,1.6-2.5c5.7,0.1,11.4,0.1,17,0
			c2.1-0.1,2.4,2,3.9,2.5c2.3,0.8,1.5,2.1,1,3.7c-0.6,1.8-0.1,3.6,2.3,4.1l0,0c1,3.2,3.9,3.1,6.3,3.1c3.1,0.1,6,0.5,8.7,1.9
			c4.5,2.4,9,4.8,13.1,8c0.9,0.7,1.6,1.4,2.8,1.2l0,0c0,0.7,0.2,1.3,0.7,1.7c4.8,3.4,5.6,8.2,5,13.5c-0.1,0.7,0,1.5,0,2.2
			c-0.1,1.7,0.5,3.8-0.4,5c-1,1.4-2.7-1.2-4.3-0.6c-0.4-0.4-0.7-0.7-1.1-1.1c-1.1-4.3-3.6-7.9-5.6-11.7c-0.3-0.6-1.4-1.1-2.2-1.2
			c-2.2-0.3-3.3-1.7-4-3.6c-0.6-1.6-1.1-3.6-3.1-3.8c-3.9-0.5-7.2-1.7-9-5.5l0,0c-0.8-1.5-2.2-2-3.7-1.9
			C183.7,305.7,181.1,305.4,178.4,304.9z"/>
		<path class="st10" d="M223.6,192.5c6-0.4,11.5,0.8,17,2.2c15.2,3.7,28.4,11.2,39.5,22.1c6.5,6.3,11.6,13.7,15.9,21.6
			c1.1,2,0.3,2.3-1.5,2.2c-8.8-0.6-17-3.3-24.7-7.5c-18.1-9.9-32.8-23.8-45.9-39.6C223.8,193.5,223.8,193.2,223.6,192.5z"/>
		<path class="st10" d="M217,192.6c-0.8,2.2-2.4,3.5-3.7,5c-13.3,15.2-28.1,28.7-46.6,37.6c-6,2.9-12.4,4.7-19,5.4
			c-1.1,0.1-2.8,0.4-3.4-0.2c-0.9-0.9,0.4-2.1,1-3.1c13.1-23.5,32.8-38.1,59.2-43.5C208.5,193,212.5,192.1,217,192.6z"/>
		<path class="st9" d="M230,313.3c3.3-1.2,5.9-3.8,8.9-5.5c4.6-2.6,9.1-5,14.5-5.6c4.7-0.5,8.7-2.3,9.1-8.1c0.1-1.3,0.8-2.6,1.3-3.9
			c0.5-1.4,1.4-2,2.9-2c5,0.1,10.1,0,15.1,0c1.2,0,2.6-0.1,1.9,1.9c-4.2,10.2-8.9,20-15.4,29.7c-0.7-3.2-0.3-5.7,0.8-8.2
			c0.6-1.4,1.2-2.7,1.8-4.1c0.5-1.3,1.8-2.8,0.3-4.1c-1.4-1.1-2.7,0.2-3.8,0.9c-3.2,2.1-6.3,3.7-10.4,3.2c-2.6-0.3-4.5,1.8-6.3,3.4
			c-1.7,1.6-3.2,3.1-5.8,3c-1.8-0.1-2.5,1.4-3.1,2.8c-1.3,2.7-2.7,4.9-6.3,5.1c-2.5,0.1-3.2,2.9-4.1,4.9c-1,2.4-1.8,4.8-3.8,6.6
			c-0.7,0.7-1.5,1.4-2.5,1c-1.3-0.4-0.8-1.6-0.9-2.5c0-0.4,0-0.9,0-1.3C223.7,324,223.7,317.6,230,313.3L230,313.3z"/>
		<path class="st9" d="M247.3,335.8c1.4-0.2,2.7-0.6,4.1-0.7c5.1-0.1,7.4-2.7,6.9-7.8c-0.1-1.7,0.8-2.6,2.2-3.1
			c1.8-0.7,3.6-1.3,5.9-2.1c-1.3,3.8-3.7,6.2-5.6,8.8c-7,9.8-15.3,18.3-23.9,26.6c-2.9,2.7-5.9,5.1-10.1,5.2c-1.7,0-2.6-0.2-2.6-2.2
			c0.1-5.5-0.1-10.9,0.1-16.4c0.1-4.9,4.2-8,9-6.7c2.3,0.6,4.4,1.5,6.7,2.1C245,341,245.3,340.8,247.3,335.8L247.3,335.8z"/>
		<path class="st9" d="M267.3,321c-0.1,0.1-0.2,0.2-0.3,0.3c0-0.1,0-0.1,0-0.2C267.1,321.1,267.2,321,267.3,321L267.3,321z"/>
		<path class="st9" d="M267.3,321c0.1-0.1,0.2-0.2,0.3-0.3c0,0.1,0,0.1,0,0.2C267.4,320.9,267.3,321,267.3,321L267.3,321z"/>
		<path class="st3" d="M125.3,227.7c2,0,3.5,1.2,3.6,2.9c0.2,3-1.7,5.4-3,7.9c-0.3,0.6-0.9,0.1-1.4,0c-5.4-1.6-5.7-2.3-3.2-7.3
			C122.2,229.6,122.9,227.8,125.3,227.7z"/>
		<path class="st3" d="M116.9,224.6c1.6,0.3,3,1.5,2.4,3.5c-0.7,2.3-0.9,5.6-3.7,6.2c-1.2,0.2-4.3-0.5-4.5-2.8
			C110.9,228.4,114.5,224.3,116.9,224.6z"/>
		<path class="st3" d="M329.1,231.5c0,1.1-0.6,2.1-1.9,2.8c-1.3,0.7-2.5,0.5-3.5-0.4c-2.2-2.1-2.9-5.1-4.3-7.7
			c-0.4-0.8,0.4-1,0.9-1.4c4.6-2.9,5-2.8,7.3,2.3C328.3,228.4,329,229.7,329.1,231.5z"/>
		<path class="st3" d="M111.4,253.1c-0.2,0.9-0.6,2.2-0.7,3.4c-0.1,3.6-1.6,3.9-4.9,3.2c-2.7-0.6-3-1.6-2.3-3.8
			c0.4-1.4,0.6-2.9,1-4.4c0.6-2,1.7-3.6,4.1-3.1C110.9,248.8,111.5,250.6,111.4,253.1z"/>
		<path class="st3" d="M250.8,389.1c0.1,2.6-1.7,4.5-4,4.5c-2.4,0-4.6-2.4-4.7-5.2c-0.1-2.6,1.8-4.7,4.2-4.6
			C248.8,383.8,250.8,386.1,250.8,389.1z"/>
		<path class="st3" d="M132.1,214.4c-1.8-2.8-3.4-5.5-5.4-8.6c3.6,1.1,6.5,2,9.8,3C134.9,210.8,133.5,212.5,132.1,214.4z"/>
		<path class="st3" d="M219.2,386.5c-0.1,2.5-0.2,4.9-1.1,7.3c-0.7,1.8-1.8,3.3-4,3.1c-2.1-0.2-3.2-1.7-3.4-3.7
			c-0.5-3.6-0.4-7.3,0.7-10.8c0.6-2,1.7-3.6,4.1-3.4c2.3,0.2,3.2,2,3.6,4C219.2,384.1,219.1,385.3,219.2,386.5z"/>
		<path class="st3" d="M312.9,356.3c0,0.2,0,0.5,0,0.7c-0.2,0-0.5,0-0.7,0C312.2,356.5,312.2,356,312.9,356.3z"/>
		<path class="st4" d="M259.2,283.5c-0.8,4.9-3.2,7.4-7.7,7.9c-3,0.4-3.9,2.8-4.6,5.1c-0.7,2.3-1.8,3.8-3.9,5
			c-4.6,2.7-9.2,5.4-13.2,8.9c-0.4,0.3-0.9,0.6-1.3,0.9c-1.6,1-3.4,1.2-4.9,0.3c-1.3-0.8-0.8-2.6-0.5-3.9c0.6-2.6,1.3-5.2,4.3-6.1
			c-0.1,2-2.4,2.7-2.8,4.5c-0.4,1.5-1,3.2,0.2,4.2c1.3,1,2.9,0.1,4.1-0.9c4.3-3.7,9.2-6.5,14.1-9.4c1.2-0.7,2.1-1.5,2.5-3
			c1.1-3.8,2.6-7.4,7.7-6.9c0.9,0.1,1.9-0.4,1.9-1.9c-7.9,0-15.9,0-23.8,0c-2.4,0-2.9,0.9-2.1,3.2c1.4,3.7,1.4,7.3-1.9,10.2
			c1.1-3.9,2.4-7.8,0.1-11.7c-0.5-0.8,0.2-1.6,0.7-2.3c3.9-5,4.9-10.4,1.2-15.9c-0.7-1-0.2-1.5,0.3-2.2c1.7-2.8,1.3-5.4-1.1-7.5
			c-1.8-1.5-2.7-3.2-2.4-5.6c0.1-0.7-0.3-1.4-0.5-2.2c-0.4-1.6-1.2-3-2.8-3.2c-1.7-0.2-2.6,1.3-3.3,2.6c-1.5,2.9-2.9,5.9-5.3,8.4
			c-1.9,2-1.3,4.9-0.9,7.4c0.2,1.4,0.2,2.6-0.7,3.6c-3.4,3.9-2.3,7.8,0.1,11.5c1.5,2.3,1.8,4.1-0.1,6.2c-1.6,1.8-0.9,3.7,0.1,5.6
			c1,1.9,3,3,3.6,5.2c-4.8-2.1-6.9-7.3-4.6-11.7c0.9-1.8,0.1-1.8-1.2-1.8c-6.4,0-12.8,0-19.2,0c-0.6,0-1.5-0.2-1.6,0.6
			c-0.2,0.9,0.7,1.2,1.4,1.5c1.2,0.6,2.9,0.6,2.8,2.5c-3.8-1.3-7-3-6.4-7.9c0.9,0.6,1.6,1.4,3,1.4c7.1-0.1,14.1-0.1,21.4-0.1
			c-0.8-2.1-1.6-4.1-2.3-6c-0.8-2.3-0.5-4.6,1-6.4c1.3-1.6,1.6-3.1,1.3-5c-0.6-3.8,0-7.1,3.2-9.8c1.4-1.2,2-3.5,2.8-5.3
			c1-2.1,2.3-3.8,4.7-3.7c2.6,0.1,3.6,2.2,4,4.4c0.5,3.2,1.6,5.9,3.8,8.4c1.7,1.9,1.6,4.3,0.5,6.7c-0.4,0.7-1,1.4-0.4,2.4
			c3,4.6,2.7,9.3,0.1,14.5c5,0,9.7,0,14.3,0c1.9,0,3.8,0,5.8,0C254,286.3,257.3,287,259.2,283.5z"/>
		<path class="st9" d="M194,292.9c0.1-2-1.6-1.9-2.8-2.5c-0.6-0.3-1.6-0.6-1.4-1.5c0.2-0.8,1-0.6,1.6-0.6c6.4,0,12.8,0,19.2,0
			c1.2,0,2.1,0,1.2,1.8c-2.3,4.4-0.1,9.6,4.6,11.7c0,0,0,0,0,0c0.2,0.2,0.4,0.4,0.7,0.7l0,0c0.6,2.3,1.3,4.7,1.9,7
			c0.2,0.7,0.2,1.6-0.5,2.1c-0.9,0.6-1.3-0.4-1.8-0.9c-3-2.7-6-5.4-9.9-6.9l0,0c-1-1.7-2.6-2.7-4.5-3.2l0,0
			c-0.5-1.1-1.3-1.9-2.6-1.9l0,0c-1.8-1.7-2.6-4.4-5.3-5.2C194.3,293.2,194.2,293.1,194,292.9z"/>
		<path class="st4" d="M221,294.7c0.3-1.9,0.6-3.1,0.7-4.4c0.1-2,0.4-4.1-2.3-5c-0.9-0.3-1.5-1.4-1.4-2.8c0.4,0.2,0.8,0.3,0.9,0.5
			c0.5,0.7,1.1,1.6,2,1.1c1.1-0.5,0.7-1.7,0.5-2.6c-0.4-2.6-0.8-5.3-1.4-7.9c-0.6-2.4,0.3-5.2-2.1-7.2c-0.3-0.2,0-1.1,0.2-1.1
			c3.7,1.7,1.8-3.5,4.7-3.2c-3.9,6.7-0.8,13.5,0.1,20.3C223.4,285.6,222.9,292.3,221,294.7z"/>
		<path class="st4" d="M190.1,307.5c1.8,3.8,5.1,5,9,5.5c1.9,0.2,2.5,2.2,3.1,3.8c0.7,2,1.7,3.3,4,3.6c0.8,0.1,1.9,0.6,2.2,1.2
			c2,3.9,4.5,7.5,5.6,11.7c-2.7-2.3-3.7-5.6-5.2-8.7c-0.8-1.7-1.7-3-3.9-3.3c-2.2-0.3-3.4-2.1-3.9-4.2c-0.6-2.6-2.5-3.5-4.9-3.8
			C191.4,312.7,191,312.4,190.1,307.5z"/>
		<path class="st4" d="M213.9,312.6c-1.2,0.2-2-0.5-2.8-1.2c-4.1-3.1-8.6-5.6-13.1-8c-2.7-1.4-5.6-1.8-8.7-1.9c-2.4,0-5.3,0-6.3-3.1
			c3,1.4,6.1,1.9,9.5,2.1c5.2,0.4,9.5,3.6,13.8,6.3C209.1,308.5,212.1,309.9,213.9,312.6z"/>
		<path class="st4" d="M215,334.5c1.6-0.6,3.3,1.9,4.3,0.6c0.8-1.1,0.3-3.3,0.4-5c0-0.7-0.1-1.5,0-2.2c0.6-5.4-0.3-10.2-5-13.5
			c-0.5-0.4-0.8-1-0.7-1.7c4.1,2.4,7.2,5.5,7,10.8c-0.1,3.3,0,6.6,0,9.9c0,4-1,4.5-4.5,2.5C215.9,335.4,215.5,334.9,215,334.5z"/>
		<path class="st4" d="M196,337c-2.4-1.2-5.2-1-7.7-1.8c-4.2-1.3-5.6-3.5-4.8-7.9c0.3-1.8-0.6-2.5-1.9-3.2c-1.6-0.9-3.2-1.6-4.8-2.5
			c-1.1-0.6-2-1.2-2-2.6c2.8,1.5,5.6,3,8.3,4.5c1.3,0.7,1.9,1.9,1.7,3.4c-0.5,5,1.2,7.1,6.3,7.5C193,334.7,195.3,334.3,196,337z"/>
		<path class="st4" d="M259.7,314.2c-1.7,3.6-4.9,5.6-8.2,7.1c-4.3,2-8.6,3.7-11.4,7.9c0.3-3.2,2.5-5.1,4.8-6.2
			C250.1,320.6,255.4,318.4,259.7,314.2z"/>
		<path class="st4" d="M206.8,303.7c3.8,1.5,6.8,4.2,9.9,6.9c0.5,0.4,0.8,1.5,1.8,0.9c0.7-0.5,0.7-1.3,0.5-2.1
			c-0.6-2.4-1.2-4.7-1.9-7c2.3,2.3,3.3,5.1,3,8.3c-0.1,1-0.5,2.1-1.7,2.5c-1.1,0.4-1.7-0.5-2.4-1.2c-2.1-2.4-4.8-4.1-7.4-6
			C207.9,305.3,206.8,305,206.8,303.7z"/>
		<path class="st4" d="M186.7,317.5c4.6,1.8,9.4,3.1,12.6,7.3C195.2,322.1,190.6,320.4,186.7,317.5z"/>
		<path class="st4" d="M174.8,319.1c-2.4-0.5-2.9-2.3-2.3-4.3c0.8-2.7,1.1-5.3,0.4-7.9c2,1.3,2.2,3.2,1.5,5.3
			C173.5,314.5,173.2,316.9,174.8,319.1z"/>
		<path class="st4" d="M207.5,338.3c-4.6,3.3-8.3,2.9-11.6-1.3c2.5,0.2,4.4,2.9,7.3,2C204.6,338.6,206.1,338.6,207.5,338.3z"/>
		<path class="st4" d="M178.4,304.9c2.7,0.4,5.4,0.8,8.1,0.7c1.5,0,2.9,0.4,3.7,1.9c-2.5-0.6-5-0.8-7.6-0.7
			C180.9,306.9,179.4,306.4,178.4,304.9z"/>
		<path class="st4" d="M172.8,306.9c-3-0.5-1.8-2.8-1.9-4.5c-0.1-1.2,0.8-1.9,2-1.9c1.5,0,3.1,0,3.1,2.1c-1.2-0.3-2.4-1.7-3.5-0.5
			C171.3,303.6,172.5,305.3,172.8,306.9z"/>
		<path class="st4" d="M217.3,338.3c-2.8-0.4-5.6-1.7-8.6-0.6C212.9,335.1,214.2,335.2,217.3,338.3z"/>
		<path class="st4" d="M194.5,293.4c2.6,0.8,3.5,3.5,5.3,5.2C196.5,298.4,195.9,295.5,194.5,293.4z"/>
		<path class="st4" d="M202.3,300.5c1.9,0.5,3.5,1.5,4.5,3.2C204.7,303.5,203,302.7,202.3,300.5z"/>
		<path class="st4" d="M203.1,328.2c-1.8-0.6-2.5-1.4-3.1-2.6C201.7,325.5,202.4,326.4,203.1,328.2z"/>
		<path class="st4" d="M199.8,298.5c1.3,0,2,0.9,2.6,1.9C200.9,300.6,199.9,300.2,199.8,298.5z"/>
		<path class="st4" d="M225.3,283c-0.1-0.1-0.1-0.2-0.2-0.2c0.2-0.1,0.3-0.2,0.5-0.2c0,0,0.1,0.1,0.2,0.2
			C225.6,282.9,225.5,282.9,225.3,283z"/>
		<path class="st4" d="M208.8,337.7c-0.3,0.5-0.8,0.6-1.3,0.6C207.7,337.8,208.3,337.7,208.8,337.7z"/>
		<path class="st4" d="M183.4,313.7c-0.1,0.1-0.1,0.2-0.2,0.2c-0.2-0.1-0.3-0.2-0.5-0.2c0.1-0.1,0.2-0.2,0.2-0.2
			C183.1,313.5,183.3,313.6,183.4,313.7z"/>
		<path class="st4" d="M217.2,302.4c-0.2-0.2-0.4-0.4-0.7-0.7C216.7,301.9,216.9,302.1,217.2,302.4z"/>
		<path class="st9" d="M227.4,301.7c3.3-2.9,3.3-6.5,1.9-10.2c-0.9-2.3-0.4-3.2,2.1-3.2c7.9,0,15.8,0,23.8,0c0,1.5-1,1.9-1.9,1.9
			c-5.1-0.5-6.6,3.1-7.7,6.9c-0.4,1.5-1.3,2.3-2.5,3c-4.8,2.9-9.8,5.7-14.1,9.4c-1.2,1-2.8,1.9-4.1,0.9c-1.2-1-0.6-2.7-0.2-4.2
			C225,304.4,227.3,303.7,227.4,301.7L227.4,301.7z"/>
	</g>
	<g>
		<g>
			<path class="st1" d="M526,225c-4.3,0-8.5,0-13,0c0-8.7,0-16.9,0-25.5c1.7-0.1,3.2-0.2,4.7-0.2c20.7,0,41.3,0.1,61.9-0.1
				c3.3,0,5.5,1,7.8,3.3c5.1,5.3,10.7,10.1,15.7,15.5c1.6,1.7,2.8,4.5,2.9,6.8c0.3,8.9,0,17.8,0.2,26.7c0.1,3.3-1.1,5.2-3.9,6.6
				c-3,1.5-5.9,3.4-9.2,5.4c2.8,1.9,5,3.8,7.5,4.9c4.9,2.1,5.9,5.5,5.6,10.4c-0.4,8.3,0,16.6-0.2,24.9c-0.1,2-0.9,4.3-2.2,5.7
				c-5.6,5.9-11.5,11.5-17.4,17.1c-1,1-2.7,1.8-4.1,1.8c-22.7,0.1-45.4,0-68,0c-0.3,0-0.6-0.2-1.3-0.4c0-8,0-16.2,0-24.9
				c4.3,0,8.4,0,12.9,0C526,277,526,251.4,526,225z M577.4,225.5c-9.3,0-18,0-26.5,0c0,8.8,0,17,0,25.3c9,0,17.6,0,26.5,0
				C577.4,242.2,577.4,233.9,577.4,225.5z M577.2,302.6c0-8.9,0-17.2,0-25.5c-9.1,0-17.8,0-26.3,0c0,8.7,0,17,0,25.5
				C559.9,302.6,568.5,302.6,577.2,302.6z"/>
			<path class="st1" d="M426.7,303c0-26.4,0-52,0-78.1c-3.5,0-6.8,0.2-10-0.1c-1.2-0.1-3.1-1.4-3.2-2.1c-0.2-7.6-0.1-15.2-0.1-23.1
				c31.2,0,62,0,93,0c0,12.8,0,25.4,0,38.7c-8,0-15.9,0.1-23.8-0.1c-0.8,0-2-1.7-2.1-2.7c-0.3-3.2-0.1-6.5-0.1-10.1
				c-9.1,0-17.7,0-26.8,0c0,8.3,0,16.7,0,25.6c8.4,0,16.9,0,25.8,0c0,8.7,0,16.9,0,25.7c-8.5,0-17,0-25.9,0c0,8.9,0,17.3,0,26.1
				c4.3,0,8.5,0,13,0c0,8.7,0,16.9,0,25.4c-17.5,0-35,0-52.8,0c0-8.2,0-16.4,0-25.1C417.8,303,422,303,426.7,303z"/>
			<path class="st1" d="M613.7,228.7c8.6,0,16.8,0,25.7,0c0,24.5,0,49,0,73.8c9.1,0,17.6,0,26.8,0c0-24.3,0-48.8,0-73.6
				c9,0,17.3,0,26.3,0c0.1,1.4,0.2,2.9,0.2,4.4c0,23.5,0.1,46.9-0.1,70.4c0,2.3-1.3,5-2.9,6.8c-4.7,5-10,9.5-14.7,14.5
				c-2.6,2.8-5.3,3.7-9,3.6c-9.4-0.2-18.8,0-28.1-0.2c-1.9,0-4.3-0.9-5.7-2.2c-5.5-5-10.9-10.3-16.1-15.7c-1.3-1.3-2.4-3.4-2.4-5.2
				c-0.2-24.7-0.1-49.4-0.1-74.1C613.3,230.4,613.5,229.8,613.7,228.7z"/>
			<path class="st1" d="M692.2,220.9c-8.6,0-16.9,0-25.5,0c0-7.1,0-14,0-21.2c8.4,0,16.8,0,25.5,0
				C692.2,206.5,692.2,213.5,692.2,220.9z"/>
			<path class="st1" d="M613.6,220.7c0-7.1,0-13.9,0-21.1c8.5,0,16.8,0,25.5,0c0,7,0,13.9,0,21.1
				C630.6,220.7,622.2,220.7,613.6,220.7z"/>
		</g>
	</g>
</g>
</svg>
